<svg xmlns="http://www.w3.org/2000/svg" xmlns:xlink="http://www.w3.org/1999/xlink" width="2000" zoomAndPan="magnify" viewBox="0 0 1500 1499.999933" height="2000" preserveAspectRatio="xMidYMid meet" version="1.0"><defs><g/><clipPath id="7e87a108d7"><path d="M 306.414062 446 L 1193.664062 446 L 1193.664062 775 L 306.414062 775 Z M 306.414062 446 " clip-rule="nonzero"/></clipPath><clipPath id="ac8e417d49"><rect x="0" width="1435" y="0" height="313"/></clipPath><clipPath id="c50ccea4db"><rect x="0" width="1318" y="0" height="175"/></clipPath></defs><path fill="#063550" d="M 736.335938 361.875 L 777.5 361.875 L 777.5 403.039062 L 736.335938 403.039062 Z M 736.335938 361.875 " fill-opacity="1" fill-rule="nonzero"/><path fill="#063550" d="M 670.949219 361.875 L 712.113281 361.875 L 712.113281 403.039062 L 670.949219 403.039062 Z M 670.949219 361.875 " fill-opacity="1" fill-rule="nonzero"/><path fill="#063550" d="M 736.335938 297.820312 L 777.5 297.820312 L 777.5 338.988281 L 736.335938 338.988281 Z M 736.335938 297.820312 " fill-opacity="1" fill-rule="nonzero"/><path fill="#063550" d="M 670.949219 297.820312 L 712.113281 297.820312 L 712.113281 338.988281 L 670.949219 338.988281 Z M 670.949219 297.820312 " fill-opacity="1" fill-rule="nonzero"/><g clip-path="url(#7e87a108d7)"><path fill="#063550" d="M 841.820312 578.523438 C 751.859375 613.476562 680.085938 628.558594 651.609375 622.96875 C 627.480469 618.179688 614.4375 603.71875 614.4375 603.71875 C 610.621094 599.460938 603.171875 591.207031 604.5 583.136719 C 607.164062 566.632812 644.15625 559.980469 657.289062 557.230469 C 762.0625 535.671875 780.335938 472.59375 899.839844 452.542969 C 921.042969 448.996094 947.480469 444.558594 980.75 447.929688 C 1094.304688 459.375 1167.496094 548.980469 1193.582031 584.730469 C 1174.152344 592.804688 1145.585938 604.871094 1111.339844 620.128906 C 989.089844 674.601562 973.121094 690.484375 909.332031 716.921875 C 834.367188 748.058594 759.933594 778.933594 662.523438 774.054688 C 605.386719 771.214844 561.117188 757.019531 497.863281 736.792969 C 443.390625 719.40625 481.804688 726.234375 357.78125 672.738281 C 339.859375 664.933594 306.414062 650.738281 306.5 632.019531 C 306.5 625.1875 311.027344 618.179688 316.527344 614.097656 C 325.042969 607.796875 337.285156 607.445312 348.464844 613.03125 C 348.640625 608.863281 349.527344 602.742188 353.875 597.773438 C 359.910156 590.855469 369.402344 590.054688 373.128906 589.789062 C 402.582031 587.570312 531.222656 626.695312 587.46875 637.785156 C 613.371094 642.84375 675.03125 654.285156 744.761719 632.195312 C 789.210938 618.179688 821.589844 595.378906 841.820312 578.523438 Z M 841.820312 578.523438 " fill-opacity="1" fill-rule="nonzero"/></g><path fill="#ff66c4" d="M 1072.570312 395.5 L 724.269531 108.234375 L 375.878906 395.5 L 456.34375 395.5 L 471.335938 383.167969 L 471.335938 580.738281 L 521.816406 592.71875 L 521.816406 341.914062 L 724.269531 175.835938 L 930.445312 344.574219 L 930.445312 413.421875 L 978.796875 413.421875 L 978.796875 384.144531 L 992.726562 395.5 Z M 1072.570312 395.5 " fill-opacity="1" fill-rule="nonzero"/><g transform="matrix(1, 0, 0, 1, 34, 868)"><g clip-path="url(#ac8e417d49)"><g fill="#063550" fill-opacity="1"><g transform="translate(1.32625, 247.28338)"><g><path d="M 7.390625 0 L 7.390625 -18.703125 L 15.015625 -19.40625 C 19.484375 -19.863281 21.71875 -22.019531 21.71875 -25.875 L 21.71875 -133.28125 L 8.546875 -133.96875 L 8.546875 -153.609375 L 74.609375 -153.609375 C 91.859375 -153.609375 105.289062 -149.5625 114.90625 -141.46875 C 124.53125 -133.382812 129.34375 -121.257812 129.34375 -105.09375 C 129.34375 -88.925781 123.875 -76.335938 112.9375 -67.328125 C 102.007812 -58.316406 87.539062 -53.8125 69.53125 -53.8125 L 49.890625 -53.8125 L 49.890625 -20.328125 L 72.0625 -19.640625 L 72.0625 0 Z M 49.890625 -76.21875 L 66.53125 -76.21875 C 89.007812 -76.21875 100.25 -85.382812 100.25 -103.71875 C 100.25 -114.800781 97.359375 -122.148438 91.578125 -125.765625 C 85.804688 -129.390625 76.609375 -131.203125 63.984375 -131.203125 L 49.890625 -131.203125 Z M 49.890625 -76.21875 "/></g></g></g><g fill="#063550" fill-opacity="1"><g transform="translate(137.600649, 247.28338)"><g><path d="M 21.9375 -25.875 L 21.9375 -89.859375 C 21.9375 -92.316406 21.515625 -94.046875 20.671875 -95.046875 C 19.828125 -96.046875 18.328125 -96.625 16.171875 -96.78125 L 6.46875 -97.46875 L 6.46875 -116.1875 L 45.5 -116.1875 L 45.5 -98.859375 C 48.269531 -104.867188 52.582031 -109.835938 58.4375 -113.765625 C 64.289062 -117.691406 71.023438 -119.65625 78.640625 -119.65625 C 86.265625 -119.65625 93.546875 -117.957031 100.484375 -114.5625 L 100.484375 -80.15625 L 79 -78.53125 L 79 -89.15625 C 79 -92.238281 78.226562 -94.164062 76.6875 -94.9375 C 74.988281 -95.707031 72.910156 -96.09375 70.453125 -96.09375 C 64.285156 -96.09375 59.238281 -93.894531 55.3125 -89.5 C 51.394531 -85.113281 49.4375 -79.535156 49.4375 -72.765625 L 49.4375 -19.171875 L 69.53125 -18.25 L 69.53125 0 L 7.625 0 L 7.625 -17.5625 L 15.25 -18.25 C 17.550781 -18.550781 19.238281 -19.203125 20.3125 -20.203125 C 21.394531 -21.210938 21.9375 -23.101562 21.9375 -25.875 Z M 21.9375 -25.875 "/></g></g></g><g fill="#063550" fill-opacity="1"><g transform="translate(244.310437, 247.28338)"><g><path d="M 65.59375 -119.65625 C 77.144531 -119.65625 86.304688 -116.84375 93.078125 -111.21875 C 99.859375 -105.59375 103.25 -97.703125 103.25 -87.546875 C 103.25 -80.765625 101.785156 -74.796875 98.859375 -69.640625 C 95.929688 -64.484375 92.3125 -60.441406 88 -57.515625 C 83.6875 -54.585938 78.453125 -52.203125 72.296875 -50.359375 C 61.984375 -47.273438 50.359375 -45.734375 37.421875 -45.734375 C 37.878906 -37.578125 40.414062 -30.992188 45.03125 -25.984375 C 49.65625 -20.984375 56.738281 -18.484375 66.28125 -18.484375 C 75.832031 -18.484375 85.382812 -21.867188 94.9375 -28.640625 L 103.71875 -9.9375 C 100.632812 -7.164062 95.4375 -4.316406 88.125 -1.390625 C 80.8125 1.535156 72.457031 3 63.0625 3 C 44.269531 3 30.484375 -2.195312 21.703125 -12.59375 C 12.929688 -22.988281 8.546875 -37.269531 8.546875 -55.4375 C 8.546875 -73.601562 13.550781 -88.847656 23.5625 -101.171875 C 33.570312 -113.492188 47.582031 -119.65625 65.59375 -119.65625 Z M 55.078125 -66.875 C 60.703125 -67.875 65.898438 -70.101562 70.671875 -73.5625 C 75.453125 -77.03125 77.84375 -81.148438 77.84375 -85.921875 C 77.84375 -95.316406 73.222656 -100.015625 63.984375 -100.015625 C 55.359375 -100.015625 48.734375 -96.585938 44.109375 -89.734375 C 39.492188 -82.878906 36.957031 -74.679688 36.5 -65.140625 C 43.269531 -65.296875 49.460938 -65.875 55.078125 -66.875 Z M 55.078125 -66.875 "/></g></g></g><g fill="#063550" fill-opacity="1"><g transform="translate(356.101648, 247.28338)"><g><path d="M 35.578125 -59.359375 C 35.578125 -46.273438 38.039062 -36.113281 42.96875 -28.875 C 47.894531 -21.632812 55.015625 -18.015625 64.328125 -18.015625 C 73.640625 -18.015625 82.84375 -21.328125 91.9375 -27.953125 L 101.859375 -10.15625 C 90.929688 -1.226562 77.226562 3.234375 60.75 3.234375 C 44.269531 3.234375 31.296875 -1.960938 21.828125 -12.359375 C 12.359375 -22.753906 7.625 -38.113281 7.625 -58.4375 C 7.625 -78.757812 13.050781 -94.039062 23.90625 -104.28125 C 34.757812 -114.53125 47 -119.65625 60.625 -119.65625 C 74.257812 -119.65625 86.925781 -116.492188 98.625 -110.171875 L 98.625 -80.15625 L 77.375 -78.53125 L 77.375 -89.625 C 77.375 -93.78125 75.875 -96.359375 72.875 -97.359375 C 69.875 -98.359375 66.753906 -98.859375 63.515625 -98.859375 C 44.890625 -98.859375 35.578125 -85.691406 35.578125 -59.359375 Z M 35.578125 -59.359375 "/></g></g></g><g fill="#063550" fill-opacity="1"><g transform="translate(464.890187, 247.28338)"><g><path d="M 49.4375 -116.1875 L 49.4375 -19.171875 L 62.59375 -18.484375 L 62.59375 0 L 7.625 0 L 7.625 -17.5625 L 15.25 -18.25 C 19.707031 -18.707031 21.9375 -21.171875 21.9375 -25.640625 L 21.9375 -89.859375 C 21.9375 -92.472656 21.515625 -94.238281 20.671875 -95.15625 C 19.828125 -96.082031 18.328125 -96.546875 16.171875 -96.546875 L 8.078125 -97.015625 L 8.078125 -116.1875 Z M 20.3125 -136.171875 C 17.082031 -139.328125 15.46875 -143.367188 15.46875 -148.296875 C 15.46875 -153.222656 17.082031 -157.335938 20.3125 -160.640625 C 23.550781 -163.953125 27.789062 -165.609375 33.03125 -165.609375 C 38.269531 -165.609375 42.539062 -163.953125 45.84375 -160.640625 C 49.15625 -157.335938 50.8125 -153.222656 50.8125 -148.296875 C 50.8125 -143.367188 49.15625 -139.328125 45.84375 -136.171875 C 42.539062 -133.015625 38.269531 -131.4375 33.03125 -131.4375 C 27.789062 -131.4375 23.550781 -133.015625 20.3125 -136.171875 Z M 20.3125 -136.171875 "/></g></g></g><g fill="#063550" fill-opacity="1"><g transform="translate(533.258333, 247.28338)"><g><path d="M 60.75 -16.859375 C 77.53125 -16.859375 85.921875 -30.410156 85.921875 -57.515625 C 85.921875 -71.222656 84.035156 -81.617188 80.265625 -88.703125 C 76.492188 -95.785156 70.179688 -99.328125 61.328125 -99.328125 C 52.472656 -99.328125 45.96875 -95.9375 41.8125 -89.15625 C 37.65625 -82.382812 35.578125 -73.144531 35.578125 -61.4375 C 35.578125 -39.726562 39.578125 -26.101562 47.578125 -20.5625 C 51.117188 -18.09375 55.507812 -16.859375 60.75 -16.859375 Z M 7.625 -58.203125 C 7.625 -69.597656 9.316406 -79.492188 12.703125 -87.890625 C 16.085938 -96.285156 20.628906 -102.710938 26.328125 -107.171875 C 37.265625 -115.492188 49.351562 -119.65625 62.59375 -119.65625 C 71.832031 -119.65625 79.644531 -118.148438 86.03125 -115.140625 C 92.425781 -112.140625 97.429688 -108.675781 101.046875 -104.75 C 104.671875 -100.820312 107.753906 -95.125 110.296875 -87.65625 C 112.835938 -80.1875 114.109375 -71.367188 114.109375 -61.203125 C 114.109375 -39.953125 108.945312 -23.859375 98.625 -12.921875 C 88.3125 -1.992188 75.109375 3.46875 59.015625 3.46875 C 42.921875 3.46875 30.332031 -1.726562 21.25 -12.125 C 12.164062 -22.519531 7.625 -37.878906 7.625 -58.203125 Z M 7.625 -58.203125 "/></g></g></g><g fill="#063550" fill-opacity="1"><g transform="translate(655.212384, 247.28338)"><g><path d="M 130.046875 -18.25 L 130.046875 0 L 92.625 0 L 92.625 -15.015625 C 84.15625 -3.003906 71.679688 3 55.203125 3 C 31.335938 3 19.40625 -10.316406 19.40625 -36.953125 L 19.40625 -90.3125 C 19.40625 -94.46875 17.476562 -96.625 13.625 -96.78125 L 6.234375 -97.25 L 6.234375 -116.1875 L 46.890625 -116.1875 L 46.890625 -42.96875 C 46.890625 -34.800781 48.039062 -28.640625 50.34375 -24.484375 C 52.65625 -20.328125 57.429688 -18.25 64.671875 -18.25 C 71.910156 -18.25 77.722656 -20.476562 82.109375 -24.9375 C 86.503906 -29.40625 88.703125 -34.796875 88.703125 -41.109375 L 88.703125 -89.859375 C 88.703125 -92.316406 88.273438 -94.046875 87.421875 -95.046875 C 86.578125 -96.046875 85.078125 -96.625 82.921875 -96.78125 L 75.53125 -97.25 L 75.53125 -116.1875 L 116.1875 -116.1875 L 116.1875 -25.640625 C 116.1875 -23.171875 116.570312 -21.515625 117.34375 -20.671875 C 118.113281 -19.828125 119.648438 -19.25 121.953125 -18.9375 Z M 130.046875 -18.25 "/></g></g></g><g fill="#063550" fill-opacity="1"><g transform="translate(791.717761, 247.28338)"><g><path d="M 68.140625 -98.625 C 64.441406 -100.007812 59.972656 -100.703125 54.734375 -100.703125 C 49.503906 -100.703125 45.3125 -99.507812 42.15625 -97.125 C 39 -94.738281 37.421875 -91.8125 37.421875 -88.34375 C 37.421875 -84.882812 38 -82.191406 39.15625 -80.265625 C 40.3125 -78.335938 42.117188 -76.679688 44.578125 -75.296875 C 48.429688 -73.296875 53.050781 -71.5625 58.4375 -70.09375 C 63.832031 -68.632812 67.835938 -67.484375 70.453125 -66.640625 C 73.066406 -65.796875 76.335938 -64.367188 80.265625 -62.359375 C 84.191406 -60.359375 87.15625 -58.203125 89.15625 -55.890625 C 94.550781 -50.203125 97.25 -42.890625 97.25 -33.953125 C 97.25 -22.398438 93.050781 -13.351562 84.65625 -6.8125 C 76.257812 -0.269531 65.597656 3 52.671875 3 C 33.878906 3 19.707031 0.613281 10.15625 -4.15625 L 10.15625 -36.265625 L 30.953125 -37.875 L 30.953125 -26.796875 C 30.953125 -20.015625 37.414062 -16.625 50.34375 -16.625 C 63.28125 -16.625 69.75 -21.320312 69.75 -30.71875 C 69.75 -34.101562 68.632812 -36.875 66.40625 -39.03125 C 64.175781 -41.1875 61.984375 -42.648438 59.828125 -43.421875 C 57.671875 -44.191406 55.085938 -44.960938 52.078125 -45.734375 C 49.078125 -46.503906 46.148438 -47.273438 43.296875 -48.046875 C 40.453125 -48.816406 37.375 -49.851562 34.0625 -51.15625 C 30.757812 -52.46875 27.101562 -54.359375 23.09375 -56.828125 C 15.238281 -61.898438 11.3125 -70.40625 11.3125 -82.34375 C 11.3125 -94.28125 15.546875 -103.484375 24.015625 -109.953125 C 32.484375 -116.421875 43.144531 -119.65625 56 -119.65625 C 68.863281 -119.65625 81.609375 -116.570312 94.234375 -110.40625 L 94.234375 -82.6875 L 73.453125 -81.078125 L 73.453125 -90.78125 C 73.453125 -94.625 71.679688 -97.238281 68.140625 -98.625 Z M 68.140625 -98.625 "/></g></g></g><g fill="#063550" fill-opacity="1"><g transform="translate(895.886838, 247.28338)"><g/></g></g><g fill="#063550" fill-opacity="1"><g transform="translate(942.081526, 247.28338)"><g><path d="M 100.703125 -129.125 C 99.015625 -132.050781 92.703125 -133.515625 81.765625 -133.515625 C 67.441406 -133.515625 56.582031 -128.660156 49.1875 -118.953125 C 41.800781 -109.253906 38.109375 -95.242188 38.109375 -76.921875 C 38.109375 -38.878906 52.351562 -19.859375 80.84375 -19.859375 C 81.300781 -19.859375 83.335938 -19.859375 86.953125 -19.859375 C 90.578125 -19.859375 94.003906 -20.359375 97.234375 -21.359375 C 100.472656 -22.367188 102.398438 -23.410156 103.015625 -24.484375 C 103.628906 -25.554688 103.9375 -27.25 103.9375 -29.5625 L 103.9375 -48.046875 L 127.5 -46.421875 L 127.5 -6.46875 C 115.488281 -0.15625 100.242188 3 81.765625 3 C 58.203125 3 40.222656 -3.617188 27.828125 -16.859375 C 15.429688 -30.097656 9.234375 -49.8125 9.234375 -76 C 9.234375 -90.46875 11.3125 -103.09375 15.46875 -113.875 C 19.632812 -124.65625 25.257812 -133.046875 32.34375 -139.046875 C 46.195312 -150.597656 62.671875 -156.375 81.765625 -156.375 C 97.160156 -156.375 111.632812 -153.21875 125.1875 -146.90625 L 125.1875 -107.640625 L 101.640625 -106.015625 L 101.640625 -124.03125 C 101.640625 -126.34375 101.328125 -128.039062 100.703125 -129.125 Z M 100.703125 -129.125 "/></g></g></g><g fill="#063550" fill-opacity="1"><g transform="translate(1081.127614, 247.28338)"><g><path d="M 111.328125 -111.5625 L 111.328125 -25.640625 C 111.328125 -23.171875 111.75 -21.472656 112.59375 -20.546875 C 113.445312 -19.628906 114.953125 -19.09375 117.109375 -18.9375 L 124.5 -18.484375 L 124.5 0 L 87.78125 0 L 87.78125 -13.390625 L 87.078125 -13.625 C 79.378906 -2.539062 68.832031 3 55.4375 3 C 39.726562 3 28.097656 -2.003906 20.546875 -12.015625 C 13.003906 -22.023438 9.234375 -35.726562 9.234375 -53.125 C 9.234375 -74.070312 14.316406 -90.394531 24.484375 -102.09375 C 34.648438 -113.800781 49.894531 -119.65625 70.21875 -119.65625 C 83.3125 -119.65625 97.015625 -116.957031 111.328125 -111.5625 Z M 84.546875 -36.71875 L 84.546875 -96.546875 C 80.234375 -98.546875 74.300781 -99.546875 66.75 -99.546875 C 56.4375 -99.546875 48.96875 -95.390625 44.34375 -87.078125 C 39.726562 -78.765625 37.421875 -67.753906 37.421875 -54.046875 C 37.421875 -29.097656 45.425781 -16.625 61.4375 -16.625 C 68.21875 -16.625 73.765625 -18.664062 78.078125 -22.75 C 82.390625 -26.832031 84.546875 -31.488281 84.546875 -36.71875 Z M 84.546875 -36.71875 "/></g></g></g><g fill="#063550" fill-opacity="1"><g transform="translate(1212.089544, 247.28338)"><g><path d="M 21.9375 -25.875 L 21.9375 -89.859375 C 21.9375 -92.316406 21.515625 -94.046875 20.671875 -95.046875 C 19.828125 -96.046875 18.328125 -96.625 16.171875 -96.78125 L 6.46875 -97.46875 L 6.46875 -116.1875 L 45.5 -116.1875 L 45.5 -98.859375 C 48.269531 -104.867188 52.582031 -109.835938 58.4375 -113.765625 C 64.289062 -117.691406 71.023438 -119.65625 78.640625 -119.65625 C 86.265625 -119.65625 93.546875 -117.957031 100.484375 -114.5625 L 100.484375 -80.15625 L 79 -78.53125 L 79 -89.15625 C 79 -92.238281 78.226562 -94.164062 76.6875 -94.9375 C 74.988281 -95.707031 72.910156 -96.09375 70.453125 -96.09375 C 64.285156 -96.09375 59.238281 -93.894531 55.3125 -89.5 C 51.394531 -85.113281 49.4375 -79.535156 49.4375 -72.765625 L 49.4375 -19.171875 L 69.53125 -18.25 L 69.53125 0 L 7.625 0 L 7.625 -17.5625 L 15.25 -18.25 C 17.550781 -18.550781 19.238281 -19.203125 20.3125 -20.203125 C 21.394531 -21.210938 21.9375 -23.101562 21.9375 -25.875 Z M 21.9375 -25.875 "/></g></g></g><g fill="#063550" fill-opacity="1"><g transform="translate(1318.799397, 247.28338)"><g><path d="M 65.59375 -119.65625 C 77.144531 -119.65625 86.304688 -116.84375 93.078125 -111.21875 C 99.859375 -105.59375 103.25 -97.703125 103.25 -87.546875 C 103.25 -80.765625 101.785156 -74.796875 98.859375 -69.640625 C 95.929688 -64.484375 92.3125 -60.441406 88 -57.515625 C 83.6875 -54.585938 78.453125 -52.203125 72.296875 -50.359375 C 61.984375 -47.273438 50.359375 -45.734375 37.421875 -45.734375 C 37.878906 -37.578125 40.414062 -30.992188 45.03125 -25.984375 C 49.65625 -20.984375 56.738281 -18.484375 66.28125 -18.484375 C 75.832031 -18.484375 85.382812 -21.867188 94.9375 -28.640625 L 103.71875 -9.9375 C 100.632812 -7.164062 95.4375 -4.316406 88.125 -1.390625 C 80.8125 1.535156 72.457031 3 63.0625 3 C 44.269531 3 30.484375 -2.195312 21.703125 -12.59375 C 12.929688 -22.988281 8.546875 -37.269531 8.546875 -55.4375 C 8.546875 -73.601562 13.550781 -88.847656 23.5625 -101.171875 C 33.570312 -113.492188 47.582031 -119.65625 65.59375 -119.65625 Z M 55.078125 -66.875 C 60.703125 -67.875 65.898438 -70.101562 70.671875 -73.5625 C 75.453125 -77.03125 77.84375 -81.148438 77.84375 -85.921875 C 77.84375 -95.316406 73.222656 -100.015625 63.984375 -100.015625 C 55.359375 -100.015625 48.734375 -96.585938 44.109375 -89.734375 C 39.492188 -82.878906 36.957031 -74.679688 36.5 -65.140625 C 43.269531 -65.296875 49.460938 -65.875 55.078125 -66.875 Z M 55.078125 -66.875 "/></g></g></g></g></g><g transform="matrix(1, 0, 0, 1, 91, 1148)"><g clip-path="url(#c50ccea4db)"><g fill="#ff66c4" fill-opacity="1"><g transform="translate(0.835659, 135.04462)"><g><path d="M 8.640625 -14.234375 L 29.09375 -73.421875 L 21.09375 -74.1875 L 21.09375 -84.46875 L 50.171875 -84.46875 L 76.09375 -11.171875 L 76.21875 -11.171875 L 83.453125 -10.796875 L 83.453125 0 L 50.6875 0 L 50.6875 -10.296875 L 55.515625 -10.671875 C 56.953125 -10.835938 57.925781 -11.175781 58.4375 -11.6875 C 58.945312 -12.195312 58.988281 -13.128906 58.5625 -14.484375 L 55.890625 -22.359375 L 26.171875 -22.359375 L 22.359375 -11.171875 L 29.984375 -10.796875 L 29.984375 0 L 0.640625 0 L 0.640625 -10.296875 L 4.828125 -10.671875 C 6.609375 -10.835938 7.878906 -12.023438 8.640625 -14.234375 Z M 41.03125 -70.25 L 29.21875 -34.046875 L 52.84375 -34.046875 L 41.40625 -70.25 Z M 41.03125 -70.25 "/></g></g></g><g fill="#ff66c4" fill-opacity="1"><g transform="translate(84.926485, 135.04462)"><g><path d="M 37.46875 -54.25 C 35.4375 -55.007812 32.976562 -55.390625 30.09375 -55.390625 C 27.21875 -55.390625 24.910156 -54.734375 23.171875 -53.421875 C 21.441406 -52.109375 20.578125 -50.5 20.578125 -48.59375 C 20.578125 -46.6875 20.894531 -45.203125 21.53125 -44.140625 C 22.164062 -43.085938 23.160156 -42.175781 24.515625 -41.40625 C 26.628906 -40.3125 29.164062 -39.359375 32.125 -38.546875 C 35.09375 -37.742188 37.296875 -37.109375 38.734375 -36.640625 C 40.179688 -36.179688 41.984375 -35.398438 44.140625 -34.296875 C 46.296875 -33.191406 47.925781 -32.003906 49.03125 -30.734375 C 52 -27.609375 53.484375 -23.585938 53.484375 -18.671875 C 53.484375 -12.316406 51.175781 -7.335938 46.5625 -3.734375 C 41.945312 -0.140625 36.082031 1.65625 28.96875 1.65625 C 18.632812 1.65625 10.84375 0.34375 5.59375 -2.28125 L 5.59375 -19.9375 L 17.015625 -20.828125 L 17.015625 -14.734375 C 17.015625 -11.003906 20.570312 -9.140625 27.6875 -9.140625 C 34.800781 -9.140625 38.359375 -11.722656 38.359375 -16.890625 C 38.359375 -18.753906 37.742188 -20.28125 36.515625 -21.46875 C 35.285156 -22.65625 34.078125 -23.457031 32.890625 -23.875 C 31.710938 -24.300781 30.296875 -24.722656 28.640625 -25.140625 C 26.992188 -25.566406 25.382812 -25.992188 23.8125 -26.421875 C 22.25 -26.847656 20.554688 -27.421875 18.734375 -28.140625 C 16.910156 -28.859375 14.898438 -29.894531 12.703125 -31.25 C 8.378906 -34.039062 6.21875 -38.71875 6.21875 -45.28125 C 6.21875 -51.84375 8.546875 -56.898438 13.203125 -60.453125 C 17.867188 -64.015625 23.734375 -65.796875 30.796875 -65.796875 C 37.867188 -65.796875 44.878906 -64.101562 51.828125 -60.71875 L 51.828125 -45.484375 L 40.390625 -44.59375 L 40.390625 -49.921875 C 40.390625 -52.035156 39.414062 -53.476562 37.46875 -54.25 Z M 37.46875 -54.25 "/></g></g></g><g fill="#ff66c4" fill-opacity="1"><g transform="translate(142.214941, 135.04462)"><g><path d="M 37.46875 -54.25 C 35.4375 -55.007812 32.976562 -55.390625 30.09375 -55.390625 C 27.21875 -55.390625 24.910156 -54.734375 23.171875 -53.421875 C 21.441406 -52.109375 20.578125 -50.5 20.578125 -48.59375 C 20.578125 -46.6875 20.894531 -45.203125 21.53125 -44.140625 C 22.164062 -43.085938 23.160156 -42.175781 24.515625 -41.40625 C 26.628906 -40.3125 29.164062 -39.359375 32.125 -38.546875 C 35.09375 -37.742188 37.296875 -37.109375 38.734375 -36.640625 C 40.179688 -36.179688 41.984375 -35.398438 44.140625 -34.296875 C 46.296875 -33.191406 47.925781 -32.003906 49.03125 -30.734375 C 52 -27.609375 53.484375 -23.585938 53.484375 -18.671875 C 53.484375 -12.316406 51.175781 -7.335938 46.5625 -3.734375 C 41.945312 -0.140625 36.082031 1.65625 28.96875 1.65625 C 18.632812 1.65625 10.84375 0.34375 5.59375 -2.28125 L 5.59375 -19.9375 L 17.015625 -20.828125 L 17.015625 -14.734375 C 17.015625 -11.003906 20.570312 -9.140625 27.6875 -9.140625 C 34.800781 -9.140625 38.359375 -11.722656 38.359375 -16.890625 C 38.359375 -18.753906 37.742188 -20.28125 36.515625 -21.46875 C 35.285156 -22.65625 34.078125 -23.457031 32.890625 -23.875 C 31.710938 -24.300781 30.296875 -24.722656 28.640625 -25.140625 C 26.992188 -25.566406 25.382812 -25.992188 23.8125 -26.421875 C 22.25 -26.847656 20.554688 -27.421875 18.734375 -28.140625 C 16.910156 -28.859375 14.898438 -29.894531 12.703125 -31.25 C 8.378906 -34.039062 6.21875 -38.71875 6.21875 -45.28125 C 6.21875 -51.84375 8.546875 -56.898438 13.203125 -60.453125 C 17.867188 -64.015625 23.734375 -65.796875 30.796875 -65.796875 C 37.867188 -65.796875 44.878906 -64.101562 51.828125 -60.71875 L 51.828125 -45.484375 L 40.390625 -44.59375 L 40.390625 -49.921875 C 40.390625 -52.035156 39.414062 -53.476562 37.46875 -54.25 Z M 37.46875 -54.25 "/></g></g></g><g fill="#ff66c4" fill-opacity="1"><g transform="translate(199.503396, 135.04462)"><g><path d="M 27.1875 -63.890625 L 27.1875 -10.546875 L 34.421875 -10.15625 L 34.421875 0 L 4.1875 0 L 4.1875 -9.65625 L 8.390625 -10.03125 C 10.835938 -10.289062 12.0625 -11.644531 12.0625 -14.09375 L 12.0625 -49.421875 C 12.0625 -50.859375 11.828125 -51.828125 11.359375 -52.328125 C 10.898438 -52.835938 10.078125 -53.09375 8.890625 -53.09375 L 4.453125 -53.359375 L 4.453125 -63.890625 Z M 11.171875 -74.875 C 9.398438 -76.613281 8.515625 -78.835938 8.515625 -81.546875 C 8.515625 -84.265625 9.398438 -86.53125 11.171875 -88.34375 C 12.953125 -90.164062 15.28125 -91.078125 18.15625 -91.078125 C 21.039062 -91.078125 23.394531 -90.164062 25.21875 -88.34375 C 27.039062 -86.53125 27.953125 -84.265625 27.953125 -81.546875 C 27.953125 -78.835938 27.039062 -76.613281 25.21875 -74.875 C 23.394531 -73.144531 21.039062 -72.28125 18.15625 -72.28125 C 15.28125 -72.28125 12.953125 -73.144531 11.171875 -74.875 Z M 11.171875 -74.875 "/></g></g></g><g fill="#ff66c4" fill-opacity="1"><g transform="translate(237.102929, 135.04462)"><g><path d="M 37.46875 -54.25 C 35.4375 -55.007812 32.976562 -55.390625 30.09375 -55.390625 C 27.21875 -55.390625 24.910156 -54.734375 23.171875 -53.421875 C 21.441406 -52.109375 20.578125 -50.5 20.578125 -48.59375 C 20.578125 -46.6875 20.894531 -45.203125 21.53125 -44.140625 C 22.164062 -43.085938 23.160156 -42.175781 24.515625 -41.40625 C 26.628906 -40.3125 29.164062 -39.359375 32.125 -38.546875 C 35.09375 -37.742188 37.296875 -37.109375 38.734375 -36.640625 C 40.179688 -36.179688 41.984375 -35.398438 44.140625 -34.296875 C 46.296875 -33.191406 47.925781 -32.003906 49.03125 -30.734375 C 52 -27.609375 53.484375 -23.585938 53.484375 -18.671875 C 53.484375 -12.316406 51.175781 -7.335938 46.5625 -3.734375 C 41.945312 -0.140625 36.082031 1.65625 28.96875 1.65625 C 18.632812 1.65625 10.84375 0.34375 5.59375 -2.28125 L 5.59375 -19.9375 L 17.015625 -20.828125 L 17.015625 -14.734375 C 17.015625 -11.003906 20.570312 -9.140625 27.6875 -9.140625 C 34.800781 -9.140625 38.359375 -11.722656 38.359375 -16.890625 C 38.359375 -18.753906 37.742188 -20.28125 36.515625 -21.46875 C 35.285156 -22.65625 34.078125 -23.457031 32.890625 -23.875 C 31.710938 -24.300781 30.296875 -24.722656 28.640625 -25.140625 C 26.992188 -25.566406 25.382812 -25.992188 23.8125 -26.421875 C 22.25 -26.847656 20.554688 -27.421875 18.734375 -28.140625 C 16.910156 -28.859375 14.898438 -29.894531 12.703125 -31.25 C 8.378906 -34.039062 6.21875 -38.71875 6.21875 -45.28125 C 6.21875 -51.84375 8.546875 -56.898438 13.203125 -60.453125 C 17.867188 -64.015625 23.734375 -65.796875 30.796875 -65.796875 C 37.867188 -65.796875 44.878906 -64.101562 51.828125 -60.71875 L 51.828125 -45.484375 L 40.390625 -44.59375 L 40.390625 -49.921875 C 40.390625 -52.035156 39.414062 -53.476562 37.46875 -54.25 Z M 37.46875 -54.25 "/></g></g></g><g fill="#ff66c4" fill-opacity="1"><g transform="translate(293.121028, 135.04462)"><g><path d="M 18.296875 -77.359375 L 26.546875 -77.359375 L 26.546875 -63.890625 L 43.4375 -63.890625 L 42.171875 -53.21875 L 26.546875 -53.21875 L 26.546875 -19.8125 C 26.546875 -16.09375 27.222656 -13.488281 28.578125 -12 C 29.929688 -10.519531 32.023438 -9.78125 34.859375 -9.78125 C 37.703125 -9.78125 40.5625 -10.671875 43.4375 -12.453125 L 47.25 -2.671875 C 43.019531 0.296875 37.644531 1.78125 31.125 1.78125 C 27.3125 1.78125 24.09375 1.289062 21.46875 0.3125 C 18.84375 -0.65625 16.894531 -1.734375 15.625 -2.921875 C 14.351562 -4.109375 13.378906 -5.84375 12.703125 -8.125 C 12.023438 -10.414062 11.644531 -12.21875 11.5625 -13.53125 C 11.476562 -14.84375 11.4375 -16.769531 11.4375 -19.3125 L 11.4375 -53.21875 L 2.40625 -53.21875 L 3.6875 -62.5 C 7.664062 -62.832031 10.671875 -64.25 12.703125 -66.75 C 14.734375 -69.25 16.597656 -72.785156 18.296875 -77.359375 Z M 18.296875 -77.359375 "/></g></g></g><g fill="#ff66c4" fill-opacity="1"><g transform="translate(341.009634, 135.04462)"><g><path d="M 36.078125 -65.796875 C 42.429688 -65.796875 47.46875 -64.25 51.1875 -61.15625 C 54.914062 -58.070312 56.78125 -53.734375 56.78125 -48.140625 C 56.78125 -44.421875 55.972656 -41.140625 54.359375 -38.296875 C 52.753906 -35.460938 50.765625 -33.238281 48.390625 -31.625 C 46.023438 -30.019531 43.148438 -28.707031 39.765625 -27.6875 C 34.085938 -26 27.691406 -25.15625 20.578125 -25.15625 C 20.828125 -20.664062 22.222656 -17.039062 24.765625 -14.28125 C 27.304688 -11.53125 31.203125 -10.15625 36.453125 -10.15625 C 41.703125 -10.15625 46.953125 -12.019531 52.203125 -15.75 L 57.03125 -5.46875 C 55.34375 -3.9375 52.484375 -2.363281 48.453125 -0.75 C 44.429688 0.851562 39.835938 1.65625 34.671875 1.65625 C 24.347656 1.65625 16.769531 -1.203125 11.9375 -6.921875 C 7.113281 -12.640625 4.703125 -20.492188 4.703125 -30.484375 C 4.703125 -40.484375 7.453125 -48.867188 12.953125 -55.640625 C 18.460938 -62.410156 26.171875 -65.796875 36.078125 -65.796875 Z M 30.296875 -36.765625 C 33.390625 -37.316406 36.25 -38.546875 38.875 -40.453125 C 41.5 -42.359375 42.8125 -44.625 42.8125 -47.25 C 42.8125 -52.414062 40.269531 -55 35.1875 -55 C 30.445312 -55 26.804688 -53.113281 24.265625 -49.34375 C 21.722656 -45.582031 20.328125 -41.078125 20.078125 -35.828125 C 23.796875 -35.910156 27.203125 -36.222656 30.296875 -36.765625 Z M 30.296875 -36.765625 "/></g></g></g><g fill="#ff66c4" fill-opacity="1"><g transform="translate(402.489958, 135.04462)"><g><path d="M 36.078125 -65.796875 C 39.722656 -65.796875 43.195312 -65.289062 46.5 -64.28125 L 46.5 -77.109375 C 46.5 -78.972656 45.394531 -79.988281 43.1875 -80.15625 L 37.734375 -80.53125 L 37.734375 -90.578125 L 61.359375 -90.578125 L 61.359375 -13.34375 C 61.441406 -11.394531 62.5 -10.421875 64.53125 -10.421875 L 68.984375 -10.15625 L 68.984375 0 L 48.40625 0 L 48.40625 -7.5 L 48.015625 -7.625 C 44.203125 -1.4375 38.441406 1.65625 30.734375 1.65625 C 21.085938 1.65625 14.316406 -1.5625 10.421875 -8 C 6.859375 -13.84375 5.078125 -21 5.078125 -29.46875 C 5.078125 -40.476562 7.804688 -49.285156 13.265625 -55.890625 C 18.734375 -62.492188 26.335938 -65.796875 36.078125 -65.796875 Z M 46.5 -19.8125 L 46.5 -52.71875 C 43.445312 -54.070312 40.226562 -54.75 36.84375 -54.75 C 31.25 -54.75 27.160156 -52.503906 24.578125 -48.015625 C 21.992188 -43.523438 20.703125 -37.8125 20.703125 -30.875 C 20.703125 -16.644531 25.273438 -9.53125 34.421875 -9.53125 C 37.898438 -9.53125 40.78125 -10.523438 43.0625 -12.515625 C 45.351562 -14.503906 46.5 -16.9375 46.5 -19.8125 Z M 46.5 -19.8125 "/></g></g></g><g fill="#ff66c4" fill-opacity="1"><g transform="translate(474.640422, 135.04462)"><g/></g></g><g fill="#ff66c4" fill-opacity="1"><g transform="translate(500.045481, 135.04462)"><g><path d="M 64.40625 0 L 4.0625 0 L 4.0625 -10.296875 L 8.25 -10.671875 C 10.707031 -10.921875 11.9375 -12.109375 11.9375 -14.234375 L 11.9375 -73.296875 L 4.703125 -73.671875 L 4.703125 -84.46875 L 35.3125 -84.46875 L 35.3125 -74.1875 L 31.125 -73.8125 C 28.664062 -73.550781 27.4375 -72.191406 27.4375 -69.734375 L 27.4375 -13.078125 L 48.53125 -13.078125 C 49.707031 -13.078125 50.488281 -13.394531 50.875 -14.03125 C 51.257812 -14.664062 51.453125 -15.707031 51.453125 -17.15625 L 51.453125 -26.046875 L 64.40625 -25.15625 Z M 64.40625 0 "/></g></g></g><g fill="#ff66c4" fill-opacity="1"><g transform="translate(568.25812, 135.04462)"><g><path d="M 27.1875 -63.890625 L 27.1875 -10.546875 L 34.421875 -10.15625 L 34.421875 0 L 4.1875 0 L 4.1875 -9.65625 L 8.390625 -10.03125 C 10.835938 -10.289062 12.0625 -11.644531 12.0625 -14.09375 L 12.0625 -49.421875 C 12.0625 -50.859375 11.828125 -51.828125 11.359375 -52.328125 C 10.898438 -52.835938 10.078125 -53.09375 8.890625 -53.09375 L 4.453125 -53.359375 L 4.453125 -63.890625 Z M 11.171875 -74.875 C 9.398438 -76.613281 8.515625 -78.835938 8.515625 -81.546875 C 8.515625 -84.265625 9.398438 -86.53125 11.171875 -88.34375 C 12.953125 -90.164062 15.28125 -91.078125 18.15625 -91.078125 C 21.039062 -91.078125 23.394531 -90.164062 25.21875 -88.34375 C 27.039062 -86.53125 27.953125 -84.265625 27.953125 -81.546875 C 27.953125 -78.835938 27.039062 -76.613281 25.21875 -74.875 C 23.394531 -73.144531 21.039062 -72.28125 18.15625 -72.28125 C 15.28125 -72.28125 12.953125 -73.144531 11.171875 -74.875 Z M 11.171875 -74.875 "/></g></g></g><g fill="#ff66c4" fill-opacity="1"><g transform="translate(603.317008, 135.04462)"><g><path d="M 42.8125 -63.890625 L 69.609375 -63.890625 L 69.609375 -53.984375 L 65.671875 -53.734375 C 63.984375 -53.566406 62.84375 -52.550781 62.25 -50.6875 L 45.859375 0 L 26.421875 0 L 8.640625 -50.5625 C 8.210938 -51.75 7.765625 -52.550781 7.296875 -52.96875 C 6.835938 -53.394531 6.054688 -53.648438 4.953125 -53.734375 L 1.265625 -53.984375 L 1.265625 -63.890625 L 31.125 -63.890625 L 31.125 -53.734375 L 23.375 -53.359375 L 36.453125 -11.5625 L 36.71875 -11.5625 L 49.421875 -53.359375 L 42.8125 -53.734375 Z M 42.8125 -63.890625 "/></g></g></g><g fill="#ff66c4" fill-opacity="1"><g transform="translate(674.197183, 135.04462)"><g><path d="M 27.1875 -63.890625 L 27.1875 -10.546875 L 34.421875 -10.15625 L 34.421875 0 L 4.1875 0 L 4.1875 -9.65625 L 8.390625 -10.03125 C 10.835938 -10.289062 12.0625 -11.644531 12.0625 -14.09375 L 12.0625 -49.421875 C 12.0625 -50.859375 11.828125 -51.828125 11.359375 -52.328125 C 10.898438 -52.835938 10.078125 -53.09375 8.890625 -53.09375 L 4.453125 -53.359375 L 4.453125 -63.890625 Z M 11.171875 -74.875 C 9.398438 -76.613281 8.515625 -78.835938 8.515625 -81.546875 C 8.515625 -84.265625 9.398438 -86.53125 11.171875 -88.34375 C 12.953125 -90.164062 15.28125 -91.078125 18.15625 -91.078125 C 21.039062 -91.078125 23.394531 -90.164062 25.21875 -88.34375 C 27.039062 -86.53125 27.953125 -84.265625 27.953125 -81.546875 C 27.953125 -78.835938 27.039062 -76.613281 25.21875 -74.875 C 23.394531 -73.144531 21.039062 -72.28125 18.15625 -72.28125 C 15.28125 -72.28125 12.953125 -73.144531 11.171875 -74.875 Z M 11.171875 -74.875 "/></g></g></g><g fill="#ff66c4" fill-opacity="1"><g transform="translate(711.796715, 135.04462)"><g><path d="M 3.4375 -53.734375 L 3.4375 -63.890625 L 24.890625 -63.890625 L 24.890625 -55.640625 C 27.097656 -58.773438 30.019531 -61.25 33.65625 -63.0625 C 37.300781 -64.882812 41.242188 -65.796875 45.484375 -65.796875 C 51.910156 -65.796875 56.878906 -63.953125 60.390625 -60.265625 C 63.910156 -56.585938 65.671875 -51.066406 65.671875 -43.703125 L 65.671875 -10.546875 L 72.921875 -10.15625 L 72.921875 0 L 42.6875 0 L 42.6875 -9.65625 L 46.875 -10.03125 C 48.144531 -10.207031 49.078125 -10.566406 49.671875 -11.109375 C 50.265625 -11.660156 50.5625 -12.703125 50.5625 -14.234375 L 50.5625 -40.390625 C 50.5625 -45.046875 49.835938 -48.492188 48.390625 -50.734375 C 46.953125 -52.984375 44.222656 -54.109375 40.203125 -54.109375 C 36.179688 -54.109375 32.984375 -52.835938 30.609375 -50.296875 C 28.242188 -47.765625 27.0625 -44.757812 27.0625 -41.28125 L 27.0625 -10.546875 L 34.296875 -10.15625 L 34.296875 0 L 4.0625 0 L 4.0625 -9.65625 L 8.25 -10.03125 C 9.519531 -10.207031 10.453125 -10.566406 11.046875 -11.109375 C 11.640625 -11.660156 11.9375 -12.703125 11.9375 -14.234375 L 11.9375 -49.421875 C 11.9375 -51.953125 10.878906 -53.265625 8.765625 -53.359375 Z M 3.4375 -53.734375 "/></g></g></g><g fill="#ff66c4" fill-opacity="1"><g transform="translate(788.01196, 135.04462)"><g><path d="M 60.71875 -0.125 C 59.957031 9.269531 57.25 16.171875 52.59375 20.578125 C 47.9375 24.984375 40.648438 27.1875 30.734375 27.1875 C 20.828125 27.1875 13.082031 25.789062 7.5 23 L 7.5 5.328125 L 19.5625 4.3125 L 19.5625 10.421875 C 19.5625 12.703125 20.617188 14.242188 22.734375 15.046875 C 24.859375 15.859375 27.78125 16.265625 31.5 16.265625 C 36.925781 16.265625 40.738281 14.632812 42.9375 11.375 C 45.132812 8.113281 46.234375 3.519531 46.234375 -2.40625 L 46.234375 -9.40625 C 42.171875 -4.65625 36.539062 -2.28125 29.34375 -2.28125 C 24.9375 -2.28125 21.0625 -3.128906 17.71875 -4.828125 C 14.375 -6.523438 11.769531 -8.8125 9.90625 -11.6875 C 6.269531 -17.445312 4.453125 -24.222656 4.453125 -32.015625 C 4.453125 -43.109375 7.457031 -51.507812 13.46875 -57.21875 C 19.476562 -62.9375 27.476562 -65.796875 37.46875 -65.796875 C 45.769531 -65.796875 53.601562 -64.234375 60.96875 -61.109375 L 60.96875 -13.96875 C 60.96875 -6.769531 60.882812 -2.15625 60.71875 -0.125 Z M 46.234375 -25.921875 L 46.234375 -53.21875 C 43.273438 -54.238281 39.890625 -54.75 36.078125 -54.75 C 30.910156 -54.75 26.953125 -52.84375 24.203125 -49.03125 C 21.453125 -45.21875 20.078125 -40.050781 20.078125 -33.53125 C 20.078125 -20.15625 24.476562 -13.46875 33.28125 -13.46875 C 36.925781 -13.46875 39.992188 -14.585938 42.484375 -16.828125 C 44.984375 -19.078125 46.234375 -22.109375 46.234375 -25.921875 Z M 46.234375 -25.921875 "/></g></g></g><g fill="#ff66c4" fill-opacity="1"><g transform="translate(857.113822, 135.04462)"><g/></g></g><g fill="#ff66c4" fill-opacity="1"><g transform="translate(882.518881, 135.04462)"><g><path d="M 4.3125 0 L 4.3125 -10.296875 L 8.515625 -10.671875 C 10.960938 -10.921875 12.1875 -12.109375 12.1875 -14.234375 L 12.1875 -73.296875 L 4.953125 -73.671875 L 4.953125 -84.46875 L 66.3125 -84.46875 L 66.3125 -63.390625 L 53.359375 -62.5 L 53.359375 -67.578125 C 53.359375 -69.015625 53.144531 -70.03125 52.71875 -70.625 C 52.289062 -71.21875 51.273438 -71.515625 49.671875 -71.515625 L 27.6875 -71.515625 L 27.6875 -49.03125 L 58.9375 -49.03125 L 58.9375 -36.078125 L 27.6875 -36.078125 L 27.6875 -11.171875 L 39 -10.796875 L 39 0 Z M 4.3125 0 "/></g></g></g><g fill="#ff66c4" fill-opacity="1"><g transform="translate(951.493654, 135.04462)"><g><path d="M 61.234375 -61.359375 L 61.234375 -14.09375 C 61.234375 -12.738281 61.460938 -11.804688 61.921875 -11.296875 C 62.390625 -10.796875 63.21875 -10.503906 64.40625 -10.421875 L 68.46875 -10.15625 L 68.46875 0 L 48.265625 0 L 48.265625 -7.375 L 47.890625 -7.5 C 43.660156 -1.394531 37.859375 1.65625 30.484375 1.65625 C 21.847656 1.65625 15.453125 -1.09375 11.296875 -6.59375 C 7.148438 -12.101562 5.078125 -19.644531 5.078125 -29.21875 C 5.078125 -40.738281 7.867188 -49.710938 13.453125 -56.140625 C 19.046875 -62.578125 27.4375 -65.796875 38.625 -65.796875 C 45.820312 -65.796875 53.359375 -64.316406 61.234375 -61.359375 Z M 46.5 -20.203125 L 46.5 -53.09375 C 44.125 -54.195312 40.863281 -54.75 36.71875 -54.75 C 31.039062 -54.75 26.929688 -52.460938 24.390625 -47.890625 C 21.847656 -43.316406 20.578125 -37.257812 20.578125 -29.71875 C 20.578125 -16 24.984375 -9.140625 33.796875 -9.140625 C 37.515625 -9.140625 40.5625 -10.257812 42.9375 -12.5 C 45.3125 -14.75 46.5 -17.316406 46.5 -20.203125 Z M 46.5 -20.203125 "/></g></g></g><g fill="#ff66c4" fill-opacity="1"><g transform="translate(1023.517096, 135.04462)"><g><path d="M 19.5625 -32.640625 C 19.5625 -25.441406 20.914062 -19.851562 23.625 -15.875 C 26.332031 -11.894531 30.25 -9.90625 35.375 -9.90625 C 40.5 -9.90625 45.5625 -11.726562 50.5625 -15.375 L 56.015625 -5.59375 C 50.003906 -0.675781 42.46875 1.78125 33.40625 1.78125 C 24.34375 1.78125 17.207031 -1.078125 12 -6.796875 C 6.789062 -12.515625 4.1875 -20.960938 4.1875 -32.140625 C 4.1875 -43.316406 7.171875 -51.71875 13.140625 -57.34375 C 19.117188 -62.976562 25.851562 -65.796875 33.34375 -65.796875 C 40.84375 -65.796875 47.8125 -64.0625 54.25 -60.59375 L 54.25 -44.078125 L 42.5625 -43.1875 L 42.5625 -49.28125 C 42.5625 -51.570312 41.734375 -52.992188 40.078125 -53.546875 C 38.421875 -54.097656 36.707031 -54.375 34.9375 -54.375 C 24.6875 -54.375 19.5625 -47.128906 19.5625 -32.640625 Z M 19.5625 -32.640625 "/></g></g></g><g fill="#ff66c4" fill-opacity="1"><g transform="translate(1083.346064, 135.04462)"><g><path d="M 27.1875 -63.890625 L 27.1875 -10.546875 L 34.421875 -10.15625 L 34.421875 0 L 4.1875 0 L 4.1875 -9.65625 L 8.390625 -10.03125 C 10.835938 -10.289062 12.0625 -11.644531 12.0625 -14.09375 L 12.0625 -49.421875 C 12.0625 -50.859375 11.828125 -51.828125 11.359375 -52.328125 C 10.898438 -52.835938 10.078125 -53.09375 8.890625 -53.09375 L 4.453125 -53.359375 L 4.453125 -63.890625 Z M 11.171875 -74.875 C 9.398438 -76.613281 8.515625 -78.835938 8.515625 -81.546875 C 8.515625 -84.265625 9.398438 -86.53125 11.171875 -88.34375 C 12.953125 -90.164062 15.28125 -91.078125 18.15625 -91.078125 C 21.039062 -91.078125 23.394531 -90.164062 25.21875 -88.34375 C 27.039062 -86.53125 27.953125 -84.265625 27.953125 -81.546875 C 27.953125 -78.835938 27.039062 -76.613281 25.21875 -74.875 C 23.394531 -73.144531 21.039062 -72.28125 18.15625 -72.28125 C 15.28125 -72.28125 12.953125 -73.144531 11.171875 -74.875 Z M 11.171875 -74.875 "/></g></g></g><g fill="#ff66c4" fill-opacity="1"><g transform="translate(1120.945596, 135.04462)"><g><path d="M 26.9375 -90.578125 L 26.9375 -10.546875 L 34.171875 -10.15625 L 34.171875 0 L 3.9375 0 L 3.9375 -9.65625 L 8.125 -10.03125 C 10.582031 -10.289062 11.8125 -11.644531 11.8125 -14.09375 L 11.8125 -76.734375 C 11.8125 -78.585938 10.753906 -79.601562 8.640625 -79.78125 L 4.1875 -80.03125 L 4.1875 -90.578125 Z M 26.9375 -90.578125 "/></g></g></g><g fill="#ff66c4" fill-opacity="1"><g transform="translate(1158.799174, 135.04462)"><g><path d="M 27.1875 -63.890625 L 27.1875 -10.546875 L 34.421875 -10.15625 L 34.421875 0 L 4.1875 0 L 4.1875 -9.65625 L 8.390625 -10.03125 C 10.835938 -10.289062 12.0625 -11.644531 12.0625 -14.09375 L 12.0625 -49.421875 C 12.0625 -50.859375 11.828125 -51.828125 11.359375 -52.328125 C 10.898438 -52.835938 10.078125 -53.09375 8.890625 -53.09375 L 4.453125 -53.359375 L 4.453125 -63.890625 Z M 11.171875 -74.875 C 9.398438 -76.613281 8.515625 -78.835938 8.515625 -81.546875 C 8.515625 -84.265625 9.398438 -86.53125 11.171875 -88.34375 C 12.953125 -90.164062 15.28125 -91.078125 18.15625 -91.078125 C 21.039062 -91.078125 23.394531 -90.164062 25.21875 -88.34375 C 27.039062 -86.53125 27.953125 -84.265625 27.953125 -81.546875 C 27.953125 -78.835938 27.039062 -76.613281 25.21875 -74.875 C 23.394531 -73.144531 21.039062 -72.28125 18.15625 -72.28125 C 15.28125 -72.28125 12.953125 -73.144531 11.171875 -74.875 Z M 11.171875 -74.875 "/></g></g></g><g fill="#ff66c4" fill-opacity="1"><g transform="translate(1196.398706, 135.04462)"><g><path d="M 18.296875 -77.359375 L 26.546875 -77.359375 L 26.546875 -63.890625 L 43.4375 -63.890625 L 42.171875 -53.21875 L 26.546875 -53.21875 L 26.546875 -19.8125 C 26.546875 -16.09375 27.222656 -13.488281 28.578125 -12 C 29.929688 -10.519531 32.023438 -9.78125 34.859375 -9.78125 C 37.703125 -9.78125 40.5625 -10.671875 43.4375 -12.453125 L 47.25 -2.671875 C 43.019531 0.296875 37.644531 1.78125 31.125 1.78125 C 27.3125 1.78125 24.09375 1.289062 21.46875 0.3125 C 18.84375 -0.65625 16.894531 -1.734375 15.625 -2.921875 C 14.351562 -4.109375 13.378906 -5.84375 12.703125 -8.125 C 12.023438 -10.414062 11.644531 -12.21875 11.5625 -13.53125 C 11.476562 -14.84375 11.4375 -16.769531 11.4375 -19.3125 L 11.4375 -53.21875 L 2.40625 -53.21875 L 3.6875 -62.5 C 7.664062 -62.832031 10.671875 -64.25 12.703125 -66.75 C 14.734375 -69.25 16.597656 -72.785156 18.296875 -77.359375 Z M 18.296875 -77.359375 "/></g></g></g><g fill="#ff66c4" fill-opacity="1"><g transform="translate(1244.287312, 135.04462)"><g><path d="M 50.9375 -2.40625 L 50.9375 -12.0625 C 46.28125 -5.457031 39.421875 -2.15625 30.359375 -2.15625 C 17.234375 -2.15625 10.671875 -9.484375 10.671875 -24.140625 L 10.671875 -49.671875 C 10.671875 -51.953125 9.613281 -53.132812 7.5 -53.21875 L 3.4375 -53.484375 L 3.4375 -63.890625 L 25.78125 -63.890625 L 25.78125 -27.4375 C 25.78125 -22.945312 26.414062 -19.554688 27.6875 -17.265625 C 28.957031 -14.984375 31.582031 -13.84375 35.5625 -13.84375 C 39.550781 -13.84375 42.75 -15.070312 45.15625 -17.53125 C 47.570312 -19.988281 48.78125 -22.953125 48.78125 -26.421875 L 48.78125 -49.421875 C 48.78125 -50.859375 48.546875 -51.847656 48.078125 -52.390625 C 47.609375 -52.941406 46.785156 -53.21875 45.609375 -53.21875 L 41.546875 -53.484375 L 41.546875 -63.890625 L 63.890625 -63.890625 L 63.890625 -2.40625 C 63.890625 7.832031 61.410156 15.320312 56.453125 20.0625 C 51.503906 24.8125 44.007812 27.1875 33.96875 27.1875 C 23.9375 27.1875 16.128906 25.789062 10.546875 23 L 10.546875 5.328125 L 22.609375 4.3125 L 22.609375 10.421875 C 22.609375 12.703125 23.664062 14.242188 25.78125 15.046875 C 27.90625 15.859375 30.828125 16.265625 34.546875 16.265625 C 45.472656 16.265625 50.9375 10.039062 50.9375 -2.40625 Z M 50.9375 -2.40625 "/></g></g></g></g></g></svg>