<svg xmlns="http://www.w3.org/2000/svg" xmlns:xlink="http://www.w3.org/1999/xlink" width="2000" zoomAndPan="magnify" viewBox="0 0 1500 1499.999933" height="2000" preserveAspectRatio="xMidYMid meet" version="1.0"><defs><g/><clipPath id="b83abeb594"><path d="M 513.695312 638 L 986.195312 638 L 986.195312 813 L 513.695312 813 Z M 513.695312 638 " clip-rule="nonzero"/></clipPath><clipPath id="ef3fb7b3ec"><rect x="0" width="765" y="0" height="167"/></clipPath><clipPath id="652a57982a"><path d="M 0.121094 27 L 45 27 L 45 73 L 0.121094 73 Z M 0.121094 27 " clip-rule="nonzero"/></clipPath><clipPath id="61fa745c19"><rect x="0" width="702" y="0" height="94"/></clipPath></defs><path fill="#063550" d="M 742.71875 592.878906 L 764.648438 592.878906 L 764.648438 614.804688 L 742.71875 614.804688 Z M 742.71875 592.878906 " fill-opacity="1" fill-rule="nonzero"/><path fill="#063550" d="M 707.890625 592.878906 L 729.820312 592.878906 L 729.820312 614.804688 L 707.890625 614.804688 Z M 707.890625 592.878906 " fill-opacity="1" fill-rule="nonzero"/><path fill="#063550" d="M 742.71875 558.753906 L 764.648438 558.753906 L 764.648438 580.683594 L 742.71875 580.683594 Z M 742.71875 558.753906 " fill-opacity="1" fill-rule="nonzero"/><path fill="#063550" d="M 707.890625 558.753906 L 729.820312 558.753906 L 729.820312 580.683594 L 707.890625 580.683594 Z M 707.890625 558.753906 " fill-opacity="1" fill-rule="nonzero"/><g clip-path="url(#b83abeb594)"><path fill="#063550" d="M 798.914062 708.289062 C 750.992188 726.90625 712.757812 734.941406 697.585938 731.964844 C 684.730469 729.414062 677.785156 721.710938 677.785156 721.710938 C 675.753906 719.441406 671.78125 715.046875 672.492188 710.746094 C 673.910156 701.953125 693.617188 698.410156 700.613281 696.945312 C 756.425781 685.460938 766.160156 651.859375 829.820312 641.175781 C 841.117188 639.285156 855.199219 636.925781 872.921875 638.71875 C 933.417969 644.816406 972.40625 692.550781 986.300781 711.59375 C 975.953125 715.894531 960.734375 722.324219 942.492188 730.453125 C 877.367188 759.46875 868.859375 767.929688 834.878906 782.015625 C 794.945312 798.601562 755.292969 815.050781 703.398438 812.449219 C 672.964844 810.9375 649.382812 803.375 615.683594 792.601562 C 586.667969 783.335938 607.128906 786.976562 541.058594 758.476562 C 531.511719 754.320312 513.695312 746.757812 513.742188 736.785156 C 513.742188 733.144531 516.152344 729.414062 519.082031 727.238281 C 523.621094 723.882812 530.144531 723.695312 536.097656 726.671875 C 536.191406 724.449219 536.664062 721.191406 538.980469 718.542969 C 542.195312 714.855469 547.25 714.429688 549.234375 714.289062 C 564.925781 713.109375 633.453125 733.949219 663.417969 739.855469 C 677.21875 742.550781 710.0625 748.648438 747.210938 736.878906 C 770.886719 729.414062 788.136719 717.265625 798.914062 708.289062 Z M 798.914062 708.289062 " fill-opacity="1" fill-rule="nonzero"/></g><path fill="#ff66c4" d="M 921.839844 610.789062 L 736.292969 457.757812 L 550.699219 610.789062 L 593.566406 610.789062 L 601.554688 604.21875 L 601.554688 709.46875 L 628.445312 715.847656 L 628.445312 582.242188 L 736.292969 493.773438 L 846.125 583.660156 L 846.125 620.335938 L 871.882812 620.335938 L 871.882812 604.738281 L 879.304688 610.789062 Z M 921.839844 610.789062 " fill-opacity="1" fill-rule="nonzero"/><g transform="matrix(1, 0, 0, 1, 368, 862)"><g clip-path="url(#ef3fb7b3ec)"><g fill="#063550" fill-opacity="1"><g transform="translate(1.285183, 132.225469)"><g><path d="M 3.9375 0 L 3.9375 -9.96875 L 8 -10.34375 C 10.375 -10.582031 11.5625 -11.726562 11.5625 -13.78125 L 11.5625 -71 L 4.546875 -71.375 L 4.546875 -81.828125 L 39.75 -81.828125 C 48.9375 -81.828125 56.09375 -79.671875 61.21875 -75.359375 C 66.34375 -71.054688 68.90625 -64.597656 68.90625 -55.984375 C 68.90625 -47.367188 65.992188 -40.660156 60.171875 -35.859375 C 54.347656 -31.066406 46.632812 -28.671875 37.03125 -28.671875 L 26.578125 -28.671875 L 26.578125 -10.828125 L 38.390625 -10.453125 L 38.390625 0 Z M 26.578125 -40.609375 L 35.4375 -40.609375 C 47.414062 -40.609375 53.40625 -45.488281 53.40625 -55.25 C 53.40625 -61.15625 51.863281 -65.070312 48.78125 -67 C 45.707031 -68.925781 40.804688 -69.890625 34.078125 -69.890625 L 26.578125 -69.890625 Z M 26.578125 -40.609375 "/></g></g></g><g fill="#063550" fill-opacity="1"><g transform="translate(73.880101, 132.225469)"><g><path d="M 11.6875 -13.78125 L 11.6875 -47.859375 C 11.6875 -49.171875 11.460938 -50.09375 11.015625 -50.625 C 10.566406 -51.164062 9.765625 -51.476562 8.609375 -51.5625 L 3.453125 -51.921875 L 3.453125 -61.890625 L 24.234375 -61.890625 L 24.234375 -52.671875 C 25.710938 -55.867188 28.007812 -58.507812 31.125 -60.59375 C 34.25 -62.6875 37.835938 -63.734375 41.890625 -63.734375 C 45.953125 -63.734375 49.832031 -62.832031 53.53125 -61.03125 L 53.53125 -42.703125 L 42.078125 -41.84375 L 42.078125 -47.5 C 42.078125 -49.132812 41.671875 -50.160156 40.859375 -50.578125 C 39.953125 -50.984375 38.84375 -51.1875 37.53125 -51.1875 C 34.25 -51.1875 31.5625 -50.015625 29.46875 -47.671875 C 27.375 -45.335938 26.328125 -42.367188 26.328125 -38.765625 L 26.328125 -10.21875 L 37.03125 -9.71875 L 37.03125 0 L 4.0625 0 L 4.0625 -9.359375 L 8.125 -9.71875 C 9.351562 -9.882812 10.253906 -10.234375 10.828125 -10.765625 C 11.398438 -11.296875 11.6875 -12.300781 11.6875 -13.78125 Z M 11.6875 -13.78125 "/></g></g></g><g fill="#063550" fill-opacity="1"><g transform="translate(130.725614, 132.225469)"><g><path d="M 34.953125 -63.734375 C 41.097656 -63.734375 45.972656 -62.234375 49.578125 -59.234375 C 53.191406 -56.242188 55 -52.046875 55 -46.640625 C 55 -43.023438 54.21875 -39.84375 52.65625 -37.09375 C 51.101562 -34.351562 49.175781 -32.203125 46.875 -30.640625 C 44.582031 -29.078125 41.796875 -27.804688 38.515625 -26.828125 C 33.015625 -25.179688 26.820312 -24.359375 19.9375 -24.359375 C 20.175781 -20.015625 21.523438 -16.507812 23.984375 -13.84375 C 26.453125 -11.175781 30.226562 -9.84375 35.3125 -9.84375 C 40.394531 -9.84375 45.484375 -11.648438 50.578125 -15.265625 L 55.25 -5.296875 C 53.601562 -3.816406 50.832031 -2.296875 46.9375 -0.734375 C 43.039062 0.816406 38.59375 1.59375 33.59375 1.59375 C 23.582031 1.59375 16.238281 -1.171875 11.5625 -6.703125 C 6.882812 -12.242188 4.546875 -19.851562 4.546875 -29.53125 C 4.546875 -39.207031 7.210938 -47.328125 12.546875 -53.890625 C 17.878906 -60.453125 25.347656 -63.734375 34.953125 -63.734375 Z M 29.34375 -35.625 C 32.34375 -36.15625 35.113281 -37.34375 37.65625 -39.1875 C 40.195312 -41.03125 41.46875 -43.226562 41.46875 -45.78125 C 41.46875 -50.78125 39.003906 -53.28125 34.078125 -53.28125 C 29.484375 -53.28125 25.957031 -51.453125 23.5 -47.796875 C 21.039062 -44.148438 19.6875 -39.785156 19.4375 -34.703125 C 23.050781 -34.785156 26.351562 -35.09375 29.34375 -35.625 Z M 29.34375 -35.625 "/></g></g></g><g fill="#063550" fill-opacity="1"><g transform="translate(190.278059, 132.225469)"><g><path d="M 18.953125 -31.625 C 18.953125 -24.65625 20.265625 -19.238281 22.890625 -15.375 C 25.515625 -11.519531 29.304688 -9.59375 34.265625 -9.59375 C 39.234375 -9.59375 44.132812 -11.359375 48.96875 -14.890625 L 54.265625 -5.421875 C 48.441406 -0.660156 41.140625 1.71875 32.359375 1.71875 C 23.585938 1.71875 16.675781 -1.046875 11.625 -6.578125 C 6.582031 -12.117188 4.0625 -20.300781 4.0625 -31.125 C 4.0625 -41.957031 6.953125 -50.097656 12.734375 -55.546875 C 18.515625 -61.003906 25.035156 -63.734375 32.296875 -63.734375 C 39.554688 -63.734375 46.304688 -62.050781 52.546875 -58.6875 L 52.546875 -42.703125 L 41.21875 -41.84375 L 41.21875 -47.75 C 41.21875 -49.957031 40.414062 -51.328125 38.8125 -51.859375 C 37.21875 -52.398438 35.5625 -52.671875 33.84375 -52.671875 C 23.914062 -52.671875 18.953125 -45.65625 18.953125 -31.625 Z M 18.953125 -31.625 "/></g></g></g><g fill="#063550" fill-opacity="1"><g transform="translate(248.230948, 132.225469)"><g><path d="M 26.328125 -61.890625 L 26.328125 -10.21875 L 33.34375 -9.84375 L 33.34375 0 L 4.0625 0 L 4.0625 -9.359375 L 8.125 -9.71875 C 10.5 -9.96875 11.6875 -11.28125 11.6875 -13.65625 L 11.6875 -47.859375 C 11.6875 -49.253906 11.460938 -50.195312 11.015625 -50.6875 C 10.566406 -51.1875 9.765625 -51.4375 8.609375 -51.4375 L 4.3125 -51.6875 L 4.3125 -61.890625 Z M 10.828125 -72.53125 C 9.109375 -74.21875 8.25 -76.375 8.25 -79 C 8.25 -81.625 9.109375 -83.816406 10.828125 -85.578125 C 12.546875 -87.335938 14.800781 -88.21875 17.59375 -88.21875 C 20.382812 -88.21875 22.660156 -87.335938 24.421875 -85.578125 C 26.191406 -83.816406 27.078125 -81.625 27.078125 -79 C 27.078125 -76.375 26.191406 -74.21875 24.421875 -72.53125 C 22.660156 -70.851562 20.382812 -70.015625 17.59375 -70.015625 C 14.800781 -70.015625 12.546875 -70.851562 10.828125 -72.53125 Z M 10.828125 -72.53125 "/></g></g></g><g fill="#063550" fill-opacity="1"><g transform="translate(284.651434, 132.225469)"><g><path d="M 32.359375 -8.984375 C 41.304688 -8.984375 45.78125 -16.203125 45.78125 -30.640625 C 45.78125 -37.941406 44.773438 -43.476562 42.765625 -47.25 C 40.753906 -51.019531 37.390625 -52.90625 32.671875 -52.90625 C 27.953125 -52.90625 24.484375 -51.097656 22.265625 -47.484375 C 20.054688 -43.878906 18.953125 -38.960938 18.953125 -32.734375 C 18.953125 -21.160156 21.082031 -13.898438 25.34375 -10.953125 C 27.226562 -9.640625 29.566406 -8.984375 32.359375 -8.984375 Z M 4.0625 -31.015625 C 4.0625 -37.078125 4.960938 -42.34375 6.765625 -46.8125 C 8.566406 -51.289062 10.988281 -54.71875 14.03125 -57.09375 C 19.851562 -61.519531 26.289062 -63.734375 33.34375 -63.734375 C 38.269531 -63.734375 42.429688 -62.929688 45.828125 -61.328125 C 49.234375 -59.734375 51.898438 -57.890625 53.828125 -55.796875 C 55.753906 -53.710938 57.394531 -50.679688 58.75 -46.703125 C 60.101562 -42.722656 60.78125 -38.023438 60.78125 -32.609375 C 60.78125 -21.285156 58.03125 -12.710938 52.53125 -6.890625 C 47.039062 -1.066406 40.007812 1.84375 31.4375 1.84375 C 22.863281 1.84375 16.15625 -0.921875 11.3125 -6.453125 C 6.476562 -11.992188 4.0625 -20.179688 4.0625 -31.015625 Z M 4.0625 -31.015625 "/></g></g></g><g fill="#063550" fill-opacity="1"><g transform="translate(349.61774, 132.225469)"><g><path d="M 69.28125 -9.71875 L 69.28125 0 L 49.34375 0 L 49.34375 -8 C 44.832031 -1.601562 38.1875 1.59375 29.40625 1.59375 C 16.695312 1.59375 10.34375 -5.5 10.34375 -19.6875 L 10.34375 -48.109375 C 10.34375 -50.328125 9.316406 -51.476562 7.265625 -51.5625 L 3.328125 -51.796875 L 3.328125 -61.890625 L 24.984375 -61.890625 L 24.984375 -22.890625 C 24.984375 -18.535156 25.597656 -15.25 26.828125 -13.03125 C 28.054688 -10.820312 30.597656 -9.71875 34.453125 -9.71875 C 38.304688 -9.71875 41.398438 -10.90625 43.734375 -13.28125 C 46.078125 -15.664062 47.25 -18.539062 47.25 -21.90625 L 47.25 -47.859375 C 47.25 -49.171875 47.019531 -50.09375 46.5625 -50.625 C 46.113281 -51.164062 45.316406 -51.476562 44.171875 -51.5625 L 40.234375 -51.796875 L 40.234375 -61.890625 L 61.890625 -61.890625 L 61.890625 -13.65625 C 61.890625 -12.34375 62.09375 -11.460938 62.5 -11.015625 C 62.914062 -10.566406 63.738281 -10.257812 64.96875 -10.09375 Z M 69.28125 -9.71875 "/></g></g></g><g fill="#063550" fill-opacity="1"><g transform="translate(422.335701, 132.225469)"><g><path d="M 36.296875 -52.546875 C 34.328125 -53.285156 31.945312 -53.65625 29.15625 -53.65625 C 26.375 -53.65625 24.140625 -53.015625 22.453125 -51.734375 C 20.773438 -50.460938 19.9375 -48.90625 19.9375 -47.0625 C 19.9375 -45.21875 20.242188 -43.78125 20.859375 -42.75 C 21.472656 -41.726562 22.4375 -40.847656 23.75 -40.109375 C 25.800781 -39.046875 28.257812 -38.125 31.125 -37.34375 C 34 -36.5625 36.132812 -35.945312 37.53125 -35.5 C 38.925781 -35.050781 40.664062 -34.289062 42.75 -33.21875 C 44.84375 -32.15625 46.425781 -31.007812 47.5 -29.78125 C 50.363281 -26.738281 51.796875 -22.84375 51.796875 -18.09375 C 51.796875 -11.9375 49.5625 -7.113281 45.09375 -3.625 C 40.625 -0.144531 34.945312 1.59375 28.0625 1.59375 C 18.050781 1.59375 10.503906 0.320312 5.421875 -2.21875 L 5.421875 -19.3125 L 16.484375 -20.1875 L 16.484375 -14.28125 C 16.484375 -10.664062 19.925781 -8.859375 26.8125 -8.859375 C 33.707031 -8.859375 37.15625 -11.359375 37.15625 -16.359375 C 37.15625 -18.171875 36.5625 -19.648438 35.375 -20.796875 C 34.1875 -21.941406 33.015625 -22.71875 31.859375 -23.125 C 30.710938 -23.539062 29.335938 -23.953125 27.734375 -24.359375 C 26.140625 -24.773438 24.582031 -25.1875 23.0625 -25.59375 C 21.550781 -26 19.910156 -26.550781 18.140625 -27.25 C 16.378906 -27.945312 14.4375 -28.953125 12.3125 -30.265625 C 8.125 -32.972656 6.03125 -37.503906 6.03125 -43.859375 C 6.03125 -50.222656 8.285156 -55.125 12.796875 -58.5625 C 17.304688 -62.007812 22.984375 -63.734375 29.828125 -63.734375 C 36.679688 -63.734375 43.472656 -62.09375 50.203125 -58.8125 L 50.203125 -44.046875 L 39.125 -43.1875 L 39.125 -48.359375 C 39.125 -50.410156 38.179688 -51.804688 36.296875 -52.546875 Z M 36.296875 -52.546875 "/></g></g></g><g fill="#063550" fill-opacity="1"><g transform="translate(477.827749, 132.225469)"><g/></g></g><g fill="#063550" fill-opacity="1"><g transform="translate(502.436183, 132.225469)"><g><path d="M 53.65625 -68.78125 C 52.75 -70.34375 49.382812 -71.125 43.5625 -71.125 C 35.925781 -71.125 30.140625 -68.539062 26.203125 -63.375 C 22.265625 -58.207031 20.296875 -50.738281 20.296875 -40.96875 C 20.296875 -20.707031 27.882812 -10.578125 43.0625 -10.578125 C 43.3125 -10.578125 44.398438 -10.578125 46.328125 -10.578125 C 48.253906 -10.578125 50.078125 -10.84375 51.796875 -11.375 C 53.523438 -11.914062 54.550781 -12.472656 54.875 -13.046875 C 55.207031 -13.617188 55.375 -14.519531 55.375 -15.75 L 55.375 -25.59375 L 67.921875 -24.734375 L 67.921875 -3.453125 C 61.523438 -0.0859375 53.40625 1.59375 43.5625 1.59375 C 31.007812 1.59375 21.429688 -1.929688 14.828125 -8.984375 C 8.222656 -16.035156 4.921875 -26.535156 4.921875 -40.484375 C 4.921875 -48.191406 6.023438 -54.914062 8.234375 -60.65625 C 10.453125 -66.40625 13.453125 -70.878906 17.234375 -74.078125 C 24.609375 -80.222656 33.382812 -83.296875 43.5625 -83.296875 C 51.757812 -83.296875 59.46875 -81.617188 66.6875 -78.265625 L 66.6875 -57.34375 L 54.140625 -56.484375 L 54.140625 -66.078125 C 54.140625 -67.304688 53.976562 -68.207031 53.65625 -68.78125 Z M 53.65625 -68.78125 "/></g></g></g><g fill="#063550" fill-opacity="1"><g transform="translate(576.507611, 132.225469)"><g><path d="M 59.3125 -59.4375 L 59.3125 -13.65625 C 59.3125 -12.34375 59.535156 -11.441406 59.984375 -10.953125 C 60.429688 -10.460938 61.234375 -10.175781 62.390625 -10.09375 L 66.328125 -9.84375 L 66.328125 0 L 46.765625 0 L 46.765625 -7.140625 L 46.390625 -7.265625 C 42.285156 -1.359375 36.664062 1.59375 29.53125 1.59375 C 21.164062 1.59375 14.972656 -1.066406 10.953125 -6.390625 C 6.929688 -11.722656 4.921875 -19.023438 4.921875 -28.296875 C 4.921875 -39.453125 7.628906 -48.144531 13.046875 -54.375 C 18.460938 -60.613281 26.582031 -63.734375 37.40625 -63.734375 C 44.375 -63.734375 51.675781 -62.300781 59.3125 -59.4375 Z M 45.03125 -19.5625 L 45.03125 -51.4375 C 42.738281 -52.5 39.582031 -53.03125 35.5625 -53.03125 C 30.0625 -53.03125 26.082031 -50.816406 23.625 -46.390625 C 21.164062 -41.960938 19.9375 -36.097656 19.9375 -28.796875 C 19.9375 -15.503906 24.203125 -8.859375 32.734375 -8.859375 C 36.335938 -8.859375 39.285156 -9.941406 41.578125 -12.109375 C 43.878906 -14.285156 45.03125 -16.769531 45.03125 -19.5625 Z M 45.03125 -19.5625 "/></g></g></g><g fill="#063550" fill-opacity="1"><g transform="translate(646.272516, 132.225469)"><g><path d="M 11.6875 -13.78125 L 11.6875 -47.859375 C 11.6875 -49.171875 11.460938 -50.09375 11.015625 -50.625 C 10.566406 -51.164062 9.765625 -51.476562 8.609375 -51.5625 L 3.453125 -51.921875 L 3.453125 -61.890625 L 24.234375 -61.890625 L 24.234375 -52.671875 C 25.710938 -55.867188 28.007812 -58.507812 31.125 -60.59375 C 34.25 -62.6875 37.835938 -63.734375 41.890625 -63.734375 C 45.953125 -63.734375 49.832031 -62.832031 53.53125 -61.03125 L 53.53125 -42.703125 L 42.078125 -41.84375 L 42.078125 -47.5 C 42.078125 -49.132812 41.671875 -50.160156 40.859375 -50.578125 C 39.953125 -50.984375 38.84375 -51.1875 37.53125 -51.1875 C 34.25 -51.1875 31.5625 -50.015625 29.46875 -47.671875 C 27.375 -45.335938 26.328125 -42.367188 26.328125 -38.765625 L 26.328125 -10.21875 L 37.03125 -9.71875 L 37.03125 0 L 4.0625 0 L 4.0625 -9.359375 L 8.125 -9.71875 C 9.351562 -9.882812 10.253906 -10.234375 10.828125 -10.765625 C 11.398438 -11.296875 11.6875 -12.300781 11.6875 -13.78125 Z M 11.6875 -13.78125 "/></g></g></g><g fill="#063550" fill-opacity="1"><g transform="translate(703.118064, 132.225469)"><g><path d="M 34.953125 -63.734375 C 41.097656 -63.734375 45.972656 -62.234375 49.578125 -59.234375 C 53.191406 -56.242188 55 -52.046875 55 -46.640625 C 55 -43.023438 54.21875 -39.84375 52.65625 -37.09375 C 51.101562 -34.351562 49.175781 -32.203125 46.875 -30.640625 C 44.582031 -29.078125 41.796875 -27.804688 38.515625 -26.828125 C 33.015625 -25.179688 26.820312 -24.359375 19.9375 -24.359375 C 20.175781 -20.015625 21.523438 -16.507812 23.984375 -13.84375 C 26.453125 -11.175781 30.226562 -9.84375 35.3125 -9.84375 C 40.394531 -9.84375 45.484375 -11.648438 50.578125 -15.265625 L 55.25 -5.296875 C 53.601562 -3.816406 50.832031 -2.296875 46.9375 -0.734375 C 43.039062 0.816406 38.59375 1.59375 33.59375 1.59375 C 23.582031 1.59375 16.238281 -1.171875 11.5625 -6.703125 C 6.882812 -12.242188 4.546875 -19.851562 4.546875 -29.53125 C 4.546875 -39.207031 7.210938 -47.328125 12.546875 -53.890625 C 17.878906 -60.453125 25.347656 -63.734375 34.953125 -63.734375 Z M 29.34375 -35.625 C 32.34375 -36.15625 35.113281 -37.34375 37.65625 -39.1875 C 40.195312 -41.03125 41.46875 -43.226562 41.46875 -45.78125 C 41.46875 -50.78125 39.003906 -53.28125 34.078125 -53.28125 C 29.484375 -53.28125 25.957031 -51.453125 23.5 -47.796875 C 21.039062 -44.148438 19.6875 -39.785156 19.4375 -34.703125 C 23.050781 -34.785156 26.351562 -35.09375 29.34375 -35.625 Z M 29.34375 -35.625 "/></g></g></g></g></g><g transform="matrix(1, 0, 0, 1, 399, 1011)"><g clip-path="url(#61fa745c19)"><g clip-path="url(#652a57982a)"><g fill="#ff66c4" fill-opacity="1"><g transform="translate(0.388386, 72.593798)"><g><path d="M 4.609375 -7.578125 L 15.5 -39.109375 L 11.234375 -39.515625 L 11.234375 -45 L 26.734375 -45 L 40.53125 -5.953125 L 40.609375 -5.953125 L 44.453125 -5.75 L 44.453125 0 L 27 0 L 27 -5.484375 L 29.578125 -5.6875 C 30.335938 -5.769531 30.851562 -5.945312 31.125 -6.21875 C 31.394531 -6.488281 31.421875 -6.988281 31.203125 -7.71875 L 29.78125 -11.90625 L 13.9375 -11.90625 L 11.90625 -5.953125 L 15.96875 -5.75 L 15.96875 0 L 0.34375 0 L 0.34375 -5.484375 L 2.578125 -5.6875 C 3.523438 -5.769531 4.203125 -6.398438 4.609375 -7.578125 Z M 21.859375 -37.421875 L 15.5625 -18.140625 L 28.15625 -18.140625 L 22.0625 -37.421875 Z M 21.859375 -37.421875 "/></g></g></g></g><g fill="#ff66c4" fill-opacity="1"><g transform="translate(45.184523, 72.593798)"><g><path d="M 19.96875 -28.890625 C 18.882812 -29.296875 17.570312 -29.5 16.03125 -29.5 C 14.5 -29.5 13.269531 -29.148438 12.34375 -28.453125 C 11.425781 -27.753906 10.96875 -26.894531 10.96875 -25.875 C 10.96875 -24.863281 11.132812 -24.078125 11.46875 -23.515625 C 11.8125 -22.953125 12.34375 -22.46875 13.0625 -22.0625 C 14.1875 -21.476562 15.535156 -20.96875 17.109375 -20.53125 C 18.691406 -20.101562 19.867188 -19.765625 20.640625 -19.515625 C 21.410156 -19.273438 22.367188 -18.859375 23.515625 -18.265625 C 24.660156 -17.679688 25.53125 -17.050781 26.125 -16.375 C 27.695312 -14.707031 28.484375 -12.566406 28.484375 -9.953125 C 28.484375 -6.566406 27.253906 -3.914062 24.796875 -2 C 22.335938 -0.0820312 19.210938 0.875 15.421875 0.875 C 9.921875 0.875 5.773438 0.175781 2.984375 -1.21875 L 2.984375 -10.625 L 9.0625 -11.09375 L 9.0625 -7.84375 C 9.0625 -5.863281 10.957031 -4.875 14.75 -4.875 C 18.539062 -4.875 20.4375 -6.25 20.4375 -9 C 20.4375 -9.988281 20.109375 -10.800781 19.453125 -11.4375 C 18.796875 -12.070312 18.148438 -12.5 17.515625 -12.71875 C 16.890625 -12.945312 16.132812 -13.171875 15.25 -13.390625 C 14.375 -13.617188 13.519531 -13.847656 12.6875 -14.078125 C 11.851562 -14.304688 10.953125 -14.609375 9.984375 -14.984375 C 9.015625 -15.367188 7.941406 -15.921875 6.765625 -16.640625 C 4.460938 -18.128906 3.3125 -20.625 3.3125 -24.125 C 3.3125 -27.625 4.550781 -30.316406 7.03125 -32.203125 C 9.519531 -34.097656 12.644531 -35.046875 16.40625 -35.046875 C 20.175781 -35.046875 23.910156 -34.144531 27.609375 -32.34375 L 27.609375 -24.21875 L 21.515625 -23.75 L 21.515625 -26.59375 C 21.515625 -27.71875 21 -28.484375 19.96875 -28.890625 Z M 19.96875 -28.890625 "/></g></g></g><g fill="#ff66c4" fill-opacity="1"><g transform="translate(75.702733, 72.593798)"><g><path d="M 19.96875 -28.890625 C 18.882812 -29.296875 17.570312 -29.5 16.03125 -29.5 C 14.5 -29.5 13.269531 -29.148438 12.34375 -28.453125 C 11.425781 -27.753906 10.96875 -26.894531 10.96875 -25.875 C 10.96875 -24.863281 11.132812 -24.078125 11.46875 -23.515625 C 11.8125 -22.953125 12.34375 -22.46875 13.0625 -22.0625 C 14.1875 -21.476562 15.535156 -20.96875 17.109375 -20.53125 C 18.691406 -20.101562 19.867188 -19.765625 20.640625 -19.515625 C 21.410156 -19.273438 22.367188 -18.859375 23.515625 -18.265625 C 24.660156 -17.679688 25.53125 -17.050781 26.125 -16.375 C 27.695312 -14.707031 28.484375 -12.566406 28.484375 -9.953125 C 28.484375 -6.566406 27.253906 -3.914062 24.796875 -2 C 22.335938 -0.0820312 19.210938 0.875 15.421875 0.875 C 9.921875 0.875 5.773438 0.175781 2.984375 -1.21875 L 2.984375 -10.625 L 9.0625 -11.09375 L 9.0625 -7.84375 C 9.0625 -5.863281 10.957031 -4.875 14.75 -4.875 C 18.539062 -4.875 20.4375 -6.25 20.4375 -9 C 20.4375 -9.988281 20.109375 -10.800781 19.453125 -11.4375 C 18.796875 -12.070312 18.148438 -12.5 17.515625 -12.71875 C 16.890625 -12.945312 16.132812 -13.171875 15.25 -13.390625 C 14.375 -13.617188 13.519531 -13.847656 12.6875 -14.078125 C 11.851562 -14.304688 10.953125 -14.609375 9.984375 -14.984375 C 9.015625 -15.367188 7.941406 -15.921875 6.765625 -16.640625 C 4.460938 -18.128906 3.3125 -20.625 3.3125 -24.125 C 3.3125 -27.625 4.550781 -30.316406 7.03125 -32.203125 C 9.519531 -34.097656 12.644531 -35.046875 16.40625 -35.046875 C 20.175781 -35.046875 23.910156 -34.144531 27.609375 -32.34375 L 27.609375 -24.21875 L 21.515625 -23.75 L 21.515625 -26.59375 C 21.515625 -27.71875 21 -28.484375 19.96875 -28.890625 Z M 19.96875 -28.890625 "/></g></g></g><g fill="#ff66c4" fill-opacity="1"><g transform="translate(106.220942, 72.593798)"><g><path d="M 14.484375 -34.03125 L 14.484375 -5.609375 L 18.34375 -5.40625 L 18.34375 0 L 2.234375 0 L 2.234375 -5.140625 L 4.46875 -5.34375 C 5.769531 -5.476562 6.421875 -6.203125 6.421875 -7.515625 L 6.421875 -26.328125 C 6.421875 -27.085938 6.296875 -27.601562 6.046875 -27.875 C 5.804688 -28.144531 5.367188 -28.28125 4.734375 -28.28125 L 2.375 -28.421875 L 2.375 -34.03125 Z M 5.953125 -39.890625 C 5.003906 -40.816406 4.53125 -42 4.53125 -43.4375 C 4.53125 -44.882812 5.003906 -46.09375 5.953125 -47.0625 C 6.898438 -48.03125 8.140625 -48.515625 9.671875 -48.515625 C 11.210938 -48.515625 12.46875 -48.03125 13.4375 -47.0625 C 14.40625 -46.09375 14.890625 -44.882812 14.890625 -43.4375 C 14.890625 -42 14.40625 -40.816406 13.4375 -39.890625 C 12.46875 -38.960938 11.210938 -38.5 9.671875 -38.5 C 8.140625 -38.5 6.898438 -38.960938 5.953125 -39.890625 Z M 5.953125 -39.890625 "/></g></g></g><g fill="#ff66c4" fill-opacity="1"><g transform="translate(126.250639, 72.593798)"><g><path d="M 19.96875 -28.890625 C 18.882812 -29.296875 17.570312 -29.5 16.03125 -29.5 C 14.5 -29.5 13.269531 -29.148438 12.34375 -28.453125 C 11.425781 -27.753906 10.96875 -26.894531 10.96875 -25.875 C 10.96875 -24.863281 11.132812 -24.078125 11.46875 -23.515625 C 11.8125 -22.953125 12.34375 -22.46875 13.0625 -22.0625 C 14.1875 -21.476562 15.535156 -20.96875 17.109375 -20.53125 C 18.691406 -20.101562 19.867188 -19.765625 20.640625 -19.515625 C 21.410156 -19.273438 22.367188 -18.859375 23.515625 -18.265625 C 24.660156 -17.679688 25.53125 -17.050781 26.125 -16.375 C 27.695312 -14.707031 28.484375 -12.566406 28.484375 -9.953125 C 28.484375 -6.566406 27.253906 -3.914062 24.796875 -2 C 22.335938 -0.0820312 19.210938 0.875 15.421875 0.875 C 9.921875 0.875 5.773438 0.175781 2.984375 -1.21875 L 2.984375 -10.625 L 9.0625 -11.09375 L 9.0625 -7.84375 C 9.0625 -5.863281 10.957031 -4.875 14.75 -4.875 C 18.539062 -4.875 20.4375 -6.25 20.4375 -9 C 20.4375 -9.988281 20.109375 -10.800781 19.453125 -11.4375 C 18.796875 -12.070312 18.148438 -12.5 17.515625 -12.71875 C 16.890625 -12.945312 16.132812 -13.171875 15.25 -13.390625 C 14.375 -13.617188 13.519531 -13.847656 12.6875 -14.078125 C 11.851562 -14.304688 10.953125 -14.609375 9.984375 -14.984375 C 9.015625 -15.367188 7.941406 -15.921875 6.765625 -16.640625 C 4.460938 -18.128906 3.3125 -20.625 3.3125 -24.125 C 3.3125 -27.625 4.550781 -30.316406 7.03125 -32.203125 C 9.519531 -34.097656 12.644531 -35.046875 16.40625 -35.046875 C 20.175781 -35.046875 23.910156 -34.144531 27.609375 -32.34375 L 27.609375 -24.21875 L 21.515625 -23.75 L 21.515625 -26.59375 C 21.515625 -27.71875 21 -28.484375 19.96875 -28.890625 Z M 19.96875 -28.890625 "/></g></g></g><g fill="#ff66c4" fill-opacity="1"><g transform="translate(156.092116, 72.593798)"><g><path d="M 9.75 -41.21875 L 14.140625 -41.21875 L 14.140625 -34.03125 L 23.140625 -34.03125 L 22.46875 -28.359375 L 14.140625 -28.359375 L 14.140625 -10.5625 C 14.140625 -8.570312 14.5 -7.179688 15.21875 -6.390625 C 15.945312 -5.597656 17.066406 -5.203125 18.578125 -5.203125 C 20.085938 -5.203125 21.609375 -5.675781 23.140625 -6.625 L 25.171875 -1.421875 C 22.921875 0.160156 20.054688 0.953125 16.578125 0.953125 C 14.546875 0.953125 12.832031 0.691406 11.4375 0.171875 C 10.039062 -0.347656 9.003906 -0.921875 8.328125 -1.546875 C 7.648438 -2.179688 7.128906 -3.109375 6.765625 -4.328125 C 6.398438 -5.546875 6.195312 -6.503906 6.15625 -7.203125 C 6.113281 -7.898438 6.09375 -8.925781 6.09375 -10.28125 L 6.09375 -28.359375 L 1.28125 -28.359375 L 1.96875 -33.296875 C 4.082031 -33.472656 5.679688 -34.226562 6.765625 -35.5625 C 7.847656 -36.894531 8.84375 -38.78125 9.75 -41.21875 Z M 9.75 -41.21875 "/></g></g></g><g fill="#ff66c4" fill-opacity="1"><g transform="translate(181.602919, 72.593798)"><g><path d="M 19.21875 -35.046875 C 22.601562 -35.046875 25.285156 -34.222656 27.265625 -32.578125 C 29.253906 -30.929688 30.25 -28.617188 30.25 -25.640625 C 30.25 -23.660156 29.816406 -21.914062 28.953125 -20.40625 C 28.097656 -18.894531 27.039062 -17.707031 25.78125 -16.84375 C 24.519531 -15.988281 22.988281 -15.289062 21.1875 -14.75 C 18.15625 -13.851562 14.75 -13.40625 10.96875 -13.40625 C 11.101562 -11.007812 11.84375 -9.078125 13.1875 -7.609375 C 14.539062 -6.140625 16.617188 -5.40625 19.421875 -5.40625 C 22.222656 -5.40625 25.019531 -6.398438 27.8125 -8.390625 L 30.390625 -2.90625 C 29.484375 -2.09375 27.957031 -1.257812 25.8125 -0.40625 C 23.675781 0.445312 21.226562 0.875 18.46875 0.875 C 12.96875 0.875 8.929688 -0.644531 6.359375 -3.6875 C 3.785156 -6.726562 2.5 -10.910156 2.5 -16.234375 C 2.5 -21.554688 3.960938 -26.019531 6.890625 -29.625 C 9.828125 -33.238281 13.9375 -35.046875 19.21875 -35.046875 Z M 16.140625 -19.59375 C 17.785156 -19.882812 19.304688 -20.535156 20.703125 -21.546875 C 22.109375 -22.566406 22.8125 -23.773438 22.8125 -25.171875 C 22.8125 -27.921875 21.457031 -29.296875 18.75 -29.296875 C 16.21875 -29.296875 14.273438 -28.289062 12.921875 -26.28125 C 11.566406 -24.28125 10.820312 -21.878906 10.6875 -19.078125 C 12.675781 -19.128906 14.492188 -19.300781 16.140625 -19.59375 Z M 16.140625 -19.59375 "/></g></g></g><g fill="#ff66c4" fill-opacity="1"><g transform="translate(214.354185, 72.593798)"><g><path d="M 19.21875 -35.046875 C 21.15625 -35.046875 23.003906 -34.773438 24.765625 -34.234375 L 24.765625 -41.078125 C 24.765625 -42.066406 24.179688 -42.609375 23.015625 -42.703125 L 20.09375 -42.90625 L 20.09375 -48.25 L 32.6875 -48.25 L 32.6875 -7.109375 C 32.726562 -6.066406 33.289062 -5.546875 34.375 -5.546875 L 36.75 -5.40625 L 36.75 0 L 25.78125 0 L 25.78125 -4 L 25.578125 -4.0625 C 23.546875 -0.769531 20.476562 0.875 16.375 0.875 C 11.226562 0.875 7.617188 -0.835938 5.546875 -4.265625 C 3.648438 -7.378906 2.703125 -11.191406 2.703125 -15.703125 C 2.703125 -21.566406 4.15625 -26.253906 7.0625 -29.765625 C 9.976562 -33.285156 14.03125 -35.046875 19.21875 -35.046875 Z M 24.765625 -10.5625 L 24.765625 -28.078125 C 23.140625 -28.804688 21.425781 -29.171875 19.625 -29.171875 C 16.644531 -29.171875 14.46875 -27.972656 13.09375 -25.578125 C 11.71875 -23.191406 11.03125 -20.144531 11.03125 -16.4375 C 11.03125 -8.863281 13.46875 -5.078125 18.34375 -5.078125 C 20.1875 -5.078125 21.71875 -5.601562 22.9375 -6.65625 C 24.15625 -7.71875 24.765625 -9.019531 24.765625 -10.5625 Z M 24.765625 -10.5625 "/></g></g></g><g fill="#ff66c4" fill-opacity="1"><g transform="translate(252.789555, 72.593798)"><g/></g></g><g fill="#ff66c4" fill-opacity="1"><g transform="translate(266.323118, 72.593798)"><g><path d="M 34.3125 0 L 2.171875 0 L 2.171875 -5.484375 L 4.40625 -5.6875 C 5.707031 -5.820312 6.359375 -6.453125 6.359375 -7.578125 L 6.359375 -39.046875 L 2.5 -39.25 L 2.5 -45 L 18.8125 -45 L 18.8125 -39.515625 L 16.578125 -39.3125 C 15.265625 -39.175781 14.609375 -38.457031 14.609375 -37.15625 L 14.609375 -6.96875 L 25.84375 -6.96875 C 26.476562 -6.96875 26.894531 -7.132812 27.09375 -7.46875 C 27.300781 -7.8125 27.40625 -8.367188 27.40625 -9.140625 L 27.40625 -13.875 L 34.3125 -13.40625 Z M 34.3125 0 "/></g></g></g><g fill="#ff66c4" fill-opacity="1"><g transform="translate(302.660764, 72.593798)"><g><path d="M 14.484375 -34.03125 L 14.484375 -5.609375 L 18.34375 -5.40625 L 18.34375 0 L 2.234375 0 L 2.234375 -5.140625 L 4.46875 -5.34375 C 5.769531 -5.476562 6.421875 -6.203125 6.421875 -7.515625 L 6.421875 -26.328125 C 6.421875 -27.085938 6.296875 -27.601562 6.046875 -27.875 C 5.804688 -28.144531 5.367188 -28.28125 4.734375 -28.28125 L 2.375 -28.421875 L 2.375 -34.03125 Z M 5.953125 -39.890625 C 5.003906 -40.816406 4.53125 -42 4.53125 -43.4375 C 4.53125 -44.882812 5.003906 -46.09375 5.953125 -47.0625 C 6.898438 -48.03125 8.140625 -48.515625 9.671875 -48.515625 C 11.210938 -48.515625 12.46875 -48.03125 13.4375 -47.0625 C 14.40625 -46.09375 14.890625 -44.882812 14.890625 -43.4375 C 14.890625 -42 14.40625 -40.816406 13.4375 -39.890625 C 12.46875 -38.960938 11.210938 -38.5 9.671875 -38.5 C 8.140625 -38.5 6.898438 -38.960938 5.953125 -39.890625 Z M 5.953125 -39.890625 "/></g></g></g><g fill="#ff66c4" fill-opacity="1"><g transform="translate(321.337031, 72.593798)"><g><path d="M 22.8125 -34.03125 L 37.078125 -34.03125 L 37.078125 -28.765625 L 34.984375 -28.625 C 34.085938 -28.53125 33.476562 -27.988281 33.15625 -27 L 24.421875 0 L 14.078125 0 L 4.609375 -26.9375 C 4.378906 -27.5625 4.140625 -27.988281 3.890625 -28.21875 C 3.640625 -28.445312 3.222656 -28.582031 2.640625 -28.625 L 0.671875 -28.765625 L 0.671875 -34.03125 L 16.578125 -34.03125 L 16.578125 -28.625 L 12.453125 -28.421875 L 19.421875 -6.15625 L 19.5625 -6.15625 L 26.328125 -28.421875 L 22.8125 -28.625 Z M 22.8125 -34.03125 "/></g></g></g><g fill="#ff66c4" fill-opacity="1"><g transform="translate(359.095704, 72.593798)"><g><path d="M 14.484375 -34.03125 L 14.484375 -5.609375 L 18.34375 -5.40625 L 18.34375 0 L 2.234375 0 L 2.234375 -5.140625 L 4.46875 -5.34375 C 5.769531 -5.476562 6.421875 -6.203125 6.421875 -7.515625 L 6.421875 -26.328125 C 6.421875 -27.085938 6.296875 -27.601562 6.046875 -27.875 C 5.804688 -28.144531 5.367188 -28.28125 4.734375 -28.28125 L 2.375 -28.421875 L 2.375 -34.03125 Z M 5.953125 -39.890625 C 5.003906 -40.816406 4.53125 -42 4.53125 -43.4375 C 4.53125 -44.882812 5.003906 -46.09375 5.953125 -47.0625 C 6.898438 -48.03125 8.140625 -48.515625 9.671875 -48.515625 C 11.210938 -48.515625 12.46875 -48.03125 13.4375 -47.0625 C 14.40625 -46.09375 14.890625 -44.882812 14.890625 -43.4375 C 14.890625 -42 14.40625 -40.816406 13.4375 -39.890625 C 12.46875 -38.960938 11.210938 -38.5 9.671875 -38.5 C 8.140625 -38.5 6.898438 -38.960938 5.953125 -39.890625 Z M 5.953125 -39.890625 "/></g></g></g><g fill="#ff66c4" fill-opacity="1"><g transform="translate(379.125401, 72.593798)"><g><path d="M 1.828125 -28.625 L 1.828125 -34.03125 L 13.265625 -34.03125 L 13.265625 -29.640625 C 14.429688 -31.304688 15.984375 -32.625 17.921875 -33.59375 C 19.867188 -34.5625 21.96875 -35.046875 24.21875 -35.046875 C 27.65625 -35.046875 30.304688 -34.066406 32.171875 -32.109375 C 34.046875 -30.148438 34.984375 -27.207031 34.984375 -23.28125 L 34.984375 -5.609375 L 38.84375 -5.40625 L 38.84375 0 L 22.734375 0 L 22.734375 -5.140625 L 24.96875 -5.34375 C 25.644531 -5.4375 26.140625 -5.628906 26.453125 -5.921875 C 26.773438 -6.210938 26.9375 -6.765625 26.9375 -7.578125 L 26.9375 -21.515625 C 26.9375 -23.992188 26.550781 -25.832031 25.78125 -27.03125 C 25.007812 -28.226562 23.550781 -28.828125 21.40625 -28.828125 C 19.269531 -28.828125 17.570312 -28.148438 16.3125 -26.796875 C 15.050781 -25.441406 14.421875 -23.84375 14.421875 -22 L 14.421875 -5.609375 L 18.265625 -5.40625 L 18.265625 0 L 2.171875 0 L 2.171875 -5.140625 L 4.40625 -5.34375 C 5.070312 -5.4375 5.5625 -5.628906 5.875 -5.921875 C 6.195312 -6.210938 6.359375 -6.765625 6.359375 -7.578125 L 6.359375 -26.328125 C 6.359375 -27.679688 5.796875 -28.378906 4.671875 -28.421875 Z M 1.828125 -28.625 "/></g></g></g><g fill="#ff66c4" fill-opacity="1"><g transform="translate(419.726126, 72.593798)"><g><path d="M 32.34375 -0.0625 C 31.9375 4.9375 30.492188 8.609375 28.015625 10.953125 C 25.535156 13.304688 21.65625 14.484375 16.375 14.484375 C 11.09375 14.484375 6.96875 13.738281 4 12.25 L 4 2.84375 L 10.421875 2.296875 L 10.421875 5.546875 C 10.421875 6.765625 10.984375 7.585938 12.109375 8.015625 C 13.242188 8.441406 14.800781 8.65625 16.78125 8.65625 C 19.664062 8.65625 21.691406 7.785156 22.859375 6.046875 C 24.035156 4.316406 24.625 1.875 24.625 -1.28125 L 24.625 -5 C 22.46875 -2.476562 19.46875 -1.21875 15.625 -1.21875 C 13.28125 -1.21875 11.21875 -1.664062 9.4375 -2.5625 C 7.65625 -3.46875 6.269531 -4.6875 5.28125 -6.21875 C 3.34375 -9.289062 2.375 -12.898438 2.375 -17.046875 C 2.375 -22.960938 3.972656 -27.441406 7.171875 -30.484375 C 10.378906 -33.523438 14.644531 -35.046875 19.96875 -35.046875 C 24.382812 -35.046875 28.554688 -34.210938 32.484375 -32.546875 L 32.484375 -7.4375 C 32.484375 -3.601562 32.4375 -1.144531 32.34375 -0.0625 Z M 24.625 -13.8125 L 24.625 -28.359375 C 23.050781 -28.898438 21.25 -29.171875 19.21875 -29.171875 C 16.46875 -29.171875 14.359375 -28.15625 12.890625 -26.125 C 11.421875 -24.09375 10.6875 -21.335938 10.6875 -17.859375 C 10.6875 -10.734375 13.035156 -7.171875 17.734375 -7.171875 C 19.671875 -7.171875 21.300781 -7.769531 22.625 -8.96875 C 23.957031 -10.164062 24.625 -11.78125 24.625 -13.8125 Z M 24.625 -13.8125 "/></g></g></g><g fill="#ff66c4" fill-opacity="1"><g transform="translate(456.537471, 72.593798)"><g/></g></g><g fill="#ff66c4" fill-opacity="1"><g transform="translate(470.071034, 72.593798)"><g><path d="M 2.296875 0 L 2.296875 -5.484375 L 4.53125 -5.6875 C 5.84375 -5.820312 6.5 -6.453125 6.5 -7.578125 L 6.5 -39.046875 L 2.640625 -39.25 L 2.640625 -45 L 35.328125 -45 L 35.328125 -33.765625 L 28.421875 -33.296875 L 28.421875 -36 C 28.421875 -36.769531 28.304688 -37.3125 28.078125 -37.625 C 27.859375 -37.9375 27.316406 -38.09375 26.453125 -38.09375 L 14.75 -38.09375 L 14.75 -26.125 L 31.40625 -26.125 L 31.40625 -19.21875 L 14.75 -19.21875 L 14.75 -5.953125 L 20.78125 -5.75 L 20.78125 0 Z M 2.296875 0 "/></g></g></g><g fill="#ff66c4" fill-opacity="1"><g transform="translate(506.814677, 72.593798)"><g><path d="M 32.625 -32.6875 L 32.625 -7.515625 C 32.625 -6.785156 32.742188 -6.285156 32.984375 -6.015625 C 33.234375 -5.742188 33.675781 -5.585938 34.3125 -5.546875 L 36.46875 -5.40625 L 36.46875 0 L 25.71875 0 L 25.71875 -3.921875 L 25.515625 -4 C 23.253906 -0.75 20.160156 0.875 16.234375 0.875 C 11.640625 0.875 8.234375 -0.585938 6.015625 -3.515625 C 3.804688 -6.453125 2.703125 -10.46875 2.703125 -15.5625 C 2.703125 -21.695312 4.191406 -26.476562 7.171875 -29.90625 C 10.148438 -33.332031 14.617188 -35.046875 20.578125 -35.046875 C 24.410156 -35.046875 28.425781 -34.257812 32.625 -32.6875 Z M 24.765625 -10.765625 L 24.765625 -28.28125 C 23.503906 -28.875 21.769531 -29.171875 19.5625 -29.171875 C 16.53125 -29.171875 14.335938 -27.953125 12.984375 -25.515625 C 11.640625 -23.078125 10.96875 -19.847656 10.96875 -15.828125 C 10.96875 -8.523438 13.3125 -4.875 18 -4.875 C 19.988281 -4.875 21.613281 -5.46875 22.875 -6.65625 C 24.132812 -7.851562 24.765625 -9.222656 24.765625 -10.765625 Z M 24.765625 -10.765625 "/></g></g></g><g fill="#ff66c4" fill-opacity="1"><g transform="translate(545.182381, 72.593798)"><g><path d="M 10.421875 -17.390625 C 10.421875 -13.554688 11.140625 -10.578125 12.578125 -8.453125 C 14.023438 -6.335938 16.113281 -5.28125 18.84375 -5.28125 C 21.570312 -5.28125 24.269531 -6.25 26.9375 -8.1875 L 29.84375 -2.984375 C 26.632812 -0.359375 22.617188 0.953125 17.796875 0.953125 C 12.972656 0.953125 9.171875 -0.566406 6.390625 -3.609375 C 3.617188 -6.660156 2.234375 -11.160156 2.234375 -17.109375 C 2.234375 -23.066406 3.820312 -27.546875 7 -30.546875 C 10.1875 -33.546875 13.773438 -35.046875 17.765625 -35.046875 C 21.753906 -35.046875 25.460938 -34.125 28.890625 -32.28125 L 28.890625 -23.484375 L 22.671875 -23.015625 L 22.671875 -26.25 C 22.671875 -27.46875 22.226562 -28.222656 21.34375 -28.515625 C 20.46875 -28.816406 19.554688 -28.96875 18.609375 -28.96875 C 13.148438 -28.96875 10.421875 -25.109375 10.421875 -17.390625 Z M 10.421875 -17.390625 "/></g></g></g><g fill="#ff66c4" fill-opacity="1"><g transform="translate(577.053951, 72.593798)"><g><path d="M 14.484375 -34.03125 L 14.484375 -5.609375 L 18.34375 -5.40625 L 18.34375 0 L 2.234375 0 L 2.234375 -5.140625 L 4.46875 -5.34375 C 5.769531 -5.476562 6.421875 -6.203125 6.421875 -7.515625 L 6.421875 -26.328125 C 6.421875 -27.085938 6.296875 -27.601562 6.046875 -27.875 C 5.804688 -28.144531 5.367188 -28.28125 4.734375 -28.28125 L 2.375 -28.421875 L 2.375 -34.03125 Z M 5.953125 -39.890625 C 5.003906 -40.816406 4.53125 -42 4.53125 -43.4375 C 4.53125 -44.882812 5.003906 -46.09375 5.953125 -47.0625 C 6.898438 -48.03125 8.140625 -48.515625 9.671875 -48.515625 C 11.210938 -48.515625 12.46875 -48.03125 13.4375 -47.0625 C 14.40625 -46.09375 14.890625 -44.882812 14.890625 -43.4375 C 14.890625 -42 14.40625 -40.816406 13.4375 -39.890625 C 12.46875 -38.960938 11.210938 -38.5 9.671875 -38.5 C 8.140625 -38.5 6.898438 -38.960938 5.953125 -39.890625 Z M 5.953125 -39.890625 "/></g></g></g><g fill="#ff66c4" fill-opacity="1"><g transform="translate(597.083648, 72.593798)"><g><path d="M 14.34375 -48.25 L 14.34375 -5.609375 L 18.203125 -5.40625 L 18.203125 0 L 2.09375 0 L 2.09375 -5.140625 L 4.328125 -5.34375 C 5.640625 -5.476562 6.296875 -6.203125 6.296875 -7.515625 L 6.296875 -40.875 C 6.296875 -41.863281 5.734375 -42.40625 4.609375 -42.5 L 2.234375 -42.640625 L 2.234375 -48.25 Z M 14.34375 -48.25 "/></g></g></g><g fill="#ff66c4" fill-opacity="1"><g transform="translate(617.248678, 72.593798)"><g><path d="M 14.484375 -34.03125 L 14.484375 -5.609375 L 18.34375 -5.40625 L 18.34375 0 L 2.234375 0 L 2.234375 -5.140625 L 4.46875 -5.34375 C 5.769531 -5.476562 6.421875 -6.203125 6.421875 -7.515625 L 6.421875 -26.328125 C 6.421875 -27.085938 6.296875 -27.601562 6.046875 -27.875 C 5.804688 -28.144531 5.367188 -28.28125 4.734375 -28.28125 L 2.375 -28.421875 L 2.375 -34.03125 Z M 5.953125 -39.890625 C 5.003906 -40.816406 4.53125 -42 4.53125 -43.4375 C 4.53125 -44.882812 5.003906 -46.09375 5.953125 -47.0625 C 6.898438 -48.03125 8.140625 -48.515625 9.671875 -48.515625 C 11.210938 -48.515625 12.46875 -48.03125 13.4375 -47.0625 C 14.40625 -46.09375 14.890625 -44.882812 14.890625 -43.4375 C 14.890625 -42 14.40625 -40.816406 13.4375 -39.890625 C 12.46875 -38.960938 11.210938 -38.5 9.671875 -38.5 C 8.140625 -38.5 6.898438 -38.960938 5.953125 -39.890625 Z M 5.953125 -39.890625 "/></g></g></g><g fill="#ff66c4" fill-opacity="1"><g transform="translate(637.278375, 72.593798)"><g><path d="M 9.75 -41.21875 L 14.140625 -41.21875 L 14.140625 -34.03125 L 23.140625 -34.03125 L 22.46875 -28.359375 L 14.140625 -28.359375 L 14.140625 -10.5625 C 14.140625 -8.570312 14.5 -7.179688 15.21875 -6.390625 C 15.945312 -5.597656 17.066406 -5.203125 18.578125 -5.203125 C 20.085938 -5.203125 21.609375 -5.675781 23.140625 -6.625 L 25.171875 -1.421875 C 22.921875 0.160156 20.054688 0.953125 16.578125 0.953125 C 14.546875 0.953125 12.832031 0.691406 11.4375 0.171875 C 10.039062 -0.347656 9.003906 -0.921875 8.328125 -1.546875 C 7.648438 -2.179688 7.128906 -3.109375 6.765625 -4.328125 C 6.398438 -5.546875 6.195312 -6.503906 6.15625 -7.203125 C 6.113281 -7.898438 6.09375 -8.925781 6.09375 -10.28125 L 6.09375 -28.359375 L 1.28125 -28.359375 L 1.96875 -33.296875 C 4.082031 -33.472656 5.679688 -34.226562 6.765625 -35.5625 C 7.847656 -36.894531 8.84375 -38.78125 9.75 -41.21875 Z M 9.75 -41.21875 "/></g></g></g><g fill="#ff66c4" fill-opacity="1"><g transform="translate(662.789178, 72.593798)"><g><path d="M 27.140625 -1.28125 L 27.140625 -6.421875 C 24.660156 -2.910156 21.003906 -1.15625 16.171875 -1.15625 C 9.179688 -1.15625 5.6875 -5.054688 5.6875 -12.859375 L 5.6875 -26.453125 C 5.6875 -27.671875 5.125 -28.304688 4 -28.359375 L 1.828125 -28.484375 L 1.828125 -34.03125 L 13.734375 -34.03125 L 13.734375 -14.609375 C 13.734375 -12.222656 14.070312 -10.421875 14.75 -9.203125 C 15.425781 -7.984375 16.820312 -7.375 18.9375 -7.375 C 21.0625 -7.375 22.765625 -8.023438 24.046875 -9.328125 C 25.335938 -10.640625 25.984375 -12.222656 25.984375 -14.078125 L 25.984375 -26.328125 C 25.984375 -27.085938 25.859375 -27.613281 25.609375 -27.90625 C 25.359375 -28.207031 24.921875 -28.359375 24.296875 -28.359375 L 22.125 -28.484375 L 22.125 -34.03125 L 34.03125 -34.03125 L 34.03125 -1.28125 C 34.03125 4.175781 32.710938 8.164062 30.078125 10.6875 C 27.441406 13.21875 23.445312 14.484375 18.09375 14.484375 C 12.75 14.484375 8.585938 13.738281 5.609375 12.25 L 5.609375 2.84375 L 12.046875 2.296875 L 12.046875 5.546875 C 12.046875 6.765625 12.609375 7.585938 13.734375 8.015625 C 14.859375 8.441406 16.414062 8.65625 18.40625 8.65625 C 24.226562 8.65625 27.140625 5.34375 27.140625 -1.28125 Z M 27.140625 -1.28125 "/></g></g></g></g></g></svg>