<svg xmlns="http://www.w3.org/2000/svg" xmlns:xlink="http://www.w3.org/1999/xlink" width="2000" zoomAndPan="magnify" viewBox="0 0 1500 1499.999933" height="2000" preserveAspectRatio="xMidYMid meet" version="1.0"><defs><g/><clipPath id="3ecbf9176e"><path d="M 453.660156 609 L 1046.160156 609 L 1046.160156 829 L 453.660156 829 Z M 453.660156 609 " clip-rule="nonzero"/></clipPath><clipPath id="235e8c88b2"><rect x="0" width="959" y="0" height="209"/></clipPath><clipPath id="fb2ba05d54"><rect x="0" width="881" y="0" height="117"/></clipPath></defs><path fill="#063550" d="M 740.871094 552.957031 L 768.371094 552.957031 L 768.371094 580.457031 L 740.871094 580.457031 Z M 740.871094 552.957031 " fill-opacity="1" fill-rule="nonzero"/><path fill="#063550" d="M 697.191406 552.957031 L 724.691406 552.957031 L 724.691406 580.457031 L 697.191406 580.457031 Z M 697.191406 552.957031 " fill-opacity="1" fill-rule="nonzero"/><path fill="#063550" d="M 740.871094 510.164062 L 768.371094 510.164062 L 768.371094 537.664062 L 740.871094 537.664062 Z M 740.871094 510.164062 " fill-opacity="1" fill-rule="nonzero"/><path fill="#063550" d="M 697.191406 510.164062 L 724.691406 510.164062 L 724.691406 537.664062 L 697.191406 537.664062 Z M 697.191406 510.164062 " fill-opacity="1" fill-rule="nonzero"/><g clip-path="url(#3ecbf9176e)"><path fill="#063550" d="M 811.339844 697.6875 C 751.242188 721.039062 703.292969 731.117188 684.269531 727.382812 C 668.148438 724.179688 659.4375 714.519531 659.4375 714.519531 C 656.886719 711.675781 651.910156 706.164062 652.796875 700.769531 C 654.578125 689.746094 679.292969 685.300781 688.0625 683.464844 C 758.058594 669.0625 770.265625 626.921875 850.101562 613.527344 C 864.265625 611.15625 881.925781 608.195312 904.152344 610.445312 C 980.015625 618.09375 1028.910156 677.953125 1046.335938 701.835938 C 1033.355469 707.230469 1014.273438 715.289062 991.394531 725.484375 C 909.722656 761.875 899.054688 772.484375 856.441406 790.144531 C 806.359375 810.949219 756.636719 831.574219 691.558594 828.3125 C 653.390625 826.417969 623.816406 816.933594 581.558594 803.421875 C 545.167969 791.804688 570.832031 796.367188 487.976562 760.628906 C 476.003906 755.414062 453.660156 745.933594 453.71875 733.425781 C 453.71875 728.863281 456.742188 724.179688 460.417969 721.453125 C 466.105469 717.246094 474.285156 717.007812 481.753906 720.742188 C 481.871094 717.957031 482.464844 713.867188 485.367188 710.550781 C 489.398438 705.925781 495.738281 705.394531 498.230469 705.214844 C 517.90625 703.734375 603.84375 729.871094 641.417969 737.277344 C 658.726562 740.65625 699.917969 748.304688 746.5 733.546875 C 776.195312 724.179688 797.828125 708.949219 811.339844 697.6875 Z M 811.339844 697.6875 " fill-opacity="1" fill-rule="nonzero"/></g><path fill="#ff66c4" d="M 965.496094 575.417969 L 732.808594 383.511719 L 500.066406 575.417969 L 553.820312 575.417969 L 563.839844 567.179688 L 563.839844 699.171875 L 597.5625 707.171875 L 597.5625 539.621094 L 732.808594 428.671875 L 870.546875 541.398438 L 870.546875 587.390625 L 902.847656 587.390625 L 902.847656 567.832031 L 912.152344 575.417969 Z M 965.496094 575.417969 " fill-opacity="1" fill-rule="nonzero"/><g transform="matrix(1, 0, 0, 1, 271, 891)"><g clip-path="url(#235e8c88b2)"><g fill="#063550" fill-opacity="1"><g transform="translate(1.559037, 165.274533)"><g><path d="M 4.9375 0 L 4.9375 -12.5 L 10.03125 -12.96875 C 13.007812 -13.269531 14.5 -14.707031 14.5 -17.28125 L 14.5 -89.03125 L 5.703125 -89.5 L 5.703125 -102.625 L 49.84375 -102.625 C 61.363281 -102.625 70.335938 -99.921875 76.765625 -94.515625 C 83.203125 -89.117188 86.421875 -81.019531 86.421875 -70.21875 C 86.421875 -59.414062 82.765625 -51.003906 75.453125 -44.984375 C 68.148438 -38.960938 58.484375 -35.953125 46.453125 -35.953125 L 33.328125 -35.953125 L 33.328125 -13.578125 L 48.140625 -13.109375 L 48.140625 0 Z M 33.328125 -50.921875 L 44.4375 -50.921875 C 59.457031 -50.921875 66.96875 -57.039062 66.96875 -69.28125 C 66.96875 -76.6875 65.035156 -81.597656 61.171875 -84.015625 C 57.316406 -86.441406 51.175781 -87.65625 42.75 -87.65625 L 33.328125 -87.65625 Z M 33.328125 -50.921875 "/></g></g></g><g fill="#063550" fill-opacity="1"><g transform="translate(92.597755, 165.274533)"><g><path d="M 14.65625 -17.28125 L 14.65625 -60.03125 C 14.65625 -61.675781 14.375 -62.832031 13.8125 -63.5 C 13.25 -64.164062 12.242188 -64.550781 10.796875 -64.65625 L 4.328125 -65.125 L 4.328125 -77.625 L 30.40625 -77.625 L 30.40625 -66.046875 C 32.25 -70.054688 35.125 -73.375 39.03125 -76 C 42.945312 -78.625 47.453125 -79.9375 52.546875 -79.9375 C 57.640625 -79.9375 62.5 -78.800781 67.125 -76.53125 L 67.125 -53.546875 L 52.78125 -52.46875 L 52.78125 -59.5625 C 52.78125 -61.625 52.265625 -62.910156 51.234375 -63.421875 C 50.097656 -63.929688 48.707031 -64.1875 47.0625 -64.1875 C 42.945312 -64.1875 39.578125 -62.71875 36.953125 -59.78125 C 34.328125 -56.851562 33.015625 -53.128906 33.015625 -48.609375 L 33.015625 -12.8125 L 46.453125 -12.1875 L 46.453125 0 L 5.09375 0 L 5.09375 -11.734375 L 10.1875 -12.1875 C 11.726562 -12.394531 12.859375 -12.832031 13.578125 -13.5 C 14.296875 -14.164062 14.65625 -15.425781 14.65625 -17.28125 Z M 14.65625 -17.28125 "/></g></g></g><g fill="#063550" fill-opacity="1"><g transform="translate(163.885703, 165.274533)"><g><path d="M 43.828125 -79.9375 C 51.535156 -79.9375 57.65625 -78.054688 62.1875 -74.296875 C 66.71875 -70.546875 68.984375 -65.273438 68.984375 -58.484375 C 68.984375 -53.953125 68.003906 -49.960938 66.046875 -46.515625 C 64.085938 -43.078125 61.664062 -40.378906 58.78125 -38.421875 C 55.90625 -36.460938 52.410156 -34.867188 48.296875 -33.640625 C 41.398438 -31.578125 33.632812 -30.546875 25 -30.546875 C 25.3125 -25.097656 27.007812 -20.703125 30.09375 -17.359375 C 33.175781 -14.015625 37.90625 -12.34375 44.28125 -12.34375 C 50.664062 -12.34375 57.046875 -14.609375 63.421875 -19.140625 L 69.28125 -6.640625 C 67.226562 -4.785156 63.757812 -2.878906 58.875 -0.921875 C 53.988281 1.023438 48.40625 2 42.125 2 C 29.570312 2 20.363281 -1.46875 14.5 -8.40625 C 8.632812 -15.351562 5.703125 -24.894531 5.703125 -37.03125 C 5.703125 -49.175781 9.046875 -59.363281 15.734375 -67.59375 C 22.421875 -75.820312 31.785156 -79.9375 43.828125 -79.9375 Z M 36.796875 -44.671875 C 40.554688 -45.335938 44.03125 -46.828125 47.21875 -49.140625 C 50.40625 -51.460938 52 -54.21875 52 -57.40625 C 52 -63.675781 48.914062 -66.8125 42.75 -66.8125 C 36.988281 -66.8125 32.5625 -64.519531 29.46875 -59.9375 C 26.382812 -55.363281 24.6875 -49.890625 24.375 -43.515625 C 28.90625 -43.617188 33.046875 -44.003906 36.796875 -44.671875 Z M 36.796875 -44.671875 "/></g></g></g><g fill="#063550" fill-opacity="1"><g transform="translate(238.568318, 165.274533)"><g><path d="M 23.765625 -39.65625 C 23.765625 -30.914062 25.410156 -24.125 28.703125 -19.28125 C 31.992188 -14.445312 36.75 -12.03125 42.96875 -12.03125 C 49.195312 -12.03125 55.347656 -14.242188 61.421875 -18.671875 L 68.046875 -6.796875 C 60.742188 -0.828125 51.585938 2.15625 40.578125 2.15625 C 29.578125 2.15625 20.910156 -1.3125 14.578125 -8.25 C 8.253906 -15.195312 5.09375 -25.457031 5.09375 -39.03125 C 5.09375 -52.613281 8.71875 -62.828125 15.96875 -69.671875 C 23.21875 -76.515625 31.394531 -79.9375 40.5 -79.9375 C 49.601562 -79.9375 58.066406 -77.828125 65.890625 -73.609375 L 65.890625 -53.546875 L 51.6875 -52.46875 L 51.6875 -59.875 C 51.6875 -62.65625 50.679688 -64.378906 48.671875 -65.046875 C 46.671875 -65.710938 44.59375 -66.046875 42.4375 -66.046875 C 29.988281 -66.046875 23.765625 -57.25 23.765625 -39.65625 Z M 23.765625 -39.65625 "/></g></g></g><g fill="#063550" fill-opacity="1"><g transform="translate(311.244985, 165.274533)"><g><path d="M 33.015625 -77.625 L 33.015625 -12.8125 L 41.8125 -12.34375 L 41.8125 0 L 5.09375 0 L 5.09375 -11.734375 L 10.1875 -12.1875 C 13.164062 -12.5 14.65625 -14.144531 14.65625 -17.125 L 14.65625 -60.03125 C 14.65625 -61.78125 14.375 -62.960938 13.8125 -63.578125 C 13.25 -64.191406 12.242188 -64.5 10.796875 -64.5 L 5.40625 -64.8125 L 5.40625 -77.625 Z M 13.578125 -90.953125 C 11.421875 -93.066406 10.34375 -95.769531 10.34375 -99.0625 C 10.34375 -102.351562 11.421875 -105.101562 13.578125 -107.3125 C 15.734375 -109.53125 18.5625 -110.640625 22.0625 -110.640625 C 25.5625 -110.640625 28.414062 -109.53125 30.625 -107.3125 C 32.84375 -105.101562 33.953125 -102.351562 33.953125 -99.0625 C 33.953125 -95.769531 32.84375 -93.066406 30.625 -90.953125 C 28.414062 -88.847656 25.5625 -87.796875 22.0625 -87.796875 C 18.5625 -87.796875 15.734375 -88.847656 13.578125 -90.953125 Z M 13.578125 -90.953125 "/></g></g></g><g fill="#063550" fill-opacity="1"><g transform="translate(356.918628, 165.274533)"><g><path d="M 40.578125 -11.265625 C 51.796875 -11.265625 57.40625 -20.316406 57.40625 -38.421875 C 57.40625 -47.578125 56.144531 -54.519531 53.625 -59.25 C 51.101562 -63.988281 46.882812 -66.359375 40.96875 -66.359375 C 35.050781 -66.359375 30.703125 -64.09375 27.921875 -59.5625 C 25.148438 -55.039062 23.765625 -48.867188 23.765625 -41.046875 C 23.765625 -26.546875 26.4375 -17.441406 31.78125 -13.734375 C 34.15625 -12.085938 37.085938 -11.265625 40.578125 -11.265625 Z M 5.09375 -38.890625 C 5.09375 -46.503906 6.222656 -53.113281 8.484375 -58.71875 C 10.742188 -64.320312 13.78125 -68.613281 17.59375 -71.59375 C 24.894531 -77.15625 32.96875 -79.9375 41.8125 -79.9375 C 47.988281 -79.9375 53.210938 -78.929688 57.484375 -76.921875 C 61.753906 -74.921875 65.097656 -72.609375 67.515625 -69.984375 C 69.929688 -67.359375 71.988281 -63.550781 73.6875 -58.5625 C 75.382812 -53.570312 76.234375 -47.679688 76.234375 -40.890625 C 76.234375 -26.691406 72.785156 -15.941406 65.890625 -8.640625 C 58.992188 -1.335938 50.171875 2.3125 39.421875 2.3125 C 28.671875 2.3125 20.257812 -1.15625 14.1875 -8.09375 C 8.125 -15.039062 5.09375 -25.304688 5.09375 -38.890625 Z M 5.09375 -38.890625 "/></g></g></g><g fill="#063550" fill-opacity="1"><g transform="translate(438.390574, 165.274533)"><g><path d="M 86.875 -12.1875 L 86.875 0 L 61.875 0 L 61.875 -10.03125 C 56.21875 -2.007812 47.882812 2 36.875 2 C 20.9375 2 12.96875 -6.894531 12.96875 -24.6875 L 12.96875 -60.34375 C 12.96875 -63.113281 11.679688 -64.550781 9.109375 -64.65625 L 4.171875 -64.96875 L 4.171875 -77.625 L 31.328125 -77.625 L 31.328125 -28.703125 C 31.328125 -23.253906 32.097656 -19.140625 33.640625 -16.359375 C 35.179688 -13.578125 38.367188 -12.1875 43.203125 -12.1875 C 48.035156 -12.1875 51.914062 -13.675781 54.84375 -16.65625 C 57.78125 -19.644531 59.25 -23.25 59.25 -27.46875 L 59.25 -60.03125 C 59.25 -61.675781 58.96875 -62.832031 58.40625 -63.5 C 57.84375 -64.164062 56.835938 -64.550781 55.390625 -64.65625 L 50.453125 -64.96875 L 50.453125 -77.625 L 77.625 -77.625 L 77.625 -17.125 C 77.625 -15.476562 77.878906 -14.375 78.390625 -13.8125 C 78.898438 -13.25 79.929688 -12.863281 81.484375 -12.65625 Z M 86.875 -12.1875 "/></g></g></g><g fill="#063550" fill-opacity="1"><g transform="translate(529.583598, 165.274533)"><g><path d="M 45.515625 -65.890625 C 43.046875 -66.816406 40.0625 -67.28125 36.5625 -67.28125 C 33.070312 -67.28125 30.269531 -66.484375 28.15625 -64.890625 C 26.050781 -63.296875 25 -61.335938 25 -59.015625 C 25 -56.703125 25.382812 -54.898438 26.15625 -53.609375 C 26.925781 -52.328125 28.132812 -51.226562 29.78125 -50.3125 C 32.351562 -48.96875 35.4375 -47.804688 39.03125 -46.828125 C 42.632812 -45.859375 45.3125 -45.085938 47.0625 -44.515625 C 48.8125 -43.953125 51 -43 53.625 -41.65625 C 56.25 -40.320312 58.226562 -38.882812 59.5625 -37.34375 C 63.164062 -33.539062 64.96875 -28.65625 64.96875 -22.6875 C 64.96875 -14.96875 62.160156 -8.921875 56.546875 -4.546875 C 50.941406 -0.179688 43.820312 2 35.1875 2 C 22.632812 2 13.171875 0.40625 6.796875 -2.78125 L 6.796875 -24.234375 L 20.671875 -25.3125 L 20.671875 -17.90625 C 20.671875 -13.375 24.992188 -11.109375 33.640625 -11.109375 C 42.285156 -11.109375 46.609375 -14.25 46.609375 -20.53125 C 46.609375 -22.789062 45.859375 -24.640625 44.359375 -26.078125 C 42.867188 -27.515625 41.40625 -28.488281 39.96875 -29 C 38.53125 -29.519531 36.804688 -30.035156 34.796875 -30.546875 C 32.785156 -31.066406 30.828125 -31.582031 28.921875 -32.09375 C 27.023438 -32.613281 24.96875 -33.304688 22.75 -34.171875 C 20.539062 -35.046875 18.101562 -36.304688 15.4375 -37.953125 C 10.1875 -41.347656 7.5625 -47.03125 7.5625 -55 C 7.5625 -62.976562 10.390625 -69.128906 16.046875 -73.453125 C 21.703125 -77.773438 28.828125 -79.9375 37.421875 -79.9375 C 46.015625 -79.9375 54.523438 -77.878906 62.953125 -73.765625 L 62.953125 -55.25 L 49.078125 -54.15625 L 49.078125 -60.640625 C 49.078125 -63.210938 47.890625 -64.960938 45.515625 -65.890625 Z M 45.515625 -65.890625 "/></g></g></g><g fill="#063550" fill-opacity="1"><g transform="translate(599.174212, 165.274533)"><g/></g></g><g fill="#063550" fill-opacity="1"><g transform="translate(630.034778, 165.274533)"><g><path d="M 67.28125 -86.265625 C 66.144531 -88.210938 61.925781 -89.1875 54.625 -89.1875 C 45.0625 -89.1875 37.8125 -85.945312 32.875 -79.46875 C 27.9375 -72.988281 25.46875 -63.628906 25.46875 -51.390625 C 25.46875 -25.972656 34.984375 -13.265625 54.015625 -13.265625 C 54.316406 -13.265625 55.675781 -13.265625 58.09375 -13.265625 C 60.507812 -13.265625 62.796875 -13.597656 64.953125 -14.265625 C 67.117188 -14.941406 68.40625 -15.640625 68.8125 -16.359375 C 69.226562 -17.078125 69.4375 -18.207031 69.4375 -19.75 L 69.4375 -32.09375 L 85.1875 -31.015625 L 85.1875 -4.328125 C 77.15625 -0.109375 66.96875 2 54.625 2 C 38.882812 2 26.875 -2.421875 18.59375 -11.265625 C 10.3125 -20.109375 6.171875 -33.273438 6.171875 -50.765625 C 6.171875 -60.441406 7.554688 -68.878906 10.328125 -76.078125 C 13.109375 -83.273438 16.867188 -88.878906 21.609375 -92.890625 C 30.859375 -100.609375 41.863281 -104.46875 54.625 -104.46875 C 64.914062 -104.46875 74.585938 -102.359375 83.640625 -98.140625 L 83.640625 -71.90625 L 67.890625 -70.828125 L 67.890625 -82.859375 C 67.890625 -84.410156 67.6875 -85.546875 67.28125 -86.265625 Z M 67.28125 -86.265625 "/></g></g></g><g fill="#063550" fill-opacity="1"><g transform="translate(722.925136, 165.274533)"><g><path d="M 74.375 -74.53125 L 74.375 -17.125 C 74.375 -15.476562 74.65625 -14.347656 75.21875 -13.734375 C 75.789062 -13.117188 76.796875 -12.757812 78.234375 -12.65625 L 83.171875 -12.34375 L 83.171875 0 L 58.640625 0 L 58.640625 -8.953125 L 58.171875 -9.109375 C 53.023438 -1.703125 45.976562 2 37.03125 2 C 26.539062 2 18.773438 -1.335938 13.734375 -8.015625 C 8.691406 -14.703125 6.171875 -23.859375 6.171875 -35.484375 C 6.171875 -49.484375 9.566406 -60.390625 16.359375 -68.203125 C 23.148438 -76.023438 33.332031 -79.9375 46.90625 -79.9375 C 55.65625 -79.9375 64.8125 -78.132812 74.375 -74.53125 Z M 56.484375 -24.53125 L 56.484375 -64.5 C 53.597656 -65.84375 49.632812 -66.515625 44.59375 -66.515625 C 37.695312 -66.515625 32.707031 -63.734375 29.625 -58.171875 C 26.539062 -52.617188 25 -45.265625 25 -36.109375 C 25 -19.441406 30.347656 -11.109375 41.046875 -11.109375 C 45.578125 -11.109375 49.28125 -12.472656 52.15625 -15.203125 C 55.039062 -17.929688 56.484375 -21.039062 56.484375 -24.53125 Z M 56.484375 -24.53125 "/></g></g></g><g fill="#063550" fill-opacity="1"><g transform="translate(810.414835, 165.274533)"><g><path d="M 14.65625 -17.28125 L 14.65625 -60.03125 C 14.65625 -61.675781 14.375 -62.832031 13.8125 -63.5 C 13.25 -64.164062 12.242188 -64.550781 10.796875 -64.65625 L 4.328125 -65.125 L 4.328125 -77.625 L 30.40625 -77.625 L 30.40625 -66.046875 C 32.25 -70.054688 35.125 -73.375 39.03125 -76 C 42.945312 -78.625 47.453125 -79.9375 52.546875 -79.9375 C 57.640625 -79.9375 62.5 -78.800781 67.125 -76.53125 L 67.125 -53.546875 L 52.78125 -52.46875 L 52.78125 -59.5625 C 52.78125 -61.625 52.265625 -62.910156 51.234375 -63.421875 C 50.097656 -63.929688 48.707031 -64.1875 47.0625 -64.1875 C 42.945312 -64.1875 39.578125 -62.71875 36.953125 -59.78125 C 34.328125 -56.851562 33.015625 -53.128906 33.015625 -48.609375 L 33.015625 -12.8125 L 46.453125 -12.1875 L 46.453125 0 L 5.09375 0 L 5.09375 -11.734375 L 10.1875 -12.1875 C 11.726562 -12.394531 12.859375 -12.832031 13.578125 -13.5 C 14.296875 -14.164062 14.65625 -15.425781 14.65625 -17.28125 Z M 14.65625 -17.28125 "/></g></g></g><g fill="#063550" fill-opacity="1"><g transform="translate(881.702826, 165.274533)"><g><path d="M 43.828125 -79.9375 C 51.535156 -79.9375 57.65625 -78.054688 62.1875 -74.296875 C 66.71875 -70.546875 68.984375 -65.273438 68.984375 -58.484375 C 68.984375 -53.953125 68.003906 -49.960938 66.046875 -46.515625 C 64.085938 -43.078125 61.664062 -40.378906 58.78125 -38.421875 C 55.90625 -36.460938 52.410156 -34.867188 48.296875 -33.640625 C 41.398438 -31.578125 33.632812 -30.546875 25 -30.546875 C 25.3125 -25.097656 27.007812 -20.703125 30.09375 -17.359375 C 33.175781 -14.015625 37.90625 -12.34375 44.28125 -12.34375 C 50.664062 -12.34375 57.046875 -14.609375 63.421875 -19.140625 L 69.28125 -6.640625 C 67.226562 -4.785156 63.757812 -2.878906 58.875 -0.921875 C 53.988281 1.023438 48.40625 2 42.125 2 C 29.570312 2 20.363281 -1.46875 14.5 -8.40625 C 8.632812 -15.351562 5.703125 -24.894531 5.703125 -37.03125 C 5.703125 -49.175781 9.046875 -59.363281 15.734375 -67.59375 C 22.421875 -75.820312 31.785156 -79.9375 43.828125 -79.9375 Z M 36.796875 -44.671875 C 40.554688 -45.335938 44.03125 -46.828125 47.21875 -49.140625 C 50.40625 -51.460938 52 -54.21875 52 -57.40625 C 52 -63.675781 48.914062 -66.8125 42.75 -66.8125 C 36.988281 -66.8125 32.5625 -64.519531 29.46875 -59.9375 C 26.382812 -55.363281 24.6875 -49.890625 24.375 -43.515625 C 28.90625 -43.617188 33.046875 -44.003906 36.796875 -44.671875 Z M 36.796875 -44.671875 "/></g></g></g></g></g><g transform="matrix(1, 0, 0, 1, 309, 1078)"><g clip-path="url(#fb2ba05d54)"><g fill="#ff66c4" fill-opacity="1"><g transform="translate(1.31038, 90.348051)"><g><path d="M 5.765625 -9.5 L 19.4375 -49.046875 L 14.09375 -49.5625 L 14.09375 -56.4375 L 33.515625 -56.4375 L 50.828125 -7.46875 L 50.921875 -7.46875 L 55.75 -7.21875 L 55.75 0 L 33.859375 0 L 33.859375 -6.875 L 37.078125 -7.125 C 38.046875 -7.238281 38.695312 -7.460938 39.03125 -7.796875 C 39.375 -8.140625 39.40625 -8.765625 39.125 -9.671875 L 37.34375 -14.9375 L 17.484375 -14.9375 L 14.9375 -7.46875 L 20.03125 -7.21875 L 20.03125 0 L 0.421875 0 L 0.421875 -6.875 L 3.21875 -7.125 C 4.40625 -7.238281 5.253906 -8.03125 5.765625 -9.5 Z M 27.40625 -46.921875 L 19.515625 -22.75 L 35.296875 -22.75 L 27.671875 -46.921875 Z M 27.40625 -46.921875 "/></g></g></g><g fill="#ff66c4" fill-opacity="1"><g transform="translate(57.487631, 90.348051)"><g><path d="M 25.03125 -36.234375 C 23.675781 -36.742188 22.035156 -37 20.109375 -37 C 18.179688 -37 16.640625 -36.5625 15.484375 -35.6875 C 14.328125 -34.8125 13.75 -33.734375 13.75 -32.453125 C 13.75 -31.179688 13.957031 -30.191406 14.375 -29.484375 C 14.800781 -28.773438 15.46875 -28.171875 16.375 -27.671875 C 17.789062 -26.929688 19.488281 -26.289062 21.46875 -25.75 C 23.445312 -25.21875 24.914062 -24.796875 25.875 -24.484375 C 26.84375 -24.171875 28.046875 -23.644531 29.484375 -22.90625 C 30.929688 -22.175781 32.019531 -21.382812 32.75 -20.53125 C 34.726562 -18.4375 35.71875 -15.75 35.71875 -12.46875 C 35.71875 -8.226562 34.175781 -4.90625 31.09375 -2.5 C 28.007812 -0.09375 24.09375 1.109375 19.34375 1.109375 C 12.445312 1.109375 7.242188 0.226562 3.734375 -1.53125 L 3.734375 -13.328125 L 11.375 -13.921875 L 11.375 -9.84375 C 11.375 -7.351562 13.75 -6.109375 18.5 -6.109375 C 23.25 -6.109375 25.625 -7.832031 25.625 -11.28125 C 25.625 -12.53125 25.210938 -13.550781 24.390625 -14.34375 C 23.578125 -15.132812 22.773438 -15.671875 21.984375 -15.953125 C 21.191406 -16.234375 20.242188 -16.515625 19.140625 -16.796875 C 18.035156 -17.078125 16.957031 -17.359375 15.90625 -17.640625 C 14.863281 -17.929688 13.734375 -18.316406 12.515625 -18.796875 C 11.296875 -19.273438 9.953125 -19.96875 8.484375 -20.875 C 5.597656 -22.738281 4.15625 -25.863281 4.15625 -30.25 C 4.15625 -34.632812 5.710938 -38.015625 8.828125 -40.390625 C 11.941406 -42.765625 15.859375 -43.953125 20.578125 -43.953125 C 25.304688 -43.953125 29.988281 -42.820312 34.625 -40.5625 L 34.625 -30.375 L 26.984375 -29.78125 L 26.984375 -33.34375 C 26.984375 -34.757812 26.332031 -35.722656 25.03125 -36.234375 Z M 25.03125 -36.234375 "/></g></g></g><g fill="#ff66c4" fill-opacity="1"><g transform="translate(95.759438, 90.348051)"><g><path d="M 25.03125 -36.234375 C 23.675781 -36.742188 22.035156 -37 20.109375 -37 C 18.179688 -37 16.640625 -36.5625 15.484375 -35.6875 C 14.328125 -34.8125 13.75 -33.734375 13.75 -32.453125 C 13.75 -31.179688 13.957031 -30.191406 14.375 -29.484375 C 14.800781 -28.773438 15.46875 -28.171875 16.375 -27.671875 C 17.789062 -26.929688 19.488281 -26.289062 21.46875 -25.75 C 23.445312 -25.21875 24.914062 -24.796875 25.875 -24.484375 C 26.84375 -24.171875 28.046875 -23.644531 29.484375 -22.90625 C 30.929688 -22.175781 32.019531 -21.382812 32.75 -20.53125 C 34.726562 -18.4375 35.71875 -15.75 35.71875 -12.46875 C 35.71875 -8.226562 34.175781 -4.90625 31.09375 -2.5 C 28.007812 -0.09375 24.09375 1.109375 19.34375 1.109375 C 12.445312 1.109375 7.242188 0.226562 3.734375 -1.53125 L 3.734375 -13.328125 L 11.375 -13.921875 L 11.375 -9.84375 C 11.375 -7.351562 13.75 -6.109375 18.5 -6.109375 C 23.25 -6.109375 25.625 -7.832031 25.625 -11.28125 C 25.625 -12.53125 25.210938 -13.550781 24.390625 -14.34375 C 23.578125 -15.132812 22.773438 -15.671875 21.984375 -15.953125 C 21.191406 -16.234375 20.242188 -16.515625 19.140625 -16.796875 C 18.035156 -17.078125 16.957031 -17.359375 15.90625 -17.640625 C 14.863281 -17.929688 13.734375 -18.316406 12.515625 -18.796875 C 11.296875 -19.273438 9.953125 -19.96875 8.484375 -20.875 C 5.597656 -22.738281 4.15625 -25.863281 4.15625 -30.25 C 4.15625 -34.632812 5.710938 -38.015625 8.828125 -40.390625 C 11.941406 -42.765625 15.859375 -43.953125 20.578125 -43.953125 C 25.304688 -43.953125 29.988281 -42.820312 34.625 -40.5625 L 34.625 -30.375 L 26.984375 -29.78125 L 26.984375 -33.34375 C 26.984375 -34.757812 26.332031 -35.722656 25.03125 -36.234375 Z M 25.03125 -36.234375 "/></g></g></g><g fill="#ff66c4" fill-opacity="1"><g transform="translate(134.031245, 90.348051)"><g><path d="M 18.15625 -42.6875 L 18.15625 -7.046875 L 23 -6.78125 L 23 0 L 2.796875 0 L 2.796875 -6.453125 L 5.59375 -6.703125 C 7.238281 -6.867188 8.0625 -7.773438 8.0625 -9.421875 L 8.0625 -33.015625 C 8.0625 -33.972656 7.90625 -34.617188 7.59375 -34.953125 C 7.28125 -35.296875 6.726562 -35.46875 5.9375 -35.46875 L 2.96875 -35.640625 L 2.96875 -42.6875 Z M 7.46875 -50.015625 C 6.28125 -51.179688 5.6875 -52.664062 5.6875 -54.46875 C 5.6875 -56.28125 6.28125 -57.796875 7.46875 -59.015625 C 8.65625 -60.234375 10.207031 -60.84375 12.125 -60.84375 C 14.050781 -60.84375 15.625 -60.234375 16.84375 -59.015625 C 18.0625 -57.796875 18.671875 -56.28125 18.671875 -54.46875 C 18.671875 -52.664062 18.0625 -51.179688 16.84375 -50.015625 C 15.625 -48.859375 14.050781 -48.28125 12.125 -48.28125 C 10.207031 -48.28125 8.65625 -48.859375 7.46875 -50.015625 Z M 7.46875 -50.015625 "/></g></g></g><g fill="#ff66c4" fill-opacity="1"><g transform="translate(159.14978, 90.348051)"><g><path d="M 25.03125 -36.234375 C 23.675781 -36.742188 22.035156 -37 20.109375 -37 C 18.179688 -37 16.640625 -36.5625 15.484375 -35.6875 C 14.328125 -34.8125 13.75 -33.734375 13.75 -32.453125 C 13.75 -31.179688 13.957031 -30.191406 14.375 -29.484375 C 14.800781 -28.773438 15.46875 -28.171875 16.375 -27.671875 C 17.789062 -26.929688 19.488281 -26.289062 21.46875 -25.75 C 23.445312 -25.21875 24.914062 -24.796875 25.875 -24.484375 C 26.84375 -24.171875 28.046875 -23.644531 29.484375 -22.90625 C 30.929688 -22.175781 32.019531 -21.382812 32.75 -20.53125 C 34.726562 -18.4375 35.71875 -15.75 35.71875 -12.46875 C 35.71875 -8.226562 34.175781 -4.90625 31.09375 -2.5 C 28.007812 -0.09375 24.09375 1.109375 19.34375 1.109375 C 12.445312 1.109375 7.242188 0.226562 3.734375 -1.53125 L 3.734375 -13.328125 L 11.375 -13.921875 L 11.375 -9.84375 C 11.375 -7.351562 13.75 -6.109375 18.5 -6.109375 C 23.25 -6.109375 25.625 -7.832031 25.625 -11.28125 C 25.625 -12.53125 25.210938 -13.550781 24.390625 -14.34375 C 23.578125 -15.132812 22.773438 -15.671875 21.984375 -15.953125 C 21.191406 -16.234375 20.242188 -16.515625 19.140625 -16.796875 C 18.035156 -17.078125 16.957031 -17.359375 15.90625 -17.640625 C 14.863281 -17.929688 13.734375 -18.316406 12.515625 -18.796875 C 11.296875 -19.273438 9.953125 -19.96875 8.484375 -20.875 C 5.597656 -22.738281 4.15625 -25.863281 4.15625 -30.25 C 4.15625 -34.632812 5.710938 -38.015625 8.828125 -40.390625 C 11.941406 -42.765625 15.859375 -43.953125 20.578125 -43.953125 C 25.304688 -43.953125 29.988281 -42.820312 34.625 -40.5625 L 34.625 -30.375 L 26.984375 -29.78125 L 26.984375 -33.34375 C 26.984375 -34.757812 26.332031 -35.722656 25.03125 -36.234375 Z M 25.03125 -36.234375 "/></g></g></g><g fill="#ff66c4" fill-opacity="1"><g transform="translate(196.57292, 90.348051)"><g><path d="M 12.21875 -51.671875 L 17.734375 -51.671875 L 17.734375 -42.6875 L 29.015625 -42.6875 L 28.171875 -35.5625 L 17.734375 -35.5625 L 17.734375 -13.234375 C 17.734375 -10.742188 18.1875 -9.003906 19.09375 -8.015625 C 20 -7.023438 21.398438 -6.53125 23.296875 -6.53125 C 25.191406 -6.53125 27.097656 -7.125 29.015625 -8.3125 L 31.5625 -1.78125 C 28.738281 0.195312 25.148438 1.1875 20.796875 1.1875 C 18.242188 1.1875 16.085938 0.859375 14.328125 0.203125 C 12.578125 -0.441406 11.28125 -1.160156 10.4375 -1.953125 C 9.59375 -2.742188 8.941406 -3.898438 8.484375 -5.421875 C 8.035156 -6.953125 7.78125 -8.15625 7.71875 -9.03125 C 7.664062 -9.914062 7.640625 -11.207031 7.640625 -12.90625 L 7.640625 -35.5625 L 1.609375 -35.5625 L 2.453125 -41.75 C 5.117188 -41.976562 7.128906 -42.925781 8.484375 -44.59375 C 9.835938 -46.257812 11.082031 -48.617188 12.21875 -51.671875 Z M 12.21875 -51.671875 "/></g></g></g><g fill="#ff66c4" fill-opacity="1"><g transform="translate(228.565116, 90.348051)"><g><path d="M 24.09375 -43.953125 C 28.34375 -43.953125 31.710938 -42.921875 34.203125 -40.859375 C 36.691406 -38.796875 37.9375 -35.894531 37.9375 -32.15625 C 37.9375 -29.664062 37.394531 -27.472656 36.3125 -25.578125 C 35.238281 -23.691406 33.910156 -22.207031 32.328125 -21.125 C 30.742188 -20.050781 28.820312 -19.175781 26.5625 -18.5 C 22.769531 -17.363281 18.5 -16.796875 13.75 -16.796875 C 13.914062 -13.796875 14.847656 -11.375 16.546875 -9.53125 C 18.242188 -7.695312 20.84375 -6.78125 24.34375 -6.78125 C 27.851562 -6.78125 31.363281 -8.023438 34.875 -10.515625 L 38.109375 -3.65625 C 36.972656 -2.632812 35.0625 -1.582031 32.375 -0.5 C 29.6875 0.570312 26.617188 1.109375 23.171875 1.109375 C 16.265625 1.109375 11.195312 -0.800781 7.96875 -4.625 C 4.75 -8.445312 3.140625 -13.691406 3.140625 -20.359375 C 3.140625 -27.035156 4.976562 -32.632812 8.65625 -37.15625 C 12.332031 -41.6875 17.476562 -43.953125 24.09375 -43.953125 Z M 20.234375 -24.5625 C 22.304688 -24.9375 24.21875 -25.757812 25.96875 -27.03125 C 27.71875 -28.300781 28.59375 -29.8125 28.59375 -31.5625 C 28.59375 -35.019531 26.894531 -36.75 23.5 -36.75 C 20.332031 -36.75 17.898438 -35.488281 16.203125 -32.96875 C 14.503906 -30.445312 13.570312 -27.4375 13.40625 -23.9375 C 15.894531 -23.988281 18.171875 -24.195312 20.234375 -24.5625 Z M 20.234375 -24.5625 "/></g></g></g><g fill="#ff66c4" fill-opacity="1"><g transform="translate(269.637319, 90.348051)"><g><path d="M 24.09375 -43.953125 C 26.53125 -43.953125 28.851562 -43.613281 31.0625 -42.9375 L 31.0625 -51.515625 C 31.0625 -52.753906 30.328125 -53.429688 28.859375 -53.546875 L 25.203125 -53.796875 L 25.203125 -60.5 L 40.984375 -60.5 L 40.984375 -8.90625 C 41.046875 -7.601562 41.753906 -6.953125 43.109375 -6.953125 L 46.078125 -6.78125 L 46.078125 0 L 32.328125 0 L 32.328125 -5 L 32.078125 -5.09375 C 29.535156 -0.957031 25.6875 1.109375 20.53125 1.109375 C 14.082031 1.109375 9.554688 -1.039062 6.953125 -5.34375 C 4.578125 -9.25 3.390625 -14.03125 3.390625 -19.6875 C 3.390625 -27.039062 5.210938 -32.921875 8.859375 -37.328125 C 12.515625 -41.742188 17.59375 -43.953125 24.09375 -43.953125 Z M 31.0625 -13.234375 L 31.0625 -35.21875 C 29.019531 -36.125 26.867188 -36.578125 24.609375 -36.578125 C 20.878906 -36.578125 18.148438 -35.078125 16.421875 -32.078125 C 14.691406 -29.078125 13.828125 -25.257812 13.828125 -20.625 C 13.828125 -11.113281 16.882812 -6.359375 23 -6.359375 C 25.3125 -6.359375 27.234375 -7.023438 28.765625 -8.359375 C 30.296875 -9.691406 31.0625 -11.316406 31.0625 -13.234375 Z M 31.0625 -13.234375 "/></g></g></g><g fill="#ff66c4" fill-opacity="1"><g transform="translate(317.837757, 90.348051)"><g/></g></g><g fill="#ff66c4" fill-opacity="1"><g transform="translate(334.80972, 90.348051)"><g><path d="M 43.03125 0 L 2.71875 0 L 2.71875 -6.875 L 5.515625 -7.125 C 7.160156 -7.289062 7.984375 -8.082031 7.984375 -9.5 L 7.984375 -48.96875 L 3.140625 -49.21875 L 3.140625 -56.4375 L 23.59375 -56.4375 L 23.59375 -49.5625 L 20.796875 -49.296875 C 19.148438 -49.128906 18.328125 -48.226562 18.328125 -46.59375 L 18.328125 -8.734375 L 32.421875 -8.734375 C 33.210938 -8.734375 33.734375 -8.945312 33.984375 -9.375 C 34.242188 -9.800781 34.375 -10.492188 34.375 -11.453125 L 34.375 -17.390625 L 43.03125 -16.796875 Z M 43.03125 0 "/></g></g></g><g fill="#ff66c4" fill-opacity="1"><g transform="translate(380.379477, 90.348051)"><g><path d="M 18.15625 -42.6875 L 18.15625 -7.046875 L 23 -6.78125 L 23 0 L 2.796875 0 L 2.796875 -6.453125 L 5.59375 -6.703125 C 7.238281 -6.867188 8.0625 -7.773438 8.0625 -9.421875 L 8.0625 -33.015625 C 8.0625 -33.972656 7.90625 -34.617188 7.59375 -34.953125 C 7.28125 -35.296875 6.726562 -35.46875 5.9375 -35.46875 L 2.96875 -35.640625 L 2.96875 -42.6875 Z M 7.46875 -50.015625 C 6.28125 -51.179688 5.6875 -52.664062 5.6875 -54.46875 C 5.6875 -56.28125 6.28125 -57.796875 7.46875 -59.015625 C 8.65625 -60.234375 10.207031 -60.84375 12.125 -60.84375 C 14.050781 -60.84375 15.625 -60.234375 16.84375 -59.015625 C 18.0625 -57.796875 18.671875 -56.28125 18.671875 -54.46875 C 18.671875 -52.664062 18.0625 -51.179688 16.84375 -50.015625 C 15.625 -48.859375 14.050781 -48.28125 12.125 -48.28125 C 10.207031 -48.28125 8.65625 -48.859375 7.46875 -50.015625 Z M 7.46875 -50.015625 "/></g></g></g><g fill="#ff66c4" fill-opacity="1"><g transform="translate(403.800722, 90.348051)"><g><path d="M 28.59375 -42.6875 L 46.5 -42.6875 L 46.5 -36.0625 L 43.875 -35.890625 C 42.738281 -35.773438 41.972656 -35.097656 41.578125 -33.859375 L 30.640625 0 L 17.65625 0 L 5.765625 -33.78125 C 5.484375 -34.570312 5.1875 -35.109375 4.875 -35.390625 C 4.5625 -35.671875 4.039062 -35.835938 3.3125 -35.890625 L 0.84375 -36.0625 L 0.84375 -42.6875 L 20.796875 -42.6875 L 20.796875 -35.890625 L 15.609375 -35.640625 L 24.359375 -7.71875 L 24.53125 -7.71875 L 33.015625 -35.640625 L 28.59375 -35.890625 Z M 28.59375 -42.6875 "/></g></g></g><g fill="#ff66c4" fill-opacity="1"><g transform="translate(451.152538, 90.348051)"><g><path d="M 18.15625 -42.6875 L 18.15625 -7.046875 L 23 -6.78125 L 23 0 L 2.796875 0 L 2.796875 -6.453125 L 5.59375 -6.703125 C 7.238281 -6.867188 8.0625 -7.773438 8.0625 -9.421875 L 8.0625 -33.015625 C 8.0625 -33.972656 7.90625 -34.617188 7.59375 -34.953125 C 7.28125 -35.296875 6.726562 -35.46875 5.9375 -35.46875 L 2.96875 -35.640625 L 2.96875 -42.6875 Z M 7.46875 -50.015625 C 6.28125 -51.179688 5.6875 -52.664062 5.6875 -54.46875 C 5.6875 -56.28125 6.28125 -57.796875 7.46875 -59.015625 C 8.65625 -60.234375 10.207031 -60.84375 12.125 -60.84375 C 14.050781 -60.84375 15.625 -60.234375 16.84375 -59.015625 C 18.0625 -57.796875 18.671875 -56.28125 18.671875 -54.46875 C 18.671875 -52.664062 18.0625 -51.179688 16.84375 -50.015625 C 15.625 -48.859375 14.050781 -48.28125 12.125 -48.28125 C 10.207031 -48.28125 8.65625 -48.859375 7.46875 -50.015625 Z M 7.46875 -50.015625 "/></g></g></g><g fill="#ff66c4" fill-opacity="1"><g transform="translate(476.271073, 90.348051)"><g><path d="M 2.296875 -35.890625 L 2.296875 -42.6875 L 16.625 -42.6875 L 16.625 -37.171875 C 18.101562 -39.265625 20.054688 -40.914062 22.484375 -42.125 C 24.921875 -43.34375 27.550781 -43.953125 30.375 -43.953125 C 34.675781 -43.953125 38 -42.722656 40.34375 -40.265625 C 42.695312 -37.804688 43.875 -34.113281 43.875 -29.1875 L 43.875 -7.046875 L 48.703125 -6.78125 L 48.703125 0 L 28.515625 0 L 28.515625 -6.453125 L 31.3125 -6.703125 C 32.164062 -6.816406 32.789062 -7.054688 33.1875 -7.421875 C 33.582031 -7.796875 33.78125 -8.488281 33.78125 -9.5 L 33.78125 -26.984375 C 33.78125 -30.097656 33.296875 -32.40625 32.328125 -33.90625 C 31.367188 -35.40625 29.546875 -36.15625 26.859375 -36.15625 C 24.171875 -36.15625 22.035156 -35.304688 20.453125 -33.609375 C 18.867188 -31.910156 18.078125 -29.898438 18.078125 -27.578125 L 18.078125 -7.046875 L 22.90625 -6.78125 L 22.90625 0 L 2.71875 0 L 2.71875 -6.453125 L 5.515625 -6.703125 C 6.359375 -6.816406 6.976562 -7.054688 7.375 -7.421875 C 7.78125 -7.796875 7.984375 -8.488281 7.984375 -9.5 L 7.984375 -33.015625 C 7.984375 -34.710938 7.273438 -35.585938 5.859375 -35.640625 Z M 2.296875 -35.890625 "/></g></g></g><g fill="#ff66c4" fill-opacity="1"><g transform="translate(527.187006, 90.348051)"><g><path d="M 40.5625 -0.078125 C 40.050781 6.191406 38.238281 10.796875 35.125 13.734375 C 32.019531 16.679688 27.15625 18.15625 20.53125 18.15625 C 13.914062 18.15625 8.738281 17.222656 5 15.359375 L 5 3.5625 L 13.0625 2.890625 L 13.0625 6.953125 C 13.0625 8.484375 13.769531 9.515625 15.1875 10.046875 C 16.601562 10.585938 18.554688 10.859375 21.046875 10.859375 C 24.660156 10.859375 27.203125 9.769531 28.671875 7.59375 C 30.148438 5.414062 30.890625 2.347656 30.890625 -1.609375 L 30.890625 -6.28125 C 28.171875 -3.113281 24.410156 -1.53125 19.609375 -1.53125 C 16.660156 -1.53125 14.066406 -2.09375 11.828125 -3.21875 C 9.597656 -4.351562 7.863281 -5.882812 6.625 -7.8125 C 4.1875 -11.65625 2.96875 -16.179688 2.96875 -21.390625 C 2.96875 -28.796875 4.972656 -34.40625 8.984375 -38.21875 C 13.003906 -42.039062 18.351562 -43.953125 25.03125 -43.953125 C 30.570312 -43.953125 35.804688 -42.90625 40.734375 -40.8125 L 40.734375 -9.328125 C 40.734375 -4.523438 40.675781 -1.441406 40.5625 -0.078125 Z M 30.890625 -17.3125 L 30.890625 -35.5625 C 28.910156 -36.238281 26.644531 -36.578125 24.09375 -36.578125 C 20.644531 -36.578125 18 -35.300781 16.15625 -32.75 C 14.320312 -30.207031 13.40625 -26.757812 13.40625 -22.40625 C 13.40625 -13.46875 16.347656 -9 22.234375 -9 C 24.660156 -9 26.707031 -9.75 28.375 -11.25 C 30.050781 -12.75 30.890625 -14.769531 30.890625 -17.3125 Z M 30.890625 -17.3125 "/></g></g></g><g fill="#ff66c4" fill-opacity="1"><g transform="translate(573.350811, 90.348051)"><g/></g></g><g fill="#ff66c4" fill-opacity="1"><g transform="translate(590.322774, 90.348051)"><g><path d="M 2.890625 0 L 2.890625 -6.875 L 5.6875 -7.125 C 7.320312 -7.289062 8.140625 -8.082031 8.140625 -9.5 L 8.140625 -48.96875 L 3.3125 -49.21875 L 3.3125 -56.4375 L 44.296875 -56.4375 L 44.296875 -42.34375 L 35.640625 -41.75 L 35.640625 -45.140625 C 35.640625 -46.109375 35.5 -46.789062 35.21875 -47.1875 C 34.9375 -47.582031 34.257812 -47.78125 33.1875 -47.78125 L 18.5 -47.78125 L 18.5 -32.75 L 39.375 -32.75 L 39.375 -24.09375 L 18.5 -24.09375 L 18.5 -7.46875 L 26.046875 -7.21875 L 26.046875 0 Z M 2.890625 0 "/></g></g></g><g fill="#ff66c4" fill-opacity="1"><g transform="translate(636.401678, 90.348051)"><g><path d="M 40.90625 -40.984375 L 40.90625 -9.421875 C 40.90625 -8.515625 41.054688 -7.890625 41.359375 -7.546875 C 41.671875 -7.210938 42.226562 -7.015625 43.03125 -6.953125 L 45.734375 -6.78125 L 45.734375 0 L 32.25 0 L 32.25 -4.921875 L 31.984375 -5 C 29.160156 -0.925781 25.285156 1.109375 20.359375 1.109375 C 14.585938 1.109375 10.316406 -0.726562 7.546875 -4.40625 C 4.773438 -8.082031 3.390625 -13.117188 3.390625 -19.515625 C 3.390625 -27.210938 5.253906 -33.207031 8.984375 -37.5 C 12.722656 -41.800781 18.328125 -43.953125 25.796875 -43.953125 C 30.609375 -43.953125 35.644531 -42.960938 40.90625 -40.984375 Z M 31.0625 -13.5 L 31.0625 -35.46875 C 29.476562 -36.207031 27.300781 -36.578125 24.53125 -36.578125 C 20.738281 -36.578125 17.992188 -35.046875 16.296875 -31.984375 C 14.597656 -28.929688 13.75 -24.890625 13.75 -19.859375 C 13.75 -10.691406 16.691406 -6.109375 22.578125 -6.109375 C 25.066406 -6.109375 27.101562 -6.859375 28.6875 -8.359375 C 30.269531 -9.859375 31.0625 -11.570312 31.0625 -13.5 Z M 31.0625 -13.5 "/></g></g></g><g fill="#ff66c4" fill-opacity="1"><g transform="translate(684.517257, 90.348051)"><g><path d="M 13.0625 -21.8125 C 13.0625 -17 13.96875 -13.265625 15.78125 -10.609375 C 17.59375 -7.953125 20.207031 -6.625 23.625 -6.625 C 27.050781 -6.625 30.4375 -7.835938 33.78125 -10.265625 L 37.421875 -3.734375 C 33.398438 -0.453125 28.363281 1.1875 22.3125 1.1875 C 16.257812 1.1875 11.492188 -0.71875 8.015625 -4.53125 C 4.535156 -8.351562 2.796875 -14 2.796875 -21.46875 C 2.796875 -28.9375 4.789062 -34.550781 8.78125 -38.3125 C 12.769531 -42.070312 17.265625 -43.953125 22.265625 -43.953125 C 27.273438 -43.953125 31.929688 -42.796875 36.234375 -40.484375 L 36.234375 -29.453125 L 28.421875 -28.859375 L 28.421875 -32.921875 C 28.421875 -34.453125 27.867188 -35.398438 26.765625 -35.765625 C 25.671875 -36.128906 24.53125 -36.3125 23.34375 -36.3125 C 16.488281 -36.3125 13.0625 -31.476562 13.0625 -21.8125 Z M 13.0625 -21.8125 "/></g></g></g><g fill="#ff66c4" fill-opacity="1"><g transform="translate(724.486265, 90.348051)"><g><path d="M 18.15625 -42.6875 L 18.15625 -7.046875 L 23 -6.78125 L 23 0 L 2.796875 0 L 2.796875 -6.453125 L 5.59375 -6.703125 C 7.238281 -6.867188 8.0625 -7.773438 8.0625 -9.421875 L 8.0625 -33.015625 C 8.0625 -33.972656 7.90625 -34.617188 7.59375 -34.953125 C 7.28125 -35.296875 6.726562 -35.46875 5.9375 -35.46875 L 2.96875 -35.640625 L 2.96875 -42.6875 Z M 7.46875 -50.015625 C 6.28125 -51.179688 5.6875 -52.664062 5.6875 -54.46875 C 5.6875 -56.28125 6.28125 -57.796875 7.46875 -59.015625 C 8.65625 -60.234375 10.207031 -60.84375 12.125 -60.84375 C 14.050781 -60.84375 15.625 -60.234375 16.84375 -59.015625 C 18.0625 -57.796875 18.671875 -56.28125 18.671875 -54.46875 C 18.671875 -52.664062 18.0625 -51.179688 16.84375 -50.015625 C 15.625 -48.859375 14.050781 -48.28125 12.125 -48.28125 C 10.207031 -48.28125 8.65625 -48.859375 7.46875 -50.015625 Z M 7.46875 -50.015625 "/></g></g></g><g fill="#ff66c4" fill-opacity="1"><g transform="translate(749.6048, 90.348051)"><g><path d="M 17.984375 -60.5 L 17.984375 -7.046875 L 22.828125 -6.78125 L 22.828125 0 L 2.625 0 L 2.625 -6.453125 L 5.4375 -6.703125 C 7.070312 -6.867188 7.890625 -7.773438 7.890625 -9.421875 L 7.890625 -51.25 C 7.890625 -52.5 7.179688 -53.179688 5.765625 -53.296875 L 2.796875 -53.46875 L 2.796875 -60.5 Z M 17.984375 -60.5 "/></g></g></g><g fill="#ff66c4" fill-opacity="1"><g transform="translate(774.893051, 90.348051)"><g><path d="M 18.15625 -42.6875 L 18.15625 -7.046875 L 23 -6.78125 L 23 0 L 2.796875 0 L 2.796875 -6.453125 L 5.59375 -6.703125 C 7.238281 -6.867188 8.0625 -7.773438 8.0625 -9.421875 L 8.0625 -33.015625 C 8.0625 -33.972656 7.90625 -34.617188 7.59375 -34.953125 C 7.28125 -35.296875 6.726562 -35.46875 5.9375 -35.46875 L 2.96875 -35.640625 L 2.96875 -42.6875 Z M 7.46875 -50.015625 C 6.28125 -51.179688 5.6875 -52.664062 5.6875 -54.46875 C 5.6875 -56.28125 6.28125 -57.796875 7.46875 -59.015625 C 8.65625 -60.234375 10.207031 -60.84375 12.125 -60.84375 C 14.050781 -60.84375 15.625 -60.234375 16.84375 -59.015625 C 18.0625 -57.796875 18.671875 -56.28125 18.671875 -54.46875 C 18.671875 -52.664062 18.0625 -51.179688 16.84375 -50.015625 C 15.625 -48.859375 14.050781 -48.28125 12.125 -48.28125 C 10.207031 -48.28125 8.65625 -48.859375 7.46875 -50.015625 Z M 7.46875 -50.015625 "/></g></g></g><g fill="#ff66c4" fill-opacity="1"><g transform="translate(800.011585, 90.348051)"><g><path d="M 12.21875 -51.671875 L 17.734375 -51.671875 L 17.734375 -42.6875 L 29.015625 -42.6875 L 28.171875 -35.5625 L 17.734375 -35.5625 L 17.734375 -13.234375 C 17.734375 -10.742188 18.1875 -9.003906 19.09375 -8.015625 C 20 -7.023438 21.398438 -6.53125 23.296875 -6.53125 C 25.191406 -6.53125 27.097656 -7.125 29.015625 -8.3125 L 31.5625 -1.78125 C 28.738281 0.195312 25.148438 1.1875 20.796875 1.1875 C 18.242188 1.1875 16.085938 0.859375 14.328125 0.203125 C 12.578125 -0.441406 11.28125 -1.160156 10.4375 -1.953125 C 9.59375 -2.742188 8.941406 -3.898438 8.484375 -5.421875 C 8.035156 -6.953125 7.78125 -8.15625 7.71875 -9.03125 C 7.664062 -9.914062 7.640625 -11.207031 7.640625 -12.90625 L 7.640625 -35.5625 L 1.609375 -35.5625 L 2.453125 -41.75 C 5.117188 -41.976562 7.128906 -42.925781 8.484375 -44.59375 C 9.835938 -46.257812 11.082031 -48.617188 12.21875 -51.671875 Z M 12.21875 -51.671875 "/></g></g></g><g fill="#ff66c4" fill-opacity="1"><g transform="translate(832.003781, 90.348051)"><g><path d="M 34.03125 -1.609375 L 34.03125 -8.0625 C 30.914062 -3.644531 26.332031 -1.4375 20.28125 -1.4375 C 11.507812 -1.4375 7.125 -6.332031 7.125 -16.125 L 7.125 -33.1875 C 7.125 -34.707031 6.414062 -35.5 5 -35.5625 L 2.296875 -35.71875 L 2.296875 -42.6875 L 17.21875 -42.6875 L 17.21875 -18.328125 C 17.21875 -15.328125 17.640625 -13.0625 18.484375 -11.53125 C 19.335938 -10.007812 21.09375 -9.25 23.75 -9.25 C 26.414062 -9.25 28.554688 -10.066406 30.171875 -11.703125 C 31.785156 -13.347656 32.59375 -15.332031 32.59375 -17.65625 L 32.59375 -33.015625 C 32.59375 -33.972656 32.4375 -34.632812 32.125 -35 C 31.8125 -35.375 31.257812 -35.5625 30.46875 -35.5625 L 27.75 -35.71875 L 27.75 -42.6875 L 42.6875 -42.6875 L 42.6875 -1.609375 C 42.6875 5.234375 41.03125 10.238281 37.71875 13.40625 C 34.40625 16.570312 29.394531 18.15625 22.6875 18.15625 C 15.988281 18.15625 10.773438 17.222656 7.046875 15.359375 L 7.046875 3.5625 L 15.109375 2.890625 L 15.109375 6.953125 C 15.109375 8.484375 15.8125 9.515625 17.21875 10.046875 C 18.632812 10.585938 20.585938 10.859375 23.078125 10.859375 C 30.378906 10.859375 34.03125 6.703125 34.03125 -1.609375 Z M 34.03125 -1.609375 "/></g></g></g></g></g></svg>