<svg xmlns="http://www.w3.org/2000/svg" xmlns:xlink="http://www.w3.org/1999/xlink" width="2400" zoomAndPan="magnify" viewBox="0 0 1800 1499.999933" height="2000" preserveAspectRatio="xMidYMid meet" version="1.0"><defs><g/><clipPath id="965d7ad134"><path d="M 0 672 L 636.75 672 L 636.75 909 L 0 909 Z M 0 672 " clip-rule="nonzero"/></clipPath><clipPath id="50f6157b2b"><rect x="0" width="1158" y="0" height="254"/></clipPath><clipPath id="00d247139c"><rect x="0" width="1077" y="0" height="142"/></clipPath></defs><path fill="#063550" d="M 308.53125 612.074219 L 338.070312 612.074219 L 338.070312 641.617188 L 308.53125 641.617188 Z M 308.53125 612.074219 " fill-opacity="1" fill-rule="nonzero"/><path fill="#063550" d="M 261.605469 612.074219 L 291.148438 612.074219 L 291.148438 641.617188 L 261.605469 641.617188 Z M 261.605469 612.074219 " fill-opacity="1" fill-rule="nonzero"/><path fill="#063550" d="M 308.53125 566.109375 L 338.070312 566.109375 L 338.070312 595.648438 L 308.53125 595.648438 Z M 308.53125 566.109375 " fill-opacity="1" fill-rule="nonzero"/><path fill="#063550" d="M 261.605469 566.109375 L 291.148438 566.109375 L 291.148438 595.648438 L 261.605469 595.648438 Z M 261.605469 566.109375 " fill-opacity="1" fill-rule="nonzero"/><g clip-path="url(#965d7ad134)"><path fill="#063550" d="M 384.230469 767.550781 C 319.671875 792.636719 268.164062 803.457031 247.726562 799.449219 C 230.410156 796.007812 221.050781 785.632812 221.050781 785.632812 C 218.3125 782.574219 212.964844 776.65625 213.921875 770.859375 C 215.832031 759.019531 242.378906 754.242188 251.800781 752.269531 C 326.992188 736.800781 340.109375 691.53125 425.867188 677.144531 C 441.082031 674.597656 460.054688 671.414062 483.929688 673.832031 C 565.425781 682.046875 617.949219 746.347656 636.667969 772.007812 C 622.726562 777.800781 602.222656 786.460938 577.648438 797.410156 C 489.914062 836.5 478.457031 847.898438 432.679688 866.871094 C 378.882812 889.21875 325.464844 911.375 255.558594 907.871094 C 214.558594 905.835938 182.789062 895.648438 137.394531 881.132812 C 98.300781 868.652344 125.871094 873.554688 36.863281 835.164062 C 24.003906 829.5625 0 819.375 0.0625 805.941406 C 0.0625 801.039062 3.3125 796.007812 7.257812 793.082031 C 13.371094 788.558594 22.15625 788.304688 30.179688 792.316406 C 30.304688 789.324219 30.941406 784.929688 34.0625 781.367188 C 38.390625 776.398438 45.203125 775.828125 47.878906 775.636719 C 69.015625 774.042969 161.332031 802.121094 201.695312 810.078125 C 220.289062 813.707031 264.535156 821.921875 314.578125 806.070312 C 346.476562 796.007812 369.714844 779.648438 384.230469 767.550781 Z M 384.230469 767.550781 " fill-opacity="1" fill-rule="nonzero"/></g><path fill="#ff66c4" d="M 549.828125 636.207031 L 299.871094 430.050781 L 49.851562 636.207031 L 107.597656 636.207031 L 118.355469 627.355469 L 118.355469 769.140625 L 154.582031 777.738281 L 154.582031 597.75 L 299.871094 478.566406 L 447.832031 599.660156 L 447.832031 649.066406 L 482.53125 649.066406 L 482.53125 628.054688 L 492.527344 636.207031 Z M 549.828125 636.207031 " fill-opacity="1" fill-rule="nonzero"/><g transform="matrix(1, 0, 0, 1, 639, 490)"><g clip-path="url(#50f6157b2b)"><g fill="#063550" fill-opacity="1"><g transform="translate(1.186474, 200.29333)"><g><path d="M 5.984375 0 L 5.984375 -15.140625 L 12.140625 -15.703125 C 15.753906 -16.078125 17.5625 -17.820312 17.5625 -20.9375 L 17.5625 -107.828125 L 6.921875 -108.390625 L 6.921875 -124.265625 L 60.359375 -124.265625 C 74.316406 -124.265625 85.1875 -120.992188 92.96875 -114.453125 C 100.757812 -107.921875 104.65625 -98.113281 104.65625 -85.03125 C 104.65625 -71.945312 100.226562 -61.757812 91.375 -54.46875 C 82.53125 -47.1875 70.820312 -43.546875 56.25 -43.546875 L 40.359375 -43.546875 L 40.359375 -16.4375 L 58.3125 -15.890625 L 58.3125 0 Z M 40.359375 -61.671875 L 53.8125 -61.671875 C 72.007812 -61.671875 81.109375 -69.082031 81.109375 -83.90625 C 81.109375 -92.875 78.769531 -98.820312 74.09375 -101.75 C 69.425781 -104.675781 61.984375 -106.140625 51.765625 -106.140625 L 40.359375 -106.140625 Z M 40.359375 -61.671875 "/></g></g></g><g fill="#063550" fill-opacity="1"><g transform="translate(111.432976, 200.29333)"><g><path d="M 17.75 -20.9375 L 17.75 -72.6875 C 17.75 -74.6875 17.40625 -76.085938 16.71875 -76.890625 C 16.039062 -77.703125 14.828125 -78.171875 13.078125 -78.296875 L 5.234375 -78.859375 L 5.234375 -94 L 36.8125 -94 L 36.8125 -79.984375 C 39.050781 -84.835938 42.535156 -88.851562 47.265625 -92.03125 C 52.003906 -95.207031 57.457031 -96.796875 63.625 -96.796875 C 69.789062 -96.796875 75.679688 -95.425781 81.296875 -92.6875 L 81.296875 -64.84375 L 63.90625 -63.53125 L 63.90625 -72.140625 C 63.90625 -74.628906 63.285156 -76.1875 62.046875 -76.8125 C 60.671875 -77.425781 58.988281 -77.734375 57 -77.734375 C 52.007812 -77.734375 47.925781 -75.957031 44.75 -72.40625 C 41.570312 -68.863281 39.984375 -64.347656 39.984375 -58.859375 L 39.984375 -15.515625 L 56.25 -14.765625 L 56.25 0 L 6.171875 0 L 6.171875 -14.203125 L 12.328125 -14.765625 C 14.203125 -15.015625 15.570312 -15.539062 16.4375 -16.34375 C 17.3125 -17.15625 17.75 -18.6875 17.75 -20.9375 Z M 17.75 -20.9375 "/></g></g></g><g fill="#063550" fill-opacity="1"><g transform="translate(197.761593, 200.29333)"><g><path d="M 53.078125 -96.796875 C 62.421875 -96.796875 69.832031 -94.519531 75.3125 -89.96875 C 80.789062 -85.425781 83.53125 -79.046875 83.53125 -70.828125 C 83.53125 -65.347656 82.347656 -60.519531 79.984375 -56.34375 C 77.617188 -52.164062 74.691406 -48.894531 71.203125 -46.53125 C 67.710938 -44.164062 63.472656 -42.234375 58.484375 -40.734375 C 50.140625 -38.242188 40.738281 -37 30.28125 -37 C 30.644531 -30.394531 32.695312 -25.066406 36.4375 -21.015625 C 40.175781 -16.972656 45.90625 -14.953125 53.625 -14.953125 C 61.351562 -14.953125 69.082031 -17.691406 76.8125 -23.171875 L 83.90625 -8.03125 C 81.414062 -5.789062 77.210938 -3.488281 71.296875 -1.125 C 65.378906 1.238281 58.617188 2.421875 51.015625 2.421875 C 35.816406 2.421875 24.664062 -1.78125 17.5625 -10.1875 C 10.46875 -18.59375 6.921875 -30.144531 6.921875 -44.84375 C 6.921875 -59.550781 10.96875 -71.882812 19.0625 -81.84375 C 27.15625 -91.8125 38.492188 -96.796875 53.078125 -96.796875 Z M 44.5625 -54.09375 C 49.113281 -54.90625 53.320312 -56.710938 57.1875 -59.515625 C 61.050781 -62.316406 62.984375 -65.648438 62.984375 -69.515625 C 62.984375 -77.117188 59.242188 -80.921875 51.765625 -80.921875 C 44.785156 -80.921875 39.425781 -78.144531 35.6875 -72.59375 C 31.957031 -67.050781 29.90625 -60.421875 29.53125 -52.703125 C 35.007812 -52.828125 40.019531 -53.289062 44.5625 -54.09375 Z M 44.5625 -54.09375 "/></g></g></g><g fill="#063550" fill-opacity="1"><g transform="translate(288.201114, 200.29333)"><g><path d="M 28.78125 -48.03125 C 28.78125 -37.4375 30.769531 -29.210938 34.75 -23.359375 C 38.738281 -17.503906 44.5 -14.578125 52.03125 -14.578125 C 59.570312 -14.578125 67.019531 -17.253906 74.375 -22.609375 L 82.40625 -8.21875 C 73.5625 -1 62.472656 2.609375 49.140625 2.609375 C 35.816406 2.609375 25.320312 -1.59375 17.65625 -10 C 10 -18.40625 6.171875 -30.832031 6.171875 -47.28125 C 6.171875 -63.726562 10.5625 -76.09375 19.34375 -84.375 C 28.125 -92.65625 38.023438 -96.796875 49.046875 -96.796875 C 60.078125 -96.796875 70.328125 -94.242188 79.796875 -89.140625 L 79.796875 -64.84375 L 62.609375 -63.53125 L 62.609375 -72.5 C 62.609375 -75.863281 61.390625 -77.953125 58.953125 -78.765625 C 56.523438 -79.578125 54.003906 -79.984375 51.390625 -79.984375 C 36.316406 -79.984375 28.78125 -69.332031 28.78125 -48.03125 Z M 28.78125 -48.03125 "/></g></g></g><g fill="#063550" fill-opacity="1"><g transform="translate(376.211434, 200.29333)"><g><path d="M 39.984375 -94 L 39.984375 -15.515625 L 50.640625 -14.953125 L 50.640625 0 L 6.171875 0 L 6.171875 -14.203125 L 12.328125 -14.765625 C 15.941406 -15.140625 17.75 -17.132812 17.75 -20.75 L 17.75 -72.6875 C 17.75 -74.8125 17.40625 -76.242188 16.71875 -76.984375 C 16.039062 -77.734375 14.828125 -78.109375 13.078125 -78.109375 L 6.546875 -78.484375 L 6.546875 -94 Z M 16.4375 -110.15625 C 13.820312 -112.71875 12.515625 -115.988281 12.515625 -119.96875 C 12.515625 -123.957031 13.820312 -127.289062 16.4375 -129.96875 C 19.0625 -132.644531 22.488281 -133.984375 26.71875 -133.984375 C 30.957031 -133.984375 34.414062 -132.644531 37.09375 -129.96875 C 39.769531 -127.289062 41.109375 -123.957031 41.109375 -119.96875 C 41.109375 -115.988281 39.769531 -112.71875 37.09375 -110.15625 C 34.414062 -107.601562 30.957031 -106.328125 26.71875 -106.328125 C 22.488281 -106.328125 19.0625 -107.601562 16.4375 -110.15625 Z M 16.4375 -110.15625 "/></g></g></g><g fill="#063550" fill-opacity="1"><g transform="translate(431.521564, 200.29333)"><g><path d="M 49.140625 -13.640625 C 62.722656 -13.640625 69.515625 -24.601562 69.515625 -46.53125 C 69.515625 -57.613281 67.988281 -66.019531 64.9375 -71.75 C 61.882812 -77.488281 56.773438 -80.359375 49.609375 -80.359375 C 42.453125 -80.359375 37.191406 -77.613281 33.828125 -72.125 C 30.460938 -66.644531 28.78125 -59.171875 28.78125 -49.703125 C 28.78125 -32.140625 32.019531 -21.113281 38.5 -16.625 C 41.363281 -14.632812 44.910156 -13.640625 49.140625 -13.640625 Z M 6.171875 -47.09375 C 6.171875 -56.3125 7.539062 -64.316406 10.28125 -71.109375 C 13.019531 -77.898438 16.691406 -83.097656 21.296875 -86.703125 C 30.148438 -93.429688 39.929688 -96.796875 50.640625 -96.796875 C 58.117188 -96.796875 64.441406 -95.582031 69.609375 -93.15625 C 74.773438 -90.726562 78.820312 -87.925781 81.75 -84.75 C 84.6875 -81.570312 87.179688 -76.960938 89.234375 -70.921875 C 91.285156 -64.878906 92.3125 -57.742188 92.3125 -49.515625 C 92.3125 -32.328125 88.140625 -19.3125 79.796875 -10.46875 C 71.453125 -1.625 60.769531 2.796875 47.75 2.796875 C 34.726562 2.796875 24.539062 -1.40625 17.1875 -9.8125 C 9.84375 -18.21875 6.171875 -30.644531 6.171875 -47.09375 Z M 6.171875 -47.09375 "/></g></g></g><g fill="#063550" fill-opacity="1"><g transform="translate(530.182865, 200.29333)"><g><path d="M 105.203125 -14.765625 L 105.203125 0 L 74.9375 0 L 74.9375 -12.140625 C 68.082031 -2.429688 57.988281 2.421875 44.65625 2.421875 C 25.351562 2.421875 15.703125 -8.351562 15.703125 -29.90625 L 15.703125 -73.0625 C 15.703125 -76.425781 14.144531 -78.171875 11.03125 -78.296875 L 5.046875 -78.671875 L 5.046875 -94 L 37.9375 -94 L 37.9375 -34.765625 C 37.9375 -28.160156 38.867188 -23.175781 40.734375 -19.8125 C 42.609375 -16.445312 46.472656 -14.765625 52.328125 -14.765625 C 58.179688 -14.765625 62.882812 -16.570312 66.4375 -20.1875 C 69.988281 -23.800781 71.765625 -28.160156 71.765625 -33.265625 L 71.765625 -72.6875 C 71.765625 -74.6875 71.421875 -76.085938 70.734375 -76.890625 C 70.046875 -77.703125 68.832031 -78.171875 67.09375 -78.296875 L 61.109375 -78.671875 L 61.109375 -94 L 94 -94 L 94 -20.75 C 94 -18.75 94.304688 -17.40625 94.921875 -16.71875 C 95.546875 -16.039062 96.796875 -15.578125 98.671875 -15.328125 Z M 105.203125 -14.765625 "/></g></g></g><g fill="#063550" fill-opacity="1"><g transform="translate(640.616254, 200.29333)"><g><path d="M 55.125 -79.796875 C 52.132812 -80.921875 48.519531 -81.484375 44.28125 -81.484375 C 40.050781 -81.484375 36.660156 -80.515625 34.109375 -78.578125 C 31.554688 -76.648438 30.28125 -74.285156 30.28125 -71.484375 C 30.28125 -68.679688 30.742188 -66.5 31.671875 -64.9375 C 32.609375 -63.382812 34.070312 -62.046875 36.0625 -60.921875 C 39.175781 -59.296875 42.910156 -57.890625 47.265625 -56.703125 C 51.628906 -55.523438 54.867188 -54.59375 56.984375 -53.90625 C 59.109375 -53.226562 61.757812 -52.078125 64.9375 -50.453125 C 68.113281 -48.835938 70.515625 -47.09375 72.140625 -45.21875 C 76.492188 -40.613281 78.671875 -34.695312 78.671875 -27.46875 C 78.671875 -18.125 75.273438 -10.804688 68.484375 -5.515625 C 61.703125 -0.222656 53.078125 2.421875 42.609375 2.421875 C 27.410156 2.421875 15.945312 0.492188 8.21875 -3.359375 L 8.21875 -29.34375 L 25.046875 -30.640625 L 25.046875 -21.671875 C 25.046875 -16.191406 30.273438 -13.453125 40.734375 -13.453125 C 51.203125 -13.453125 56.4375 -17.253906 56.4375 -24.859375 C 56.4375 -27.597656 55.53125 -29.835938 53.71875 -31.578125 C 51.914062 -33.328125 50.140625 -34.507812 48.390625 -35.125 C 46.648438 -35.75 44.566406 -36.375 42.140625 -37 C 39.710938 -37.625 37.34375 -38.242188 35.03125 -38.859375 C 32.726562 -39.484375 30.238281 -40.328125 27.5625 -41.390625 C 24.882812 -42.453125 21.925781 -43.976562 18.6875 -45.96875 C 12.332031 -50.082031 9.15625 -56.96875 9.15625 -66.625 C 9.15625 -76.28125 12.582031 -83.722656 19.4375 -88.953125 C 26.289062 -94.179688 34.914062 -96.796875 45.3125 -96.796875 C 55.71875 -96.796875 66.03125 -94.304688 76.25 -89.328125 L 76.25 -66.90625 L 59.421875 -65.59375 L 59.421875 -73.4375 C 59.421875 -76.550781 57.988281 -78.671875 55.125 -79.796875 Z M 55.125 -79.796875 "/></g></g></g><g fill="#063550" fill-opacity="1"><g transform="translate(724.889396, 200.29333)"><g/></g></g><g fill="#063550" fill-opacity="1"><g transform="translate(762.261118, 200.29333)"><g><path d="M 81.484375 -104.46875 C 80.109375 -106.832031 75 -108.015625 66.15625 -108.015625 C 54.570312 -108.015625 45.785156 -104.085938 39.796875 -96.234375 C 33.816406 -88.390625 30.828125 -77.054688 30.828125 -62.234375 C 30.828125 -31.460938 42.351562 -16.078125 65.40625 -16.078125 C 65.78125 -16.078125 67.429688 -16.078125 70.359375 -16.078125 C 73.285156 -16.078125 76.054688 -16.476562 78.671875 -17.28125 C 81.285156 -18.09375 82.84375 -18.929688 83.34375 -19.796875 C 83.84375 -20.671875 84.09375 -22.046875 84.09375 -23.921875 L 84.09375 -38.875 L 103.15625 -37.5625 L 103.15625 -5.234375 C 93.4375 -0.128906 81.101562 2.421875 66.15625 2.421875 C 47.09375 2.421875 32.546875 -2.929688 22.515625 -13.640625 C 12.484375 -24.359375 7.46875 -40.304688 7.46875 -61.484375 C 7.46875 -73.191406 9.148438 -83.40625 12.515625 -92.125 C 15.878906 -100.84375 20.425781 -107.632812 26.15625 -112.5 C 37.375 -121.84375 50.707031 -126.515625 66.15625 -126.515625 C 78.613281 -126.515625 90.320312 -123.960938 101.28125 -118.859375 L 101.28125 -87.078125 L 82.21875 -85.78125 L 82.21875 -100.359375 C 82.21875 -102.222656 81.972656 -103.59375 81.484375 -104.46875 Z M 81.484375 -104.46875 "/></g></g></g><g fill="#063550" fill-opacity="1"><g transform="translate(874.749908, 200.29333)"><g><path d="M 90.078125 -90.265625 L 90.078125 -20.75 C 90.078125 -18.75 90.414062 -17.375 91.09375 -16.625 C 91.78125 -15.882812 93 -15.453125 94.75 -15.328125 L 100.71875 -14.953125 L 100.71875 0 L 71.015625 0 L 71.015625 -10.84375 L 70.453125 -11.03125 C 64.222656 -2.0625 55.6875 2.421875 44.84375 2.421875 C 32.132812 2.421875 22.726562 -1.625 16.625 -9.71875 C 10.519531 -17.8125 7.46875 -28.898438 7.46875 -42.984375 C 7.46875 -59.921875 11.578125 -73.125 19.796875 -82.59375 C 28.023438 -92.0625 40.363281 -96.796875 56.8125 -96.796875 C 67.394531 -96.796875 78.484375 -94.617188 90.078125 -90.265625 Z M 68.390625 -29.71875 L 68.390625 -78.109375 C 64.898438 -79.734375 60.101562 -80.546875 54 -80.546875 C 45.65625 -80.546875 39.613281 -77.179688 35.875 -70.453125 C 32.144531 -63.722656 30.28125 -54.816406 30.28125 -43.734375 C 30.28125 -23.546875 36.753906 -13.453125 49.703125 -13.453125 C 55.191406 -13.453125 59.675781 -15.101562 63.15625 -18.40625 C 66.644531 -21.707031 68.390625 -25.476562 68.390625 -29.71875 Z M 68.390625 -29.71875 "/></g></g></g><g fill="#063550" fill-opacity="1"><g transform="translate(980.698635, 200.29333)"><g><path d="M 17.75 -20.9375 L 17.75 -72.6875 C 17.75 -74.6875 17.40625 -76.085938 16.71875 -76.890625 C 16.039062 -77.703125 14.828125 -78.171875 13.078125 -78.296875 L 5.234375 -78.859375 L 5.234375 -94 L 36.8125 -94 L 36.8125 -79.984375 C 39.050781 -84.835938 42.535156 -88.851562 47.265625 -92.03125 C 52.003906 -95.207031 57.457031 -96.796875 63.625 -96.796875 C 69.789062 -96.796875 75.679688 -95.425781 81.296875 -92.6875 L 81.296875 -64.84375 L 63.90625 -63.53125 L 63.90625 -72.140625 C 63.90625 -74.628906 63.285156 -76.1875 62.046875 -76.8125 C 60.671875 -77.425781 58.988281 -77.734375 57 -77.734375 C 52.007812 -77.734375 47.925781 -75.957031 44.75 -72.40625 C 41.570312 -68.863281 39.984375 -64.347656 39.984375 -58.859375 L 39.984375 -15.515625 L 56.25 -14.765625 L 56.25 0 L 6.171875 0 L 6.171875 -14.203125 L 12.328125 -14.765625 C 14.203125 -15.015625 15.570312 -15.539062 16.4375 -16.34375 C 17.3125 -17.15625 17.75 -18.6875 17.75 -20.9375 Z M 17.75 -20.9375 "/></g></g></g><g fill="#063550" fill-opacity="1"><g transform="translate(1067.027237, 200.29333)"><g><path d="M 53.078125 -96.796875 C 62.421875 -96.796875 69.832031 -94.519531 75.3125 -89.96875 C 80.789062 -85.425781 83.53125 -79.046875 83.53125 -70.828125 C 83.53125 -65.347656 82.347656 -60.519531 79.984375 -56.34375 C 77.617188 -52.164062 74.691406 -48.894531 71.203125 -46.53125 C 67.710938 -44.164062 63.472656 -42.234375 58.484375 -40.734375 C 50.140625 -38.242188 40.738281 -37 30.28125 -37 C 30.644531 -30.394531 32.695312 -25.066406 36.4375 -21.015625 C 40.175781 -16.972656 45.90625 -14.953125 53.625 -14.953125 C 61.351562 -14.953125 69.082031 -17.691406 76.8125 -23.171875 L 83.90625 -8.03125 C 81.414062 -5.789062 77.210938 -3.488281 71.296875 -1.125 C 65.378906 1.238281 58.617188 2.421875 51.015625 2.421875 C 35.816406 2.421875 24.664062 -1.78125 17.5625 -10.1875 C 10.46875 -18.59375 6.921875 -30.144531 6.921875 -44.84375 C 6.921875 -59.550781 10.96875 -71.882812 19.0625 -81.84375 C 27.15625 -91.8125 38.492188 -96.796875 53.078125 -96.796875 Z M 44.5625 -54.09375 C 49.113281 -54.90625 53.320312 -56.710938 57.1875 -59.515625 C 61.050781 -62.316406 62.984375 -65.648438 62.984375 -69.515625 C 62.984375 -77.117188 59.242188 -80.921875 51.765625 -80.921875 C 44.785156 -80.921875 39.425781 -78.144531 35.6875 -72.59375 C 31.957031 -67.050781 29.90625 -60.421875 29.53125 -52.703125 C 35.007812 -52.828125 40.019531 -53.289062 44.5625 -54.09375 Z M 44.5625 -54.09375 "/></g></g></g></g></g><g transform="matrix(1, 0, 0, 1, 680, 703)"><g clip-path="url(#00d247139c)"><g fill="#ff66c4" fill-opacity="1"><g transform="translate(1.185436, 111.734096)"><g><path d="M 7.046875 -11.609375 L 23.75 -59.9375 L 17.21875 -60.546875 L 17.21875 -68.953125 L 40.953125 -68.953125 L 62.109375 -9.125 L 62.21875 -9.125 L 68.125 -8.8125 L 68.125 0 L 41.375 0 L 41.375 -8.40625 L 45.3125 -8.703125 C 46.488281 -8.847656 47.28125 -9.125 47.6875 -9.53125 C 48.101562 -9.945312 48.140625 -10.710938 47.796875 -11.828125 L 45.625 -18.25 L 21.359375 -18.25 L 18.25 -9.125 L 24.46875 -8.8125 L 24.46875 0 L 0.515625 0 L 0.515625 -8.40625 L 3.9375 -8.703125 C 5.394531 -8.847656 6.429688 -9.816406 7.046875 -11.609375 Z M 33.484375 -57.34375 L 23.84375 -27.78125 L 43.140625 -27.78125 L 33.796875 -57.34375 Z M 33.484375 -57.34375 "/></g></g></g><g fill="#ff66c4" fill-opacity="1"><g transform="translate(69.818959, 111.734096)"><g><path d="M 30.59375 -44.28125 C 28.925781 -44.894531 26.914062 -45.203125 24.5625 -45.203125 C 22.21875 -45.203125 20.335938 -44.664062 18.921875 -43.59375 C 17.503906 -42.53125 16.796875 -41.21875 16.796875 -39.65625 C 16.796875 -38.101562 17.054688 -36.894531 17.578125 -36.03125 C 18.097656 -35.164062 18.910156 -34.421875 20.015625 -33.796875 C 21.742188 -32.898438 23.816406 -32.125 26.234375 -31.46875 C 28.648438 -30.8125 30.445312 -30.289062 31.625 -29.90625 C 32.800781 -29.53125 34.269531 -28.890625 36.03125 -27.984375 C 37.789062 -27.085938 39.117188 -26.125 40.015625 -25.09375 C 42.441406 -22.53125 43.65625 -19.242188 43.65625 -15.234375 C 43.65625 -10.054688 41.769531 -6 38 -3.0625 C 34.226562 -0.125 29.441406 1.34375 23.640625 1.34375 C 15.203125 1.34375 8.84375 0.273438 4.5625 -1.859375 L 4.5625 -16.28125 L 13.890625 -17 L 13.890625 -12.03125 C 13.890625 -8.988281 16.789062 -7.46875 22.59375 -7.46875 C 28.40625 -7.46875 31.3125 -9.578125 31.3125 -13.796875 C 31.3125 -15.316406 30.8125 -16.554688 29.8125 -17.515625 C 28.8125 -18.484375 27.828125 -19.140625 26.859375 -19.484375 C 25.890625 -19.835938 24.726562 -20.1875 23.375 -20.53125 C 22.03125 -20.875 20.71875 -21.21875 19.4375 -21.5625 C 18.15625 -21.90625 16.769531 -22.367188 15.28125 -22.953125 C 13.800781 -23.546875 12.164062 -24.394531 10.375 -25.5 C 6.84375 -27.78125 5.078125 -31.597656 5.078125 -36.953125 C 5.078125 -42.316406 6.976562 -46.445312 10.78125 -49.34375 C 14.582031 -52.25 19.367188 -53.703125 25.140625 -53.703125 C 30.910156 -53.703125 36.628906 -52.320312 42.296875 -49.5625 L 42.296875 -37.125 L 32.96875 -36.390625 L 32.96875 -40.75 C 32.96875 -42.476562 32.175781 -43.65625 30.59375 -44.28125 Z M 30.59375 -44.28125 "/></g></g></g><g fill="#ff66c4" fill-opacity="1"><g transform="translate(116.576852, 111.734096)"><g><path d="M 30.59375 -44.28125 C 28.925781 -44.894531 26.914062 -45.203125 24.5625 -45.203125 C 22.21875 -45.203125 20.335938 -44.664062 18.921875 -43.59375 C 17.503906 -42.53125 16.796875 -41.21875 16.796875 -39.65625 C 16.796875 -38.101562 17.054688 -36.894531 17.578125 -36.03125 C 18.097656 -35.164062 18.910156 -34.421875 20.015625 -33.796875 C 21.742188 -32.898438 23.816406 -32.125 26.234375 -31.46875 C 28.648438 -30.8125 30.445312 -30.289062 31.625 -29.90625 C 32.800781 -29.53125 34.269531 -28.890625 36.03125 -27.984375 C 37.789062 -27.085938 39.117188 -26.125 40.015625 -25.09375 C 42.441406 -22.53125 43.65625 -19.242188 43.65625 -15.234375 C 43.65625 -10.054688 41.769531 -6 38 -3.0625 C 34.226562 -0.125 29.441406 1.34375 23.640625 1.34375 C 15.203125 1.34375 8.84375 0.273438 4.5625 -1.859375 L 4.5625 -16.28125 L 13.890625 -17 L 13.890625 -12.03125 C 13.890625 -8.988281 16.789062 -7.46875 22.59375 -7.46875 C 28.40625 -7.46875 31.3125 -9.578125 31.3125 -13.796875 C 31.3125 -15.316406 30.8125 -16.554688 29.8125 -17.515625 C 28.8125 -18.484375 27.828125 -19.140625 26.859375 -19.484375 C 25.890625 -19.835938 24.726562 -20.1875 23.375 -20.53125 C 22.03125 -20.875 20.71875 -21.21875 19.4375 -21.5625 C 18.15625 -21.90625 16.769531 -22.367188 15.28125 -22.953125 C 13.800781 -23.546875 12.164062 -24.394531 10.375 -25.5 C 6.84375 -27.78125 5.078125 -31.597656 5.078125 -36.953125 C 5.078125 -42.316406 6.976562 -46.445312 10.78125 -49.34375 C 14.582031 -52.25 19.367188 -53.703125 25.140625 -53.703125 C 30.910156 -53.703125 36.628906 -52.320312 42.296875 -49.5625 L 42.296875 -37.125 L 32.96875 -36.390625 L 32.96875 -40.75 C 32.96875 -42.476562 32.175781 -43.65625 30.59375 -44.28125 Z M 30.59375 -44.28125 "/></g></g></g><g fill="#ff66c4" fill-opacity="1"><g transform="translate(163.334744, 111.734096)"><g><path d="M 22.1875 -52.15625 L 22.1875 -8.609375 L 28.09375 -8.296875 L 28.09375 0 L 3.421875 0 L 3.421875 -7.875 L 6.84375 -8.1875 C 8.84375 -8.394531 9.84375 -9.503906 9.84375 -11.515625 L 9.84375 -40.328125 C 9.84375 -41.503906 9.648438 -42.300781 9.265625 -42.71875 C 8.890625 -43.132812 8.222656 -43.34375 7.265625 -43.34375 L 3.625 -43.546875 L 3.625 -52.15625 Z M 9.125 -61.125 C 7.675781 -62.539062 6.953125 -64.351562 6.953125 -66.5625 C 6.953125 -68.78125 7.675781 -70.628906 9.125 -72.109375 C 10.570312 -73.597656 12.472656 -74.34375 14.828125 -74.34375 C 17.179688 -74.34375 19.097656 -73.597656 20.578125 -72.109375 C 22.066406 -70.628906 22.8125 -68.78125 22.8125 -66.5625 C 22.8125 -64.351562 22.066406 -62.539062 20.578125 -61.125 C 19.097656 -59.707031 17.179688 -59 14.828125 -59 C 12.472656 -59 10.570312 -59.707031 9.125 -61.125 Z M 9.125 -61.125 "/></g></g></g><g fill="#ff66c4" fill-opacity="1"><g transform="translate(194.022847, 111.734096)"><g><path d="M 30.59375 -44.28125 C 28.925781 -44.894531 26.914062 -45.203125 24.5625 -45.203125 C 22.21875 -45.203125 20.335938 -44.664062 18.921875 -43.59375 C 17.503906 -42.53125 16.796875 -41.21875 16.796875 -39.65625 C 16.796875 -38.101562 17.054688 -36.894531 17.578125 -36.03125 C 18.097656 -35.164062 18.910156 -34.421875 20.015625 -33.796875 C 21.742188 -32.898438 23.816406 -32.125 26.234375 -31.46875 C 28.648438 -30.8125 30.445312 -30.289062 31.625 -29.90625 C 32.800781 -29.53125 34.269531 -28.890625 36.03125 -27.984375 C 37.789062 -27.085938 39.117188 -26.125 40.015625 -25.09375 C 42.441406 -22.53125 43.65625 -19.242188 43.65625 -15.234375 C 43.65625 -10.054688 41.769531 -6 38 -3.0625 C 34.226562 -0.125 29.441406 1.34375 23.640625 1.34375 C 15.203125 1.34375 8.84375 0.273438 4.5625 -1.859375 L 4.5625 -16.28125 L 13.890625 -17 L 13.890625 -12.03125 C 13.890625 -8.988281 16.789062 -7.46875 22.59375 -7.46875 C 28.40625 -7.46875 31.3125 -9.578125 31.3125 -13.796875 C 31.3125 -15.316406 30.8125 -16.554688 29.8125 -17.515625 C 28.8125 -18.484375 27.828125 -19.140625 26.859375 -19.484375 C 25.890625 -19.835938 24.726562 -20.1875 23.375 -20.53125 C 22.03125 -20.875 20.71875 -21.21875 19.4375 -21.5625 C 18.15625 -21.90625 16.769531 -22.367188 15.28125 -22.953125 C 13.800781 -23.546875 12.164062 -24.394531 10.375 -25.5 C 6.84375 -27.78125 5.078125 -31.597656 5.078125 -36.953125 C 5.078125 -42.316406 6.976562 -46.445312 10.78125 -49.34375 C 14.582031 -52.25 19.367188 -53.703125 25.140625 -53.703125 C 30.910156 -53.703125 36.628906 -52.320312 42.296875 -49.5625 L 42.296875 -37.125 L 32.96875 -36.390625 L 32.96875 -40.75 C 32.96875 -42.476562 32.175781 -43.65625 30.59375 -44.28125 Z M 30.59375 -44.28125 "/></g></g></g><g fill="#ff66c4" fill-opacity="1"><g transform="translate(239.743916, 111.734096)"><g><path d="M 14.9375 -63.140625 L 21.671875 -63.140625 L 21.671875 -52.15625 L 35.46875 -52.15625 L 34.421875 -43.4375 L 21.671875 -43.4375 L 21.671875 -16.171875 C 21.671875 -13.128906 22.222656 -11.003906 23.328125 -9.796875 C 24.429688 -8.585938 26.140625 -7.984375 28.453125 -7.984375 C 30.773438 -7.984375 33.113281 -8.707031 35.46875 -10.15625 L 38.578125 -2.171875 C 35.117188 0.242188 30.726562 1.453125 25.40625 1.453125 C 22.289062 1.453125 19.660156 1.050781 17.515625 0.25 C 15.378906 -0.539062 13.789062 -1.421875 12.75 -2.390625 C 11.71875 -3.359375 10.925781 -4.773438 10.375 -6.640625 C 9.820312 -8.503906 9.507812 -9.972656 9.4375 -11.046875 C 9.363281 -12.117188 9.328125 -13.691406 9.328125 -15.765625 L 9.328125 -43.4375 L 1.96875 -43.4375 L 3 -51.015625 C 6.25 -51.285156 8.703125 -52.441406 10.359375 -54.484375 C 12.023438 -56.523438 13.550781 -59.410156 14.9375 -63.140625 Z M 14.9375 -63.140625 "/></g></g></g><g fill="#ff66c4" fill-opacity="1"><g transform="translate(278.829779, 111.734096)"><g><path d="M 29.453125 -53.703125 C 34.628906 -53.703125 38.738281 -52.441406 41.78125 -49.921875 C 44.820312 -47.398438 46.34375 -43.859375 46.34375 -39.296875 C 46.34375 -36.253906 45.6875 -33.570312 44.375 -31.25 C 43.0625 -28.9375 41.4375 -27.125 39.5 -25.8125 C 37.570312 -24.5 35.222656 -23.429688 32.453125 -22.609375 C 27.816406 -21.222656 22.597656 -20.53125 16.796875 -20.53125 C 17.003906 -16.863281 18.144531 -13.90625 20.21875 -11.65625 C 22.289062 -9.414062 25.46875 -8.296875 29.75 -8.296875 C 34.039062 -8.296875 38.328125 -9.816406 42.609375 -12.859375 L 46.5625 -4.453125 C 45.175781 -3.210938 42.835938 -1.9375 39.546875 -0.625 C 36.265625 0.6875 32.519531 1.34375 28.3125 1.34375 C 19.875 1.34375 13.6875 -0.988281 9.75 -5.65625 C 5.8125 -10.320312 3.84375 -16.734375 3.84375 -24.890625 C 3.84375 -33.046875 6.085938 -39.882812 10.578125 -45.40625 C 15.066406 -50.9375 21.359375 -53.703125 29.453125 -53.703125 Z M 24.71875 -30.015625 C 27.25 -30.460938 29.582031 -31.460938 31.71875 -33.015625 C 33.863281 -34.578125 34.9375 -36.429688 34.9375 -38.578125 C 34.9375 -42.785156 32.863281 -44.890625 28.71875 -44.890625 C 24.851562 -44.890625 21.878906 -43.351562 19.796875 -40.28125 C 17.722656 -37.207031 16.582031 -33.523438 16.375 -29.234375 C 19.414062 -29.304688 22.195312 -29.566406 24.71875 -30.015625 Z M 24.71875 -30.015625 "/></g></g></g><g fill="#ff66c4" fill-opacity="1"><g transform="translate(329.008982, 111.734096)"><g><path d="M 29.453125 -53.703125 C 32.421875 -53.703125 35.253906 -53.289062 37.953125 -52.46875 L 37.953125 -62.9375 C 37.953125 -64.457031 37.050781 -65.285156 35.25 -65.421875 L 30.796875 -65.734375 L 30.796875 -73.921875 L 50.078125 -73.921875 L 50.078125 -10.890625 C 50.148438 -9.296875 51.015625 -8.5 52.671875 -8.5 L 56.296875 -8.296875 L 56.296875 0 L 39.5 0 L 39.5 -6.125 L 39.1875 -6.21875 C 36.082031 -1.175781 31.382812 1.34375 25.09375 1.34375 C 17.207031 1.34375 11.675781 -1.28125 8.5 -6.53125 C 5.59375 -11.300781 4.140625 -17.144531 4.140625 -24.0625 C 4.140625 -33.039062 6.367188 -40.222656 10.828125 -45.609375 C 15.285156 -51.003906 21.492188 -53.703125 29.453125 -53.703125 Z M 37.953125 -16.171875 L 37.953125 -43.03125 C 35.460938 -44.132812 32.832031 -44.6875 30.0625 -44.6875 C 25.5 -44.6875 22.164062 -42.851562 20.0625 -39.1875 C 17.957031 -35.53125 16.90625 -30.867188 16.90625 -25.203125 C 16.90625 -13.585938 20.632812 -7.78125 28.09375 -7.78125 C 30.925781 -7.78125 33.273438 -8.59375 35.140625 -10.21875 C 37.015625 -11.84375 37.953125 -13.828125 37.953125 -16.171875 Z M 37.953125 -16.171875 "/></g></g></g><g fill="#ff66c4" fill-opacity="1"><g transform="translate(387.896948, 111.734096)"><g/></g></g><g fill="#ff66c4" fill-opacity="1"><g transform="translate(408.632167, 111.734096)"><g><path d="M 52.5625 0 L 3.3125 0 L 3.3125 -8.40625 L 6.734375 -8.703125 C 8.742188 -8.910156 9.75 -9.878906 9.75 -11.609375 L 9.75 -59.828125 L 3.84375 -60.140625 L 3.84375 -68.953125 L 28.828125 -68.953125 L 28.828125 -60.546875 L 25.40625 -60.25 C 23.394531 -60.039062 22.390625 -58.929688 22.390625 -56.921875 L 22.390625 -10.6875 L 39.609375 -10.6875 C 40.578125 -10.6875 41.21875 -10.941406 41.53125 -11.453125 C 41.84375 -11.972656 42 -12.820312 42 -14 L 42 -21.25 L 52.5625 -20.53125 Z M 52.5625 0 "/></g></g></g><g fill="#ff66c4" fill-opacity="1"><g transform="translate(464.306194, 111.734096)"><g><path d="M 22.1875 -52.15625 L 22.1875 -8.609375 L 28.09375 -8.296875 L 28.09375 0 L 3.421875 0 L 3.421875 -7.875 L 6.84375 -8.1875 C 8.84375 -8.394531 9.84375 -9.503906 9.84375 -11.515625 L 9.84375 -40.328125 C 9.84375 -41.503906 9.648438 -42.300781 9.265625 -42.71875 C 8.890625 -43.132812 8.222656 -43.34375 7.265625 -43.34375 L 3.625 -43.546875 L 3.625 -52.15625 Z M 9.125 -61.125 C 7.675781 -62.539062 6.953125 -64.351562 6.953125 -66.5625 C 6.953125 -68.78125 7.675781 -70.628906 9.125 -72.109375 C 10.570312 -73.597656 12.472656 -74.34375 14.828125 -74.34375 C 17.179688 -74.34375 19.097656 -73.597656 20.578125 -72.109375 C 22.066406 -70.628906 22.8125 -68.78125 22.8125 -66.5625 C 22.8125 -64.351562 22.066406 -62.539062 20.578125 -61.125 C 19.097656 -59.707031 17.179688 -59 14.828125 -59 C 12.472656 -59 10.570312 -59.707031 9.125 -61.125 Z M 9.125 -61.125 "/></g></g></g><g fill="#ff66c4" fill-opacity="1"><g transform="translate(492.920637, 111.734096)"><g><path d="M 34.9375 -52.15625 L 56.828125 -52.15625 L 56.828125 -44.0625 L 53.609375 -43.859375 C 52.222656 -43.722656 51.289062 -42.894531 50.8125 -41.375 L 37.4375 0 L 21.5625 0 L 7.046875 -41.265625 C 6.703125 -42.234375 6.335938 -42.890625 5.953125 -43.234375 C 5.578125 -43.578125 4.941406 -43.785156 4.046875 -43.859375 L 1.03125 -44.0625 L 1.03125 -52.15625 L 25.40625 -52.15625 L 25.40625 -43.859375 L 19.078125 -43.546875 L 29.765625 -9.4375 L 29.96875 -9.4375 L 40.328125 -43.546875 L 34.9375 -43.859375 Z M 34.9375 -52.15625 "/></g></g></g><g fill="#ff66c4" fill-opacity="1"><g transform="translate(550.771854, 111.734096)"><g><path d="M 22.1875 -52.15625 L 22.1875 -8.609375 L 28.09375 -8.296875 L 28.09375 0 L 3.421875 0 L 3.421875 -7.875 L 6.84375 -8.1875 C 8.84375 -8.394531 9.84375 -9.503906 9.84375 -11.515625 L 9.84375 -40.328125 C 9.84375 -41.503906 9.648438 -42.300781 9.265625 -42.71875 C 8.890625 -43.132812 8.222656 -43.34375 7.265625 -43.34375 L 3.625 -43.546875 L 3.625 -52.15625 Z M 9.125 -61.125 C 7.675781 -62.539062 6.953125 -64.351562 6.953125 -66.5625 C 6.953125 -68.78125 7.675781 -70.628906 9.125 -72.109375 C 10.570312 -73.597656 12.472656 -74.34375 14.828125 -74.34375 C 17.179688 -74.34375 19.097656 -73.597656 20.578125 -72.109375 C 22.066406 -70.628906 22.8125 -68.78125 22.8125 -66.5625 C 22.8125 -64.351562 22.066406 -62.539062 20.578125 -61.125 C 19.097656 -59.707031 17.179688 -59 14.828125 -59 C 12.472656 -59 10.570312 -59.707031 9.125 -61.125 Z M 9.125 -61.125 "/></g></g></g><g fill="#ff66c4" fill-opacity="1"><g transform="translate(581.459972, 111.734096)"><g><path d="M 2.796875 -43.859375 L 2.796875 -52.15625 L 20.328125 -52.15625 L 20.328125 -45.421875 C 22.117188 -47.972656 24.5 -49.988281 27.46875 -51.46875 C 30.445312 -52.957031 33.664062 -53.703125 37.125 -53.703125 C 42.375 -53.703125 46.429688 -52.195312 49.296875 -49.1875 C 52.171875 -46.1875 53.609375 -41.679688 53.609375 -35.671875 L 53.609375 -8.609375 L 59.515625 -8.296875 L 59.515625 0 L 34.84375 0 L 34.84375 -7.875 L 38.265625 -8.1875 C 39.296875 -8.332031 40.050781 -8.628906 40.53125 -9.078125 C 41.019531 -9.523438 41.265625 -10.367188 41.265625 -11.609375 L 41.265625 -32.96875 C 41.265625 -36.769531 40.675781 -39.585938 39.5 -41.421875 C 38.332031 -43.253906 36.101562 -44.171875 32.8125 -44.171875 C 29.53125 -44.171875 26.921875 -43.132812 24.984375 -41.0625 C 23.046875 -38.988281 22.078125 -36.535156 22.078125 -33.703125 L 22.078125 -8.609375 L 28 -8.296875 L 28 0 L 3.3125 0 L 3.3125 -7.875 L 6.734375 -8.1875 C 7.773438 -8.332031 8.535156 -8.628906 9.015625 -9.078125 C 9.503906 -9.523438 9.75 -10.367188 9.75 -11.609375 L 9.75 -40.328125 C 9.75 -42.398438 8.882812 -43.472656 7.15625 -43.546875 Z M 2.796875 -43.859375 "/></g></g></g><g fill="#ff66c4" fill-opacity="1"><g transform="translate(643.665571, 111.734096)"><g><path d="M 49.5625 -0.109375 C 48.9375 7.566406 46.722656 13.203125 42.921875 16.796875 C 39.117188 20.390625 33.175781 22.1875 25.09375 22.1875 C 17.007812 22.1875 10.6875 21.046875 6.125 18.765625 L 6.125 4.359375 L 15.96875 3.53125 L 15.96875 8.5 C 15.96875 10.363281 16.832031 11.625 18.5625 12.28125 C 20.289062 12.9375 22.675781 13.265625 25.71875 13.265625 C 30.132812 13.265625 33.242188 11.929688 35.046875 9.265625 C 36.847656 6.609375 37.75 2.863281 37.75 -1.96875 L 37.75 -7.671875 C 34.425781 -3.796875 29.828125 -1.859375 23.953125 -1.859375 C 20.359375 -1.859375 17.195312 -2.550781 14.46875 -3.9375 C 11.738281 -5.320312 9.613281 -7.191406 8.09375 -9.546875 C 5.113281 -14.242188 3.625 -19.769531 3.625 -26.125 C 3.625 -35.1875 6.078125 -42.046875 10.984375 -46.703125 C 15.898438 -51.367188 22.4375 -53.703125 30.59375 -53.703125 C 37.363281 -53.703125 43.753906 -52.425781 49.765625 -49.875 L 49.765625 -11.40625 C 49.765625 -5.53125 49.695312 -1.765625 49.5625 -0.109375 Z M 37.75 -21.15625 L 37.75 -43.4375 C 35.320312 -44.269531 32.554688 -44.6875 29.453125 -44.6875 C 25.234375 -44.6875 22 -43.128906 19.75 -40.015625 C 17.5 -36.910156 16.375 -32.695312 16.375 -27.375 C 16.375 -16.445312 19.972656 -10.984375 27.171875 -10.984375 C 30.140625 -10.984375 32.644531 -11.898438 34.6875 -13.734375 C 36.726562 -15.566406 37.75 -18.039062 37.75 -21.15625 Z M 37.75 -21.15625 "/></g></g></g><g fill="#ff66c4" fill-opacity="1"><g transform="translate(700.065328, 111.734096)"><g/></g></g><g fill="#ff66c4" fill-opacity="1"><g transform="translate(720.800547, 111.734096)"><g><path d="M 3.53125 0 L 3.53125 -8.40625 L 6.953125 -8.703125 C 8.953125 -8.910156 9.953125 -9.878906 9.953125 -11.609375 L 9.953125 -59.828125 L 4.046875 -60.140625 L 4.046875 -68.953125 L 54.125 -68.953125 L 54.125 -51.734375 L 43.546875 -51.015625 L 43.546875 -55.15625 C 43.546875 -56.332031 43.375 -57.160156 43.03125 -57.640625 C 42.6875 -58.128906 41.859375 -58.375 40.546875 -58.375 L 22.609375 -58.375 L 22.609375 -40.015625 L 48.109375 -40.015625 L 48.109375 -29.453125 L 22.609375 -29.453125 L 22.609375 -9.125 L 31.828125 -8.8125 L 31.828125 0 Z M 3.53125 0 "/></g></g></g><g fill="#ff66c4" fill-opacity="1"><g transform="translate(777.096611, 111.734096)"><g><path d="M 49.984375 -50.078125 L 49.984375 -11.515625 C 49.984375 -10.398438 50.171875 -9.632812 50.546875 -9.21875 C 50.929688 -8.8125 51.601562 -8.570312 52.5625 -8.5 L 55.890625 -8.296875 L 55.890625 0 L 39.40625 0 L 39.40625 -6.015625 L 39.09375 -6.125 C 35.632812 -1.144531 30.898438 1.34375 24.890625 1.34375 C 17.835938 1.34375 12.613281 -0.898438 9.21875 -5.390625 C 5.832031 -9.878906 4.140625 -16.03125 4.140625 -23.84375 C 4.140625 -33.25 6.421875 -40.578125 10.984375 -45.828125 C 15.546875 -51.078125 22.390625 -53.703125 31.515625 -53.703125 C 37.390625 -53.703125 43.546875 -52.492188 49.984375 -50.078125 Z M 37.953125 -16.484375 L 37.953125 -43.34375 C 36.015625 -44.238281 33.351562 -44.6875 29.96875 -44.6875 C 25.332031 -44.6875 21.976562 -42.816406 19.90625 -39.078125 C 17.832031 -35.347656 16.796875 -30.410156 16.796875 -24.265625 C 16.796875 -13.066406 20.390625 -7.46875 27.578125 -7.46875 C 30.617188 -7.46875 33.109375 -8.382812 35.046875 -10.21875 C 36.984375 -12.050781 37.953125 -14.140625 37.953125 -16.484375 Z M 37.953125 -16.484375 "/></g></g></g><g fill="#ff66c4" fill-opacity="1"><g transform="translate(835.880945, 111.734096)"><g><path d="M 15.96875 -26.640625 C 15.96875 -20.765625 17.070312 -16.203125 19.28125 -12.953125 C 21.5 -9.710938 24.695312 -8.09375 28.875 -8.09375 C 33.0625 -8.09375 37.191406 -9.578125 41.265625 -12.546875 L 45.71875 -4.5625 C 40.8125 -0.550781 34.660156 1.453125 27.265625 1.453125 C 19.867188 1.453125 14.046875 -0.878906 9.796875 -5.546875 C 5.546875 -10.210938 3.421875 -17.109375 3.421875 -26.234375 C 3.421875 -35.359375 5.859375 -42.21875 10.734375 -46.8125 C 15.609375 -51.40625 21.101562 -53.703125 27.21875 -53.703125 C 33.332031 -53.703125 39.019531 -52.285156 44.28125 -49.453125 L 44.28125 -35.984375 L 34.734375 -35.25 L 34.734375 -40.234375 C 34.734375 -42.097656 34.054688 -43.253906 32.703125 -43.703125 C 31.359375 -44.148438 29.960938 -44.375 28.515625 -44.375 C 20.148438 -44.375 15.96875 -38.460938 15.96875 -26.640625 Z M 15.96875 -26.640625 "/></g></g></g><g fill="#ff66c4" fill-opacity="1"><g transform="translate(884.712321, 111.734096)"><g><path d="M 22.1875 -52.15625 L 22.1875 -8.609375 L 28.09375 -8.296875 L 28.09375 0 L 3.421875 0 L 3.421875 -7.875 L 6.84375 -8.1875 C 8.84375 -8.394531 9.84375 -9.503906 9.84375 -11.515625 L 9.84375 -40.328125 C 9.84375 -41.503906 9.648438 -42.300781 9.265625 -42.71875 C 8.890625 -43.132812 8.222656 -43.34375 7.265625 -43.34375 L 3.625 -43.546875 L 3.625 -52.15625 Z M 9.125 -61.125 C 7.675781 -62.539062 6.953125 -64.351562 6.953125 -66.5625 C 6.953125 -68.78125 7.675781 -70.628906 9.125 -72.109375 C 10.570312 -73.597656 12.472656 -74.34375 14.828125 -74.34375 C 17.179688 -74.34375 19.097656 -73.597656 20.578125 -72.109375 C 22.066406 -70.628906 22.8125 -68.78125 22.8125 -66.5625 C 22.8125 -64.351562 22.066406 -62.539062 20.578125 -61.125 C 19.097656 -59.707031 17.179688 -59 14.828125 -59 C 12.472656 -59 10.570312 -59.707031 9.125 -61.125 Z M 9.125 -61.125 "/></g></g></g><g fill="#ff66c4" fill-opacity="1"><g transform="translate(915.400439, 111.734096)"><g><path d="M 21.984375 -73.921875 L 21.984375 -8.609375 L 27.890625 -8.296875 L 27.890625 0 L 3.21875 0 L 3.21875 -7.875 L 6.640625 -8.1875 C 8.640625 -8.394531 9.640625 -9.503906 9.640625 -11.515625 L 9.640625 -62.625 C 9.640625 -64.144531 8.773438 -64.972656 7.046875 -65.109375 L 3.421875 -65.328125 L 3.421875 -73.921875 Z M 21.984375 -73.921875 "/></g></g></g><g fill="#ff66c4" fill-opacity="1"><g transform="translate(946.295882, 111.734096)"><g><path d="M 22.1875 -52.15625 L 22.1875 -8.609375 L 28.09375 -8.296875 L 28.09375 0 L 3.421875 0 L 3.421875 -7.875 L 6.84375 -8.1875 C 8.84375 -8.394531 9.84375 -9.503906 9.84375 -11.515625 L 9.84375 -40.328125 C 9.84375 -41.503906 9.648438 -42.300781 9.265625 -42.71875 C 8.890625 -43.132812 8.222656 -43.34375 7.265625 -43.34375 L 3.625 -43.546875 L 3.625 -52.15625 Z M 9.125 -61.125 C 7.675781 -62.539062 6.953125 -64.351562 6.953125 -66.5625 C 6.953125 -68.78125 7.675781 -70.628906 9.125 -72.109375 C 10.570312 -73.597656 12.472656 -74.34375 14.828125 -74.34375 C 17.179688 -74.34375 19.097656 -73.597656 20.578125 -72.109375 C 22.066406 -70.628906 22.8125 -68.78125 22.8125 -66.5625 C 22.8125 -64.351562 22.066406 -62.539062 20.578125 -61.125 C 19.097656 -59.707031 17.179688 -59 14.828125 -59 C 12.472656 -59 10.570312 -59.707031 9.125 -61.125 Z M 9.125 -61.125 "/></g></g></g><g fill="#ff66c4" fill-opacity="1"><g transform="translate(976.984, 111.734096)"><g><path d="M 14.9375 -63.140625 L 21.671875 -63.140625 L 21.671875 -52.15625 L 35.46875 -52.15625 L 34.421875 -43.4375 L 21.671875 -43.4375 L 21.671875 -16.171875 C 21.671875 -13.128906 22.222656 -11.003906 23.328125 -9.796875 C 24.429688 -8.585938 26.140625 -7.984375 28.453125 -7.984375 C 30.773438 -7.984375 33.113281 -8.707031 35.46875 -10.15625 L 38.578125 -2.171875 C 35.117188 0.242188 30.726562 1.453125 25.40625 1.453125 C 22.289062 1.453125 19.660156 1.050781 17.515625 0.25 C 15.378906 -0.539062 13.789062 -1.421875 12.75 -2.390625 C 11.71875 -3.359375 10.925781 -4.773438 10.375 -6.640625 C 9.820312 -8.503906 9.507812 -9.972656 9.4375 -11.046875 C 9.363281 -12.117188 9.328125 -13.691406 9.328125 -15.765625 L 9.328125 -43.4375 L 1.96875 -43.4375 L 3 -51.015625 C 6.25 -51.285156 8.703125 -52.441406 10.359375 -54.484375 C 12.023438 -56.523438 13.550781 -59.410156 14.9375 -63.140625 Z M 14.9375 -63.140625 "/></g></g></g><g fill="#ff66c4" fill-opacity="1"><g transform="translate(1016.069922, 111.734096)"><g><path d="M 41.578125 -1.96875 L 41.578125 -9.84375 C 37.773438 -4.457031 32.175781 -1.765625 24.78125 -1.765625 C 14.0625 -1.765625 8.703125 -7.742188 8.703125 -19.703125 L 8.703125 -40.546875 C 8.703125 -42.410156 7.84375 -43.375 6.125 -43.4375 L 2.796875 -43.65625 L 2.796875 -52.15625 L 21.046875 -52.15625 L 21.046875 -22.390625 C 21.046875 -18.734375 21.5625 -15.96875 22.59375 -14.09375 C 23.632812 -12.226562 25.78125 -11.296875 29.03125 -11.296875 C 32.28125 -11.296875 34.890625 -12.296875 36.859375 -14.296875 C 38.828125 -16.304688 39.8125 -18.726562 39.8125 -21.5625 L 39.8125 -40.328125 C 39.8125 -41.503906 39.617188 -42.316406 39.234375 -42.765625 C 38.859375 -43.210938 38.1875 -43.4375 37.21875 -43.4375 L 33.90625 -43.65625 L 33.90625 -52.15625 L 52.15625 -52.15625 L 52.15625 -1.96875 C 52.15625 6.394531 50.128906 12.507812 46.078125 16.375 C 42.035156 20.25 35.921875 22.1875 27.734375 22.1875 C 19.546875 22.1875 13.171875 21.046875 8.609375 18.765625 L 8.609375 4.359375 L 18.453125 3.53125 L 18.453125 8.5 C 18.453125 10.363281 19.316406 11.625 21.046875 12.28125 C 22.773438 12.9375 25.160156 13.265625 28.203125 13.265625 C 37.117188 13.265625 41.578125 8.1875 41.578125 -1.96875 Z M 41.578125 -1.96875 "/></g></g></g></g></g></svg>