<svg xmlns="http://www.w3.org/2000/svg" xmlns:xlink="http://www.w3.org/1999/xlink" width="2000" zoomAndPan="magnify" viewBox="0 0 1500 1499.999933" height="2000" preserveAspectRatio="xMidYMid meet" version="1.0"><defs><g/><clipPath id="b69ebb8909"><path d="M 6.1875 666 L 629.4375 666 L 629.4375 897 L 6.1875 897 Z M 6.1875 666 " clip-rule="nonzero"/></clipPath></defs><path fill="#063550" d="M 308.140625 606.539062 L 337.050781 606.539062 L 337.050781 635.453125 L 308.140625 635.453125 Z M 308.140625 606.539062 " fill-opacity="1" fill-rule="nonzero"/><path fill="#063550" d="M 262.21875 606.539062 L 291.128906 606.539062 L 291.128906 635.453125 L 262.21875 635.453125 Z M 262.21875 606.539062 " fill-opacity="1" fill-rule="nonzero"/><path fill="#063550" d="M 308.140625 561.554688 L 337.050781 561.554688 L 337.050781 590.464844 L 308.140625 590.464844 Z M 308.140625 561.554688 " fill-opacity="1" fill-rule="nonzero"/><path fill="#063550" d="M 262.21875 561.554688 L 291.128906 561.554688 L 291.128906 590.464844 L 262.21875 590.464844 Z M 262.21875 561.554688 " fill-opacity="1" fill-rule="nonzero"/><g clip-path="url(#b69ebb8909)"><path fill="#063550" d="M 382.226562 758.699219 C 319.042969 783.25 268.636719 793.84375 248.632812 789.917969 C 231.6875 786.554688 222.527344 776.398438 222.527344 776.398438 C 219.847656 773.40625 214.613281 767.613281 215.546875 761.941406 C 217.417969 750.351562 243.398438 745.679688 252.621094 743.746094 C 326.210938 728.605469 339.046875 684.304688 422.976562 670.222656 C 437.867188 667.730469 456.4375 664.613281 479.804688 666.980469 C 559.558594 675.019531 610.964844 737.953125 629.285156 763.0625 C 615.640625 768.734375 595.574219 777.207031 571.523438 787.925781 C 485.660156 826.183594 474.445312 837.335938 429.644531 855.90625 C 376.992188 877.773438 324.714844 899.457031 256.296875 896.03125 C 216.171875 894.039062 185.078125 884.066406 140.652344 869.863281 C 102.394531 857.648438 129.375 862.445312 42.265625 824.875 C 29.675781 819.390625 6.1875 809.421875 6.25 796.273438 C 6.25 791.476562 9.425781 786.554688 13.289062 783.6875 C 19.273438 779.261719 27.871094 779.015625 35.722656 782.941406 C 35.847656 780.011719 36.46875 775.710938 39.523438 772.222656 C 43.757812 767.363281 50.425781 766.800781 53.042969 766.613281 C 73.730469 765.058594 164.078125 792.535156 203.585938 800.324219 C 221.777344 803.875 265.085938 811.914062 314.058594 796.398438 C 345.277344 786.554688 368.019531 770.539062 382.226562 758.699219 Z M 382.226562 758.699219 " fill-opacity="1" fill-rule="nonzero"/></g><path fill="#ff66c4" d="M 544.292969 630.15625 L 299.664062 428.398438 L 54.976562 630.15625 L 111.492188 630.15625 L 122.019531 621.496094 L 122.019531 760.257812 L 157.476562 768.671875 L 157.476562 592.519531 L 299.664062 475.878906 L 444.472656 594.390625 L 444.472656 642.742188 L 478.433594 642.742188 L 478.433594 622.179688 L 488.214844 630.15625 Z M 544.292969 630.15625 " fill-opacity="1" fill-rule="nonzero"/><g fill="#063550" fill-opacity="1"><g transform="translate(599.367642, 646.994972)"><g><path d="M 4.640625 0 L 4.640625 -11.75 L 9.4375 -12.1875 C 12.238281 -12.476562 13.640625 -13.832031 13.640625 -16.25 L 13.640625 -83.734375 L 5.375 -84.15625 L 5.375 -96.5 L 46.875 -96.5 C 57.707031 -96.5 66.144531 -93.957031 72.1875 -88.875 C 78.238281 -83.800781 81.265625 -76.179688 81.265625 -66.015625 C 81.265625 -55.859375 77.828125 -47.953125 70.953125 -42.296875 C 64.085938 -36.640625 54.992188 -33.8125 43.671875 -33.8125 L 31.34375 -33.8125 L 31.34375 -12.765625 L 45.28125 -12.328125 L 45.28125 0 Z M 31.34375 -47.890625 L 41.796875 -47.890625 C 55.921875 -47.890625 62.984375 -53.644531 62.984375 -65.15625 C 62.984375 -72.125 61.164062 -76.742188 57.53125 -79.015625 C 53.90625 -81.285156 48.125 -82.421875 40.1875 -82.421875 L 31.34375 -82.421875 Z M 31.34375 -47.890625 "/></g></g></g><g fill="#063550" fill-opacity="1"><g transform="translate(684.977578, 646.994972)"><g><path d="M 13.78125 -16.25 L 13.78125 -56.453125 C 13.78125 -57.992188 13.515625 -59.078125 12.984375 -59.703125 C 12.453125 -60.335938 11.507812 -60.703125 10.15625 -60.796875 L 4.0625 -61.234375 L 4.0625 -72.984375 L 28.59375 -72.984375 L 28.59375 -62.109375 C 30.332031 -65.878906 33.039062 -69 36.71875 -71.46875 C 40.394531 -73.9375 44.625 -75.171875 49.40625 -75.171875 C 54.195312 -75.171875 58.769531 -74.101562 63.125 -71.96875 L 63.125 -50.359375 L 49.625 -49.34375 L 49.625 -56.015625 C 49.625 -57.953125 49.140625 -59.160156 48.171875 -59.640625 C 47.109375 -60.117188 45.804688 -60.359375 44.265625 -60.359375 C 40.390625 -60.359375 37.21875 -58.976562 34.75 -56.21875 C 32.28125 -53.46875 31.046875 -49.960938 31.046875 -45.703125 L 31.046875 -12.046875 L 43.671875 -11.46875 L 43.671875 0 L 4.78125 0 L 4.78125 -11.03125 L 9.578125 -11.46875 C 11.023438 -11.65625 12.085938 -12.0625 12.765625 -12.6875 C 13.441406 -13.320312 13.78125 -14.507812 13.78125 -16.25 Z M 13.78125 -16.25 "/></g></g></g><g fill="#063550" fill-opacity="1"><g transform="translate(752.014511, 646.994972)"><g><path d="M 41.21875 -75.171875 C 48.46875 -75.171875 54.21875 -73.40625 58.46875 -69.875 C 62.726562 -66.34375 64.859375 -61.382812 64.859375 -55 C 64.859375 -50.738281 63.9375 -46.988281 62.09375 -43.75 C 60.257812 -40.507812 57.988281 -37.96875 55.28125 -36.125 C 52.570312 -34.289062 49.285156 -32.796875 45.421875 -31.640625 C 38.941406 -29.703125 31.632812 -28.734375 23.5 -28.734375 C 23.789062 -23.609375 25.390625 -19.472656 28.296875 -16.328125 C 31.203125 -13.179688 35.648438 -11.609375 41.640625 -11.609375 C 47.640625 -11.609375 53.640625 -13.738281 59.640625 -18 L 65.15625 -6.234375 C 63.21875 -4.492188 59.953125 -2.703125 55.359375 -0.859375 C 50.765625 0.972656 45.515625 1.890625 39.609375 1.890625 C 27.804688 1.890625 19.148438 -1.375 13.640625 -7.90625 C 8.128906 -14.4375 5.375 -23.410156 5.375 -34.828125 C 5.375 -46.242188 8.515625 -55.820312 14.796875 -63.5625 C 21.085938 -71.300781 29.894531 -75.171875 41.21875 -75.171875 Z M 34.609375 -42 C 38.140625 -42.632812 41.40625 -44.039062 44.40625 -46.21875 C 47.40625 -48.394531 48.90625 -50.984375 48.90625 -53.984375 C 48.90625 -59.878906 46 -62.828125 40.1875 -62.828125 C 34.769531 -62.828125 30.609375 -60.675781 27.703125 -56.375 C 24.804688 -52.070312 23.210938 -46.921875 22.921875 -40.921875 C 27.179688 -41.015625 31.078125 -41.375 34.609375 -42 Z M 34.609375 -42 "/></g></g></g><g fill="#063550" fill-opacity="1"><g transform="translate(822.243692, 646.994972)"><g><path d="M 22.34375 -37.296875 C 22.34375 -29.066406 23.890625 -22.675781 26.984375 -18.125 C 30.085938 -13.582031 34.5625 -11.3125 40.40625 -11.3125 C 46.257812 -11.3125 52.039062 -13.394531 57.75 -17.5625 L 64 -6.390625 C 57.125 -0.773438 48.507812 2.03125 38.15625 2.03125 C 27.8125 2.03125 19.660156 -1.234375 13.703125 -7.765625 C 7.753906 -14.296875 4.78125 -23.941406 4.78125 -36.703125 C 4.78125 -49.472656 8.191406 -59.078125 15.015625 -65.515625 C 21.835938 -71.953125 29.53125 -75.171875 38.09375 -75.171875 C 46.65625 -75.171875 54.613281 -73.1875 61.96875 -69.21875 L 61.96875 -50.359375 L 48.609375 -49.34375 L 48.609375 -56.296875 C 48.609375 -58.910156 47.664062 -60.53125 45.78125 -61.15625 C 43.894531 -61.789062 41.9375 -62.109375 39.90625 -62.109375 C 28.195312 -62.109375 22.34375 -53.835938 22.34375 -37.296875 Z M 22.34375 -37.296875 "/></g></g></g><g fill="#063550" fill-opacity="1"><g transform="translate(890.58652, 646.994972)"><g><path d="M 31.046875 -72.984375 L 31.046875 -12.046875 L 39.328125 -11.609375 L 39.328125 0 L 4.78125 0 L 4.78125 -11.03125 L 9.578125 -11.46875 C 12.378906 -11.757812 13.78125 -13.304688 13.78125 -16.109375 L 13.78125 -56.453125 C 13.78125 -58.097656 13.515625 -59.207031 12.984375 -59.78125 C 12.453125 -60.363281 11.507812 -60.65625 10.15625 -60.65625 L 5.078125 -60.953125 L 5.078125 -72.984375 Z M 12.765625 -85.53125 C 10.734375 -87.519531 9.71875 -90.0625 9.71875 -93.15625 C 9.71875 -96.25 10.734375 -98.835938 12.765625 -100.921875 C 14.796875 -103.003906 17.457031 -104.046875 20.75 -104.046875 C 24.039062 -104.046875 26.722656 -103.003906 28.796875 -100.921875 C 30.878906 -98.835938 31.921875 -96.25 31.921875 -93.15625 C 31.921875 -90.0625 30.878906 -87.519531 28.796875 -85.53125 C 26.722656 -83.550781 24.039062 -82.5625 20.75 -82.5625 C 17.457031 -82.5625 14.796875 -83.550781 12.765625 -85.53125 Z M 12.765625 -85.53125 "/></g></g></g><g fill="#063550" fill-opacity="1"><g transform="translate(933.536605, 646.994972)"><g><path d="M 38.15625 -10.59375 C 48.707031 -10.59375 53.984375 -19.101562 53.984375 -36.125 C 53.984375 -44.738281 52.796875 -51.269531 50.421875 -55.71875 C 48.054688 -60.164062 44.09375 -62.390625 38.53125 -62.390625 C 32.96875 -62.390625 28.878906 -60.257812 26.265625 -56 C 23.648438 -51.75 22.34375 -45.945312 22.34375 -38.59375 C 22.34375 -24.957031 24.859375 -16.398438 29.890625 -12.921875 C 32.117188 -11.367188 34.875 -10.59375 38.15625 -10.59375 Z M 4.78125 -36.5625 C 4.78125 -43.726562 5.84375 -49.945312 7.96875 -55.21875 C 10.101562 -60.488281 12.960938 -64.523438 16.546875 -67.328125 C 23.410156 -72.554688 31.003906 -75.171875 39.328125 -75.171875 C 45.128906 -75.171875 50.035156 -74.222656 54.046875 -72.328125 C 58.066406 -70.441406 61.210938 -68.265625 63.484375 -65.796875 C 65.753906 -63.335938 67.6875 -59.757812 69.28125 -55.0625 C 70.882812 -50.375 71.6875 -44.835938 71.6875 -38.453125 C 71.6875 -25.097656 68.441406 -14.988281 61.953125 -8.125 C 55.472656 -1.257812 47.175781 2.171875 37.0625 2.171875 C 26.957031 2.171875 19.050781 -1.085938 13.34375 -7.609375 C 7.632812 -14.140625 4.78125 -23.789062 4.78125 -36.5625 Z M 4.78125 -36.5625 "/></g></g></g><g fill="#063550" fill-opacity="1"><g transform="translate(1010.150261, 646.994972)"><g><path d="M 81.703125 -11.46875 L 81.703125 0 L 58.1875 0 L 58.1875 -9.4375 C 52.863281 -1.882812 45.03125 1.890625 34.6875 1.890625 C 19.6875 1.890625 12.1875 -6.476562 12.1875 -23.21875 L 12.1875 -56.734375 C 12.1875 -59.347656 10.976562 -60.703125 8.5625 -60.796875 L 3.921875 -61.09375 L 3.921875 -72.984375 L 29.453125 -72.984375 L 29.453125 -26.984375 C 29.453125 -21.859375 30.175781 -17.988281 31.625 -15.375 C 33.082031 -12.769531 36.082031 -11.46875 40.625 -11.46875 C 45.175781 -11.46875 48.828125 -12.867188 51.578125 -15.671875 C 54.335938 -18.472656 55.71875 -21.859375 55.71875 -25.828125 L 55.71875 -56.453125 C 55.71875 -57.992188 55.453125 -59.078125 54.921875 -59.703125 C 54.390625 -60.335938 53.445312 -60.703125 52.09375 -60.796875 L 47.453125 -61.09375 L 47.453125 -72.984375 L 72.984375 -72.984375 L 72.984375 -16.109375 C 72.984375 -14.554688 73.222656 -13.515625 73.703125 -12.984375 C 74.191406 -12.453125 75.164062 -12.09375 76.625 -11.90625 Z M 81.703125 -11.46875 "/></g></g></g><g fill="#063550" fill-opacity="1"><g transform="translate(1095.905319, 646.994972)"><g><path d="M 42.8125 -61.96875 C 40.488281 -62.832031 37.679688 -63.265625 34.390625 -63.265625 C 31.097656 -63.265625 28.457031 -62.515625 26.46875 -61.015625 C 24.488281 -59.515625 23.5 -57.675781 23.5 -55.5 C 23.5 -53.320312 23.863281 -51.628906 24.59375 -50.421875 C 25.320312 -49.210938 26.457031 -48.175781 28 -47.3125 C 30.425781 -46.050781 33.332031 -44.957031 36.71875 -44.03125 C 40.101562 -43.113281 42.613281 -42.390625 44.25 -41.859375 C 45.894531 -41.328125 47.953125 -40.429688 50.421875 -39.171875 C 52.890625 -37.921875 54.753906 -36.566406 56.015625 -35.109375 C 59.398438 -31.535156 61.09375 -26.941406 61.09375 -21.328125 C 61.09375 -14.078125 58.457031 -8.394531 53.1875 -4.28125 C 47.914062 -0.164062 41.210938 1.890625 33.078125 1.890625 C 21.273438 1.890625 12.378906 0.390625 6.390625 -2.609375 L 6.390625 -22.78125 L 19.4375 -23.796875 L 19.4375 -16.828125 C 19.4375 -12.578125 23.5 -10.453125 31.625 -10.453125 C 39.757812 -10.453125 43.828125 -13.398438 43.828125 -19.296875 C 43.828125 -21.421875 43.125 -23.160156 41.71875 -24.515625 C 40.3125 -25.878906 38.929688 -26.800781 37.578125 -27.28125 C 36.222656 -27.757812 34.601562 -28.238281 32.71875 -28.71875 C 30.832031 -29.207031 28.992188 -29.691406 27.203125 -30.171875 C 25.421875 -30.660156 23.488281 -31.316406 21.40625 -32.140625 C 19.320312 -32.960938 17.023438 -34.148438 14.515625 -35.703125 C 9.578125 -38.890625 7.109375 -44.234375 7.109375 -51.734375 C 7.109375 -59.234375 9.769531 -65.015625 15.09375 -69.078125 C 20.414062 -73.140625 27.113281 -75.171875 35.1875 -75.171875 C 43.269531 -75.171875 51.273438 -73.234375 59.203125 -69.359375 L 59.203125 -51.953125 L 46.140625 -50.9375 L 46.140625 -57.03125 C 46.140625 -59.445312 45.03125 -61.09375 42.8125 -61.96875 Z M 42.8125 -61.96875 "/></g></g></g><g fill="#063550" fill-opacity="1"><g transform="translate(1161.34611, 646.994972)"><g/></g></g><g fill="#063550" fill-opacity="1"><g transform="translate(1190.366448, 646.994972)"><g><path d="M 63.265625 -81.109375 C 62.203125 -82.953125 58.238281 -83.875 51.375 -83.875 C 42.375 -83.875 35.550781 -80.828125 30.90625 -74.734375 C 26.257812 -68.640625 23.9375 -59.835938 23.9375 -48.328125 C 23.9375 -24.429688 32.882812 -12.484375 50.78125 -12.484375 C 51.070312 -12.484375 52.351562 -12.484375 54.625 -12.484375 C 56.90625 -12.484375 59.0625 -12.796875 61.09375 -13.421875 C 63.125 -14.046875 64.332031 -14.695312 64.71875 -15.375 C 65.101562 -16.050781 65.296875 -17.117188 65.296875 -18.578125 L 65.296875 -30.1875 L 80.09375 -29.171875 L 80.09375 -4.0625 C 72.550781 -0.09375 62.976562 1.890625 51.375 1.890625 C 36.570312 1.890625 25.273438 -2.269531 17.484375 -10.59375 C 9.691406 -18.914062 5.796875 -31.296875 5.796875 -47.734375 C 5.796875 -56.828125 7.101562 -64.757812 9.71875 -71.53125 C 12.332031 -78.3125 15.863281 -83.585938 20.3125 -87.359375 C 29.019531 -94.609375 39.375 -98.234375 51.375 -98.234375 C 61.039062 -98.234375 70.132812 -96.253906 78.65625 -92.296875 L 78.65625 -67.625 L 63.84375 -66.609375 L 63.84375 -77.921875 C 63.84375 -79.367188 63.648438 -80.429688 63.265625 -81.109375 Z M 63.265625 -81.109375 "/></g></g></g><g fill="#063550" fill-opacity="1"><g transform="translate(1277.717591, 646.994972)"><g><path d="M 69.9375 -70.09375 L 69.9375 -16.109375 C 69.9375 -14.554688 70.203125 -13.488281 70.734375 -12.90625 C 71.265625 -12.332031 72.210938 -12 73.578125 -11.90625 L 78.21875 -11.609375 L 78.21875 0 L 55.140625 0 L 55.140625 -8.421875 L 54.703125 -8.5625 C 49.867188 -1.59375 43.242188 1.890625 34.828125 1.890625 C 24.960938 1.890625 17.65625 -1.253906 12.90625 -7.546875 C 8.164062 -13.835938 5.796875 -22.445312 5.796875 -33.375 C 5.796875 -46.53125 8.988281 -56.785156 15.375 -64.140625 C 21.757812 -71.492188 31.335938 -75.171875 44.109375 -75.171875 C 52.335938 -75.171875 60.945312 -73.476562 69.9375 -70.09375 Z M 53.109375 -23.078125 L 53.109375 -60.65625 C 50.398438 -61.914062 46.675781 -62.546875 41.9375 -62.546875 C 35.457031 -62.546875 30.765625 -59.929688 27.859375 -54.703125 C 24.953125 -49.484375 23.5 -42.566406 23.5 -33.953125 C 23.5 -18.285156 28.53125 -10.453125 38.59375 -10.453125 C 42.851562 -10.453125 46.335938 -11.734375 49.046875 -14.296875 C 51.753906 -16.859375 53.109375 -19.785156 53.109375 -23.078125 Z M 53.109375 -23.078125 "/></g></g></g><g fill="#063550" fill-opacity="1"><g transform="translate(1359.990167, 646.994972)"><g><path d="M 13.78125 -16.25 L 13.78125 -56.453125 C 13.78125 -57.992188 13.515625 -59.078125 12.984375 -59.703125 C 12.453125 -60.335938 11.507812 -60.703125 10.15625 -60.796875 L 4.0625 -61.234375 L 4.0625 -72.984375 L 28.59375 -72.984375 L 28.59375 -62.109375 C 30.332031 -65.878906 33.039062 -69 36.71875 -71.46875 C 40.394531 -73.9375 44.625 -75.171875 49.40625 -75.171875 C 54.195312 -75.171875 58.769531 -74.101562 63.125 -71.96875 L 63.125 -50.359375 L 49.625 -49.34375 L 49.625 -56.015625 C 49.625 -57.953125 49.140625 -59.160156 48.171875 -59.640625 C 47.109375 -60.117188 45.804688 -60.359375 44.265625 -60.359375 C 40.390625 -60.359375 37.21875 -58.976562 34.75 -56.21875 C 32.28125 -53.46875 31.046875 -49.960938 31.046875 -45.703125 L 31.046875 -12.046875 L 43.671875 -11.46875 L 43.671875 0 L 4.78125 0 L 4.78125 -11.03125 L 9.578125 -11.46875 C 11.023438 -11.65625 12.085938 -12.0625 12.765625 -12.6875 C 13.441406 -13.320312 13.78125 -14.507812 13.78125 -16.25 Z M 13.78125 -16.25 "/></g></g></g><g fill="#063550" fill-opacity="1"><g transform="translate(1427.027087, 646.994972)"><g><path d="M 41.21875 -75.171875 C 48.46875 -75.171875 54.21875 -73.40625 58.46875 -69.875 C 62.726562 -66.34375 64.859375 -61.382812 64.859375 -55 C 64.859375 -50.738281 63.9375 -46.988281 62.09375 -43.75 C 60.257812 -40.507812 57.988281 -37.96875 55.28125 -36.125 C 52.570312 -34.289062 49.285156 -32.796875 45.421875 -31.640625 C 38.941406 -29.703125 31.632812 -28.734375 23.5 -28.734375 C 23.789062 -23.609375 25.390625 -19.472656 28.296875 -16.328125 C 31.203125 -13.179688 35.648438 -11.609375 41.640625 -11.609375 C 47.640625 -11.609375 53.640625 -13.738281 59.640625 -18 L 65.15625 -6.234375 C 63.21875 -4.492188 59.953125 -2.703125 55.359375 -0.859375 C 50.765625 0.972656 45.515625 1.890625 39.609375 1.890625 C 27.804688 1.890625 19.148438 -1.375 13.640625 -7.90625 C 8.128906 -14.4375 5.375 -23.410156 5.375 -34.828125 C 5.375 -46.242188 8.515625 -55.820312 14.796875 -63.5625 C 21.085938 -71.300781 29.894531 -75.171875 41.21875 -75.171875 Z M 34.609375 -42 C 38.140625 -42.632812 41.40625 -44.039062 44.40625 -46.21875 C 47.40625 -48.394531 48.90625 -50.984375 48.90625 -53.984375 C 48.90625 -59.878906 46 -62.828125 40.1875 -62.828125 C 34.769531 -62.828125 30.609375 -60.675781 27.703125 -56.375 C 24.804688 -52.070312 23.210938 -46.921875 22.921875 -40.921875 C 27.179688 -41.015625 31.078125 -41.375 34.609375 -42 Z M 34.609375 -42 "/></g></g></g><g fill="#ff66c4" fill-opacity="1"><g transform="translate(631.204598, 743.627148)"><g><path d="M 5.46875 -9.015625 L 18.4375 -46.53125 L 13.359375 -47.015625 L 13.359375 -53.546875 L 31.796875 -53.546875 L 48.234375 -7.078125 L 48.3125 -7.078125 L 52.90625 -6.84375 L 52.90625 0 L 32.125 0 L 32.125 -6.515625 L 35.1875 -6.765625 C 36.09375 -6.867188 36.707031 -7.082031 37.03125 -7.40625 C 37.351562 -7.726562 37.382812 -8.316406 37.125 -9.171875 L 35.421875 -14.171875 L 16.59375 -14.171875 L 14.171875 -7.078125 L 19 -6.84375 L 19 0 L 0.40625 0 L 0.40625 -6.515625 L 3.0625 -6.765625 C 4.1875 -6.867188 4.988281 -7.617188 5.46875 -9.015625 Z M 26 -44.53125 L 18.515625 -21.578125 L 33.5 -21.578125 L 26.25 -44.53125 Z M 26 -44.53125 "/></g></g></g><g fill="#ff66c4" fill-opacity="1"><g transform="translate(684.500725, 743.627148)"><g><path d="M 23.75 -34.375 C 22.457031 -34.863281 20.898438 -35.109375 19.078125 -35.109375 C 17.253906 -35.109375 15.789062 -34.691406 14.6875 -33.859375 C 13.59375 -33.023438 13.046875 -32.003906 13.046875 -30.796875 C 13.046875 -29.585938 13.242188 -28.644531 13.640625 -27.96875 C 14.046875 -27.300781 14.679688 -26.726562 15.546875 -26.25 C 16.878906 -25.550781 18.484375 -24.945312 20.359375 -24.4375 C 22.242188 -23.925781 23.640625 -23.519531 24.546875 -23.21875 C 25.460938 -22.925781 26.601562 -22.429688 27.96875 -21.734375 C 29.34375 -21.035156 30.378906 -20.285156 31.078125 -19.484375 C 32.953125 -17.492188 33.890625 -14.941406 33.890625 -11.828125 C 33.890625 -7.804688 32.425781 -4.65625 29.5 -2.375 C 26.582031 -0.09375 22.867188 1.046875 18.359375 1.046875 C 11.804688 1.046875 6.867188 0.210938 3.546875 -1.453125 L 3.546875 -12.640625 L 10.796875 -13.203125 L 10.796875 -9.34375 C 10.796875 -6.976562 13.046875 -5.796875 17.546875 -5.796875 C 22.054688 -5.796875 24.3125 -7.429688 24.3125 -10.703125 C 24.3125 -11.890625 23.921875 -12.859375 23.140625 -13.609375 C 22.367188 -14.359375 21.601562 -14.867188 20.84375 -15.140625 C 20.09375 -15.410156 19.195312 -15.675781 18.15625 -15.9375 C 17.113281 -16.207031 16.09375 -16.476562 15.09375 -16.75 C 14.101562 -17.019531 13.03125 -17.378906 11.875 -17.828125 C 10.71875 -18.285156 9.441406 -18.945312 8.046875 -19.8125 C 5.304688 -21.582031 3.9375 -24.546875 3.9375 -28.703125 C 3.9375 -32.859375 5.410156 -36.0625 8.359375 -38.3125 C 11.316406 -40.570312 15.035156 -41.703125 19.515625 -41.703125 C 24.003906 -41.703125 28.445312 -40.628906 32.84375 -38.484375 L 32.84375 -28.828125 L 25.609375 -28.265625 L 25.609375 -31.640625 C 25.609375 -32.984375 24.988281 -33.894531 23.75 -34.375 Z M 23.75 -34.375 "/></g></g></g><g fill="#ff66c4" fill-opacity="1"><g transform="translate(720.809724, 743.627148)"><g><path d="M 23.75 -34.375 C 22.457031 -34.863281 20.898438 -35.109375 19.078125 -35.109375 C 17.253906 -35.109375 15.789062 -34.691406 14.6875 -33.859375 C 13.59375 -33.023438 13.046875 -32.003906 13.046875 -30.796875 C 13.046875 -29.585938 13.242188 -28.644531 13.640625 -27.96875 C 14.046875 -27.300781 14.679688 -26.726562 15.546875 -26.25 C 16.878906 -25.550781 18.484375 -24.945312 20.359375 -24.4375 C 22.242188 -23.925781 23.640625 -23.519531 24.546875 -23.21875 C 25.460938 -22.925781 26.601562 -22.429688 27.96875 -21.734375 C 29.34375 -21.035156 30.378906 -20.285156 31.078125 -19.484375 C 32.953125 -17.492188 33.890625 -14.941406 33.890625 -11.828125 C 33.890625 -7.804688 32.425781 -4.65625 29.5 -2.375 C 26.582031 -0.09375 22.867188 1.046875 18.359375 1.046875 C 11.804688 1.046875 6.867188 0.210938 3.546875 -1.453125 L 3.546875 -12.640625 L 10.796875 -13.203125 L 10.796875 -9.34375 C 10.796875 -6.976562 13.046875 -5.796875 17.546875 -5.796875 C 22.054688 -5.796875 24.3125 -7.429688 24.3125 -10.703125 C 24.3125 -11.890625 23.921875 -12.859375 23.140625 -13.609375 C 22.367188 -14.359375 21.601562 -14.867188 20.84375 -15.140625 C 20.09375 -15.410156 19.195312 -15.675781 18.15625 -15.9375 C 17.113281 -16.207031 16.09375 -16.476562 15.09375 -16.75 C 14.101562 -17.019531 13.03125 -17.378906 11.875 -17.828125 C 10.71875 -18.285156 9.441406 -18.945312 8.046875 -19.8125 C 5.304688 -21.582031 3.9375 -24.546875 3.9375 -28.703125 C 3.9375 -32.859375 5.410156 -36.0625 8.359375 -38.3125 C 11.316406 -40.570312 15.035156 -41.703125 19.515625 -41.703125 C 24.003906 -41.703125 28.445312 -40.628906 32.84375 -38.484375 L 32.84375 -28.828125 L 25.609375 -28.265625 L 25.609375 -31.640625 C 25.609375 -32.984375 24.988281 -33.894531 23.75 -34.375 Z M 23.75 -34.375 "/></g></g></g><g fill="#ff66c4" fill-opacity="1"><g transform="translate(757.118723, 743.627148)"><g><path d="M 17.234375 -40.5 L 17.234375 -6.6875 L 21.8125 -6.4375 L 21.8125 0 L 2.65625 0 L 2.65625 -6.125 L 5.3125 -6.359375 C 6.875 -6.523438 7.65625 -7.382812 7.65625 -8.9375 L 7.65625 -31.328125 C 7.65625 -32.234375 7.503906 -32.847656 7.203125 -33.171875 C 6.910156 -33.492188 6.390625 -33.65625 5.640625 -33.65625 L 2.8125 -33.8125 L 2.8125 -40.5 Z M 7.078125 -47.453125 C 5.953125 -48.554688 5.390625 -49.96875 5.390625 -51.6875 C 5.390625 -53.40625 5.953125 -54.84375 7.078125 -56 C 8.210938 -57.15625 9.691406 -57.734375 11.515625 -57.734375 C 13.335938 -57.734375 14.828125 -57.15625 15.984375 -56 C 17.140625 -54.84375 17.71875 -53.40625 17.71875 -51.6875 C 17.71875 -49.96875 17.140625 -48.554688 15.984375 -47.453125 C 14.828125 -46.359375 13.335938 -45.8125 11.515625 -45.8125 C 9.691406 -45.8125 8.210938 -46.359375 7.078125 -47.453125 Z M 7.078125 -47.453125 "/></g></g></g><g fill="#ff66c4" fill-opacity="1"><g transform="translate(780.949016, 743.627148)"><g><path d="M 23.75 -34.375 C 22.457031 -34.863281 20.898438 -35.109375 19.078125 -35.109375 C 17.253906 -35.109375 15.789062 -34.691406 14.6875 -33.859375 C 13.59375 -33.023438 13.046875 -32.003906 13.046875 -30.796875 C 13.046875 -29.585938 13.242188 -28.644531 13.640625 -27.96875 C 14.046875 -27.300781 14.679688 -26.726562 15.546875 -26.25 C 16.878906 -25.550781 18.484375 -24.945312 20.359375 -24.4375 C 22.242188 -23.925781 23.640625 -23.519531 24.546875 -23.21875 C 25.460938 -22.925781 26.601562 -22.429688 27.96875 -21.734375 C 29.34375 -21.035156 30.378906 -20.285156 31.078125 -19.484375 C 32.953125 -17.492188 33.890625 -14.941406 33.890625 -11.828125 C 33.890625 -7.804688 32.425781 -4.65625 29.5 -2.375 C 26.582031 -0.09375 22.867188 1.046875 18.359375 1.046875 C 11.804688 1.046875 6.867188 0.210938 3.546875 -1.453125 L 3.546875 -12.640625 L 10.796875 -13.203125 L 10.796875 -9.34375 C 10.796875 -6.976562 13.046875 -5.796875 17.546875 -5.796875 C 22.054688 -5.796875 24.3125 -7.429688 24.3125 -10.703125 C 24.3125 -11.890625 23.921875 -12.859375 23.140625 -13.609375 C 22.367188 -14.359375 21.601562 -14.867188 20.84375 -15.140625 C 20.09375 -15.410156 19.195312 -15.675781 18.15625 -15.9375 C 17.113281 -16.207031 16.09375 -16.476562 15.09375 -16.75 C 14.101562 -17.019531 13.03125 -17.378906 11.875 -17.828125 C 10.71875 -18.285156 9.441406 -18.945312 8.046875 -19.8125 C 5.304688 -21.582031 3.9375 -24.546875 3.9375 -28.703125 C 3.9375 -32.859375 5.410156 -36.0625 8.359375 -38.3125 C 11.316406 -40.570312 15.035156 -41.703125 19.515625 -41.703125 C 24.003906 -41.703125 28.445312 -40.628906 32.84375 -38.484375 L 32.84375 -28.828125 L 25.609375 -28.265625 L 25.609375 -31.640625 C 25.609375 -32.984375 24.988281 -33.894531 23.75 -34.375 Z M 23.75 -34.375 "/></g></g></g><g fill="#ff66c4" fill-opacity="1"><g transform="translate(816.452889, 743.627148)"><g><path d="M 11.59375 -49.03125 L 16.828125 -49.03125 L 16.828125 -40.5 L 27.53125 -40.5 L 26.734375 -33.734375 L 16.828125 -33.734375 L 16.828125 -12.5625 C 16.828125 -10.195312 17.253906 -8.546875 18.109375 -7.609375 C 18.972656 -6.671875 20.300781 -6.203125 22.09375 -6.203125 C 23.894531 -6.203125 25.707031 -6.765625 27.53125 -7.890625 L 29.953125 -1.6875 C 27.265625 0.1875 23.851562 1.125 19.71875 1.125 C 17.3125 1.125 15.273438 0.816406 13.609375 0.203125 C 11.941406 -0.410156 10.707031 -1.09375 9.90625 -1.84375 C 9.101562 -2.601562 8.484375 -3.707031 8.046875 -5.15625 C 7.617188 -6.601562 7.378906 -7.742188 7.328125 -8.578125 C 7.273438 -9.410156 7.25 -10.628906 7.25 -12.234375 L 7.25 -33.734375 L 1.53125 -33.734375 L 2.328125 -39.609375 C 4.859375 -39.828125 6.765625 -40.726562 8.046875 -42.3125 C 9.335938 -43.894531 10.519531 -46.132812 11.59375 -49.03125 Z M 11.59375 -49.03125 "/></g></g></g><g fill="#ff66c4" fill-opacity="1"><g transform="translate(846.804311, 743.627148)"><g><path d="M 22.859375 -41.703125 C 26.890625 -41.703125 30.082031 -40.722656 32.4375 -38.765625 C 34.800781 -36.804688 35.984375 -34.054688 35.984375 -30.515625 C 35.984375 -28.148438 35.472656 -26.066406 34.453125 -24.265625 C 33.441406 -22.472656 32.179688 -21.066406 30.671875 -20.046875 C 29.171875 -19.023438 27.347656 -18.191406 25.203125 -17.546875 C 21.609375 -16.472656 17.554688 -15.9375 13.046875 -15.9375 C 13.203125 -13.09375 14.082031 -10.796875 15.6875 -9.046875 C 17.300781 -7.304688 19.769531 -6.4375 23.09375 -6.4375 C 26.425781 -6.4375 29.757812 -7.617188 33.09375 -9.984375 L 36.15625 -3.46875 C 35.082031 -2.5 33.269531 -1.503906 30.71875 -0.484375 C 28.164062 0.535156 25.253906 1.046875 21.984375 1.046875 C 15.429688 1.046875 10.625 -0.765625 7.5625 -4.390625 C 4.507812 -8.015625 2.984375 -12.992188 2.984375 -19.328125 C 2.984375 -25.660156 4.726562 -30.972656 8.21875 -35.265625 C 11.707031 -39.554688 16.585938 -41.703125 22.859375 -41.703125 Z M 19.203125 -23.296875 C 21.160156 -23.648438 22.972656 -24.429688 24.640625 -25.640625 C 26.304688 -26.847656 27.140625 -28.285156 27.140625 -29.953125 C 27.140625 -33.222656 25.523438 -34.859375 22.296875 -34.859375 C 19.296875 -34.859375 16.988281 -33.664062 15.375 -31.28125 C 13.769531 -28.894531 12.882812 -26.035156 12.71875 -22.703125 C 15.082031 -22.753906 17.242188 -22.953125 19.203125 -23.296875 Z M 19.203125 -23.296875 "/></g></g></g><g fill="#ff66c4" fill-opacity="1"><g transform="translate(885.770068, 743.627148)"><g><path d="M 22.859375 -41.703125 C 25.171875 -41.703125 27.375 -41.378906 29.46875 -40.734375 L 29.46875 -48.875 C 29.46875 -50.050781 28.769531 -50.695312 27.375 -50.8125 L 23.90625 -51.046875 L 23.90625 -57.40625 L 38.890625 -57.40625 L 38.890625 -8.453125 C 38.941406 -7.222656 39.613281 -6.609375 40.90625 -6.609375 L 43.71875 -6.4375 L 43.71875 0 L 30.671875 0 L 30.671875 -4.75 L 30.4375 -4.828125 C 28.019531 -0.910156 24.367188 1.046875 19.484375 1.046875 C 13.367188 1.046875 9.078125 -0.992188 6.609375 -5.078125 C 4.347656 -8.773438 3.21875 -13.304688 3.21875 -18.671875 C 3.21875 -25.648438 4.945312 -31.234375 8.40625 -35.421875 C 11.875 -39.609375 16.691406 -41.703125 22.859375 -41.703125 Z M 29.46875 -12.5625 L 29.46875 -33.40625 C 27.53125 -34.269531 25.488281 -34.703125 23.34375 -34.703125 C 19.800781 -34.703125 17.210938 -33.28125 15.578125 -30.4375 C 13.941406 -27.59375 13.125 -23.96875 13.125 -19.5625 C 13.125 -10.539062 16.019531 -6.03125 21.8125 -6.03125 C 24.019531 -6.03125 25.847656 -6.660156 27.296875 -7.921875 C 28.742188 -9.191406 29.46875 -10.738281 29.46875 -12.5625 Z M 29.46875 -12.5625 "/></g></g></g><g fill="#ff66c4" fill-opacity="1"><g transform="translate(931.498457, 743.627148)"><g/></g></g><g fill="#ff66c4" fill-opacity="1"><g transform="translate(947.600018, 743.627148)"><g><path d="M 40.828125 0 L 2.578125 0 L 2.578125 -6.515625 L 5.234375 -6.765625 C 6.785156 -6.921875 7.5625 -7.671875 7.5625 -9.015625 L 7.5625 -46.453125 L 2.984375 -46.703125 L 2.984375 -53.546875 L 22.390625 -53.546875 L 22.390625 -47.015625 L 19.71875 -46.78125 C 18.164062 -46.613281 17.390625 -45.753906 17.390625 -44.203125 L 17.390625 -8.296875 L 30.75 -8.296875 C 31.507812 -8.296875 32.007812 -8.492188 32.25 -8.890625 C 32.488281 -9.296875 32.609375 -9.957031 32.609375 -10.875 L 32.609375 -16.5 L 40.828125 -15.9375 Z M 40.828125 0 "/></g></g></g><g fill="#ff66c4" fill-opacity="1"><g transform="translate(990.832681, 743.627148)"><g><path d="M 17.234375 -40.5 L 17.234375 -6.6875 L 21.8125 -6.4375 L 21.8125 0 L 2.65625 0 L 2.65625 -6.125 L 5.3125 -6.359375 C 6.875 -6.523438 7.65625 -7.382812 7.65625 -8.9375 L 7.65625 -31.328125 C 7.65625 -32.234375 7.503906 -32.847656 7.203125 -33.171875 C 6.910156 -33.492188 6.390625 -33.65625 5.640625 -33.65625 L 2.8125 -33.8125 L 2.8125 -40.5 Z M 7.078125 -47.453125 C 5.953125 -48.554688 5.390625 -49.96875 5.390625 -51.6875 C 5.390625 -53.40625 5.953125 -54.84375 7.078125 -56 C 8.210938 -57.15625 9.691406 -57.734375 11.515625 -57.734375 C 13.335938 -57.734375 14.828125 -57.15625 15.984375 -56 C 17.140625 -54.84375 17.71875 -53.40625 17.71875 -51.6875 C 17.71875 -49.96875 17.140625 -48.554688 15.984375 -47.453125 C 14.828125 -46.359375 13.335938 -45.8125 11.515625 -45.8125 C 9.691406 -45.8125 8.210938 -46.359375 7.078125 -47.453125 Z M 7.078125 -47.453125 "/></g></g></g><g fill="#ff66c4" fill-opacity="1"><g transform="translate(1013.05271, 743.627148)"><g><path d="M 27.140625 -40.5 L 44.125 -40.5 L 44.125 -34.21875 L 41.625 -34.0625 C 40.550781 -33.945312 39.828125 -33.300781 39.453125 -32.125 L 29.0625 0 L 16.75 0 L 5.46875 -32.046875 C 5.207031 -32.796875 4.925781 -33.304688 4.625 -33.578125 C 4.332031 -33.847656 3.835938 -34.007812 3.140625 -34.0625 L 0.8125 -34.21875 L 0.8125 -40.5 L 19.71875 -40.5 L 19.71875 -34.0625 L 14.8125 -33.8125 L 23.109375 -7.328125 L 23.265625 -7.328125 L 31.328125 -33.8125 L 27.140625 -34.0625 Z M 27.140625 -40.5 "/></g></g></g><g fill="#ff66c4" fill-opacity="1"><g transform="translate(1057.976031, 743.627148)"><g><path d="M 17.234375 -40.5 L 17.234375 -6.6875 L 21.8125 -6.4375 L 21.8125 0 L 2.65625 0 L 2.65625 -6.125 L 5.3125 -6.359375 C 6.875 -6.523438 7.65625 -7.382812 7.65625 -8.9375 L 7.65625 -31.328125 C 7.65625 -32.234375 7.503906 -32.847656 7.203125 -33.171875 C 6.910156 -33.492188 6.390625 -33.65625 5.640625 -33.65625 L 2.8125 -33.8125 L 2.8125 -40.5 Z M 7.078125 -47.453125 C 5.953125 -48.554688 5.390625 -49.96875 5.390625 -51.6875 C 5.390625 -53.40625 5.953125 -54.84375 7.078125 -56 C 8.210938 -57.15625 9.691406 -57.734375 11.515625 -57.734375 C 13.335938 -57.734375 14.828125 -57.15625 15.984375 -56 C 17.140625 -54.84375 17.71875 -53.40625 17.71875 -51.6875 C 17.71875 -49.96875 17.140625 -48.554688 15.984375 -47.453125 C 14.828125 -46.359375 13.335938 -45.8125 11.515625 -45.8125 C 9.691406 -45.8125 8.210938 -46.359375 7.078125 -47.453125 Z M 7.078125 -47.453125 "/></g></g></g><g fill="#ff66c4" fill-opacity="1"><g transform="translate(1081.806336, 743.627148)"><g><path d="M 2.171875 -34.0625 L 2.171875 -40.5 L 15.78125 -40.5 L 15.78125 -35.265625 C 17.175781 -37.253906 19.023438 -38.820312 21.328125 -39.96875 C 23.640625 -41.125 26.140625 -41.703125 28.828125 -41.703125 C 32.898438 -41.703125 36.050781 -40.535156 38.28125 -38.203125 C 40.507812 -35.867188 41.625 -32.367188 41.625 -27.703125 L 41.625 -6.6875 L 46.21875 -6.4375 L 46.21875 0 L 27.046875 0 L 27.046875 -6.125 L 29.703125 -6.359375 C 30.515625 -6.460938 31.109375 -6.6875 31.484375 -7.03125 C 31.859375 -7.382812 32.046875 -8.046875 32.046875 -9.015625 L 32.046875 -25.609375 C 32.046875 -28.554688 31.585938 -30.738281 30.671875 -32.15625 C 29.765625 -33.582031 28.035156 -34.296875 25.484375 -34.296875 C 22.929688 -34.296875 20.90625 -33.488281 19.40625 -31.875 C 17.90625 -30.269531 17.15625 -28.367188 17.15625 -26.171875 L 17.15625 -6.6875 L 21.734375 -6.4375 L 21.734375 0 L 2.578125 0 L 2.578125 -6.125 L 5.234375 -6.359375 C 6.035156 -6.460938 6.625 -6.6875 7 -7.03125 C 7.375 -7.382812 7.5625 -8.046875 7.5625 -9.015625 L 7.5625 -31.328125 C 7.5625 -32.929688 6.894531 -33.757812 5.5625 -33.8125 Z M 2.171875 -34.0625 "/></g></g></g><g fill="#ff66c4" fill-opacity="1"><g transform="translate(1130.110974, 743.627148)"><g><path d="M 38.484375 -0.078125 C 38.003906 5.878906 36.285156 10.253906 33.328125 13.046875 C 30.378906 15.835938 25.765625 17.234375 19.484375 17.234375 C 13.203125 17.234375 8.289062 16.347656 4.75 14.578125 L 4.75 3.375 L 12.40625 2.734375 L 12.40625 6.609375 C 12.40625 8.054688 13.070312 9.035156 14.40625 9.546875 C 15.75 10.054688 17.601562 10.3125 19.96875 10.3125 C 23.40625 10.3125 25.820312 9.273438 27.21875 7.203125 C 28.613281 5.140625 29.3125 2.226562 29.3125 -1.53125 L 29.3125 -5.953125 C 26.726562 -2.953125 23.15625 -1.453125 18.59375 -1.453125 C 15.800781 -1.453125 13.34375 -1.988281 11.21875 -3.0625 C 9.101562 -4.132812 7.457031 -5.582031 6.28125 -7.40625 C 3.96875 -11.050781 2.8125 -15.347656 2.8125 -20.296875 C 2.8125 -27.328125 4.71875 -32.648438 8.53125 -36.265625 C 12.34375 -39.890625 17.414062 -41.703125 23.75 -41.703125 C 29.007812 -41.703125 33.972656 -40.710938 38.640625 -38.734375 L 38.640625 -8.859375 C 38.640625 -4.296875 38.585938 -1.367188 38.484375 -0.078125 Z M 29.3125 -16.421875 L 29.3125 -33.734375 C 27.425781 -34.378906 25.273438 -34.703125 22.859375 -34.703125 C 19.585938 -34.703125 17.078125 -33.492188 15.328125 -31.078125 C 13.585938 -28.660156 12.71875 -25.382812 12.71875 -21.25 C 12.71875 -12.769531 15.507812 -8.53125 21.09375 -8.53125 C 23.40625 -8.53125 25.351562 -9.238281 26.9375 -10.65625 C 28.519531 -12.082031 29.3125 -14.003906 29.3125 -16.421875 Z M 29.3125 -16.421875 "/></g></g></g><g fill="#ff66c4" fill-opacity="1"><g transform="translate(1173.907188, 743.627148)"><g/></g></g><g fill="#ff66c4" fill-opacity="1"><g transform="translate(1190.00875, 743.627148)"><g><path d="M 2.734375 0 L 2.734375 -6.515625 L 5.390625 -6.765625 C 6.953125 -6.921875 7.734375 -7.671875 7.734375 -9.015625 L 7.734375 -46.453125 L 3.140625 -46.703125 L 3.140625 -53.546875 L 42.03125 -53.546875 L 42.03125 -40.171875 L 33.8125 -39.609375 L 33.8125 -42.828125 C 33.8125 -43.742188 33.675781 -44.390625 33.40625 -44.765625 C 33.144531 -45.140625 32.503906 -45.328125 31.484375 -45.328125 L 17.546875 -45.328125 L 17.546875 -31.078125 L 37.359375 -31.078125 L 37.359375 -22.859375 L 17.546875 -22.859375 L 17.546875 -7.078125 L 24.71875 -6.84375 L 24.71875 0 Z M 2.734375 0 "/></g></g></g><g fill="#ff66c4" fill-opacity="1"><g transform="translate(1233.724444, 743.627148)"><g><path d="M 38.8125 -38.890625 L 38.8125 -8.9375 C 38.8125 -8.082031 38.957031 -7.492188 39.25 -7.171875 C 39.539062 -6.847656 40.066406 -6.660156 40.828125 -6.609375 L 43.390625 -6.4375 L 43.390625 0 L 30.59375 0 L 30.59375 -4.671875 L 30.359375 -4.75 C 27.671875 -0.882812 23.992188 1.046875 19.328125 1.046875 C 13.847656 1.046875 9.789062 -0.695312 7.15625 -4.1875 C 4.53125 -7.675781 3.21875 -12.453125 3.21875 -18.515625 C 3.21875 -25.816406 4.988281 -31.503906 8.53125 -35.578125 C 12.070312 -39.660156 17.390625 -41.703125 24.484375 -41.703125 C 29.046875 -41.703125 33.820312 -40.765625 38.8125 -38.890625 Z M 29.46875 -12.796875 L 29.46875 -33.65625 C 27.96875 -34.351562 25.898438 -34.703125 23.265625 -34.703125 C 19.671875 -34.703125 17.066406 -33.25 15.453125 -30.34375 C 13.847656 -27.445312 13.046875 -23.613281 13.046875 -18.84375 C 13.046875 -10.144531 15.835938 -5.796875 21.421875 -5.796875 C 23.773438 -5.796875 25.703125 -6.503906 27.203125 -7.921875 C 28.710938 -9.347656 29.46875 -10.972656 29.46875 -12.796875 Z M 29.46875 -12.796875 "/></g></g></g><g fill="#ff66c4" fill-opacity="1"><g transform="translate(1279.372359, 743.627148)"><g><path d="M 12.40625 -20.6875 C 12.40625 -16.125 13.257812 -12.582031 14.96875 -10.0625 C 16.6875 -7.539062 19.171875 -6.28125 22.421875 -6.28125 C 25.671875 -6.28125 28.878906 -7.4375 32.046875 -9.75 L 35.5 -3.546875 C 31.695312 -0.429688 26.921875 1.125 21.171875 1.125 C 15.429688 1.125 10.910156 -0.6875 7.609375 -4.3125 C 4.304688 -7.9375 2.65625 -13.289062 2.65625 -20.375 C 2.65625 -27.457031 4.546875 -32.78125 8.328125 -36.34375 C 12.117188 -39.914062 16.390625 -41.703125 21.140625 -41.703125 C 25.890625 -41.703125 30.300781 -40.601562 34.375 -38.40625 L 34.375 -27.9375 L 26.96875 -27.375 L 26.96875 -31.234375 C 26.96875 -32.679688 26.441406 -33.578125 25.390625 -33.921875 C 24.347656 -34.273438 23.265625 -34.453125 22.140625 -34.453125 C 15.648438 -34.453125 12.40625 -29.863281 12.40625 -20.6875 Z M 12.40625 -20.6875 "/></g></g></g><g fill="#ff66c4" fill-opacity="1"><g transform="translate(1317.291485, 743.627148)"><g><path d="M 17.234375 -40.5 L 17.234375 -6.6875 L 21.8125 -6.4375 L 21.8125 0 L 2.65625 0 L 2.65625 -6.125 L 5.3125 -6.359375 C 6.875 -6.523438 7.65625 -7.382812 7.65625 -8.9375 L 7.65625 -31.328125 C 7.65625 -32.234375 7.503906 -32.847656 7.203125 -33.171875 C 6.910156 -33.492188 6.390625 -33.65625 5.640625 -33.65625 L 2.8125 -33.8125 L 2.8125 -40.5 Z M 7.078125 -47.453125 C 5.953125 -48.554688 5.390625 -49.96875 5.390625 -51.6875 C 5.390625 -53.40625 5.953125 -54.84375 7.078125 -56 C 8.210938 -57.15625 9.691406 -57.734375 11.515625 -57.734375 C 13.335938 -57.734375 14.828125 -57.15625 15.984375 -56 C 17.140625 -54.84375 17.71875 -53.40625 17.71875 -51.6875 C 17.71875 -49.96875 17.140625 -48.554688 15.984375 -47.453125 C 14.828125 -46.359375 13.335938 -45.8125 11.515625 -45.8125 C 9.691406 -45.8125 8.210938 -46.359375 7.078125 -47.453125 Z M 7.078125 -47.453125 "/></g></g></g><g fill="#ff66c4" fill-opacity="1"><g transform="translate(1341.12179, 743.627148)"><g><path d="M 17.0625 -57.40625 L 17.0625 -6.6875 L 21.65625 -6.4375 L 21.65625 0 L 2.5 0 L 2.5 -6.125 L 5.15625 -6.359375 C 6.707031 -6.523438 7.484375 -7.382812 7.484375 -8.9375 L 7.484375 -48.625 C 7.484375 -49.8125 6.8125 -50.457031 5.46875 -50.5625 L 2.65625 -50.71875 L 2.65625 -57.40625 Z M 17.0625 -57.40625 "/></g></g></g><g fill="#ff66c4" fill-opacity="1"><g transform="translate(1365.11309, 743.627148)"><g><path d="M 17.234375 -40.5 L 17.234375 -6.6875 L 21.8125 -6.4375 L 21.8125 0 L 2.65625 0 L 2.65625 -6.125 L 5.3125 -6.359375 C 6.875 -6.523438 7.65625 -7.382812 7.65625 -8.9375 L 7.65625 -31.328125 C 7.65625 -32.234375 7.503906 -32.847656 7.203125 -33.171875 C 6.910156 -33.492188 6.390625 -33.65625 5.640625 -33.65625 L 2.8125 -33.8125 L 2.8125 -40.5 Z M 7.078125 -47.453125 C 5.953125 -48.554688 5.390625 -49.96875 5.390625 -51.6875 C 5.390625 -53.40625 5.953125 -54.84375 7.078125 -56 C 8.210938 -57.15625 9.691406 -57.734375 11.515625 -57.734375 C 13.335938 -57.734375 14.828125 -57.15625 15.984375 -56 C 17.140625 -54.84375 17.71875 -53.40625 17.71875 -51.6875 C 17.71875 -49.96875 17.140625 -48.554688 15.984375 -47.453125 C 14.828125 -46.359375 13.335938 -45.8125 11.515625 -45.8125 C 9.691406 -45.8125 8.210938 -46.359375 7.078125 -47.453125 Z M 7.078125 -47.453125 "/></g></g></g><g fill="#ff66c4" fill-opacity="1"><g transform="translate(1388.943395, 743.627148)"><g><path d="M 11.59375 -49.03125 L 16.828125 -49.03125 L 16.828125 -40.5 L 27.53125 -40.5 L 26.734375 -33.734375 L 16.828125 -33.734375 L 16.828125 -12.5625 C 16.828125 -10.195312 17.253906 -8.546875 18.109375 -7.609375 C 18.972656 -6.671875 20.300781 -6.203125 22.09375 -6.203125 C 23.894531 -6.203125 25.707031 -6.765625 27.53125 -7.890625 L 29.953125 -1.6875 C 27.265625 0.1875 23.851562 1.125 19.71875 1.125 C 17.3125 1.125 15.273438 0.816406 13.609375 0.203125 C 11.941406 -0.410156 10.707031 -1.09375 9.90625 -1.84375 C 9.101562 -2.601562 8.484375 -3.707031 8.046875 -5.15625 C 7.617188 -6.601562 7.378906 -7.742188 7.328125 -8.578125 C 7.273438 -9.410156 7.25 -10.628906 7.25 -12.234375 L 7.25 -33.734375 L 1.53125 -33.734375 L 2.328125 -39.609375 C 4.859375 -39.828125 6.765625 -40.726562 8.046875 -42.3125 C 9.335938 -43.894531 10.519531 -46.132812 11.59375 -49.03125 Z M 11.59375 -49.03125 "/></g></g></g><g fill="#ff66c4" fill-opacity="1"><g transform="translate(1419.294864, 743.627148)"><g><path d="M 32.28125 -1.53125 L 32.28125 -7.65625 C 29.332031 -3.46875 24.988281 -1.375 19.25 -1.375 C 10.925781 -1.375 6.765625 -6.015625 6.765625 -15.296875 L 6.765625 -31.484375 C 6.765625 -32.929688 6.09375 -33.679688 4.75 -33.734375 L 2.171875 -33.890625 L 2.171875 -40.5 L 16.34375 -40.5 L 16.34375 -17.390625 C 16.34375 -14.546875 16.742188 -12.398438 17.546875 -10.953125 C 18.359375 -9.503906 20.023438 -8.78125 22.546875 -8.78125 C 25.066406 -8.78125 27.09375 -9.554688 28.625 -11.109375 C 30.15625 -12.671875 30.921875 -14.550781 30.921875 -16.75 L 30.921875 -31.328125 C 30.921875 -32.234375 30.769531 -32.859375 30.46875 -33.203125 C 30.175781 -33.554688 29.65625 -33.734375 28.90625 -33.734375 L 26.328125 -33.890625 L 26.328125 -40.5 L 40.5 -40.5 L 40.5 -1.53125 C 40.5 4.96875 38.925781 9.71875 35.78125 12.71875 C 32.644531 15.726562 27.894531 17.234375 21.53125 17.234375 C 15.175781 17.234375 10.226562 16.347656 6.6875 14.578125 L 6.6875 3.375 L 14.328125 2.734375 L 14.328125 6.609375 C 14.328125 8.054688 15 9.035156 16.34375 9.546875 C 17.6875 10.054688 19.539062 10.3125 21.90625 10.3125 C 28.820312 10.3125 32.28125 6.363281 32.28125 -1.53125 Z M 32.28125 -1.53125 "/></g></g></g></svg>